<?xml version="1.0" encoding="utf-8"?>
<!-- Generator: Adobe Illustrator 23.0.1, SVG Export Plug-In . SVG Version: 6.00 Build 0)  -->
<svg version="1.1"
	 id="svg1538" xmlns:cc="http://creativecommons.org/ns#" xmlns:dc="http://purl.org/dc/elements/1.1/" xmlns:inkscape="http://www.inkscape.org/namespaces/inkscape" xmlns:rdf="http://www.w3.org/1999/02/22-rdf-syntax-ns#" xmlns:sodipodi="http://sodipodi.sourceforge.net/DTD/sodipodi-0.dtd" xmlns:svg="http://www.w3.org/2000/svg"
	 xmlns="http://www.w3.org/2000/svg" xmlns:xlink="http://www.w3.org/1999/xlink" x="0px" y="0px" width="940.7px" height="665.7px"
	 viewBox="0 0 940.7 665.7" style="enable-background:new 0 0 940.7 665.7;" xml:space="preserve">
<style type="text/css">
	.st0{fill:#3BC07C;stroke:#3BC07C;stroke-width:3;stroke-miterlimit:10;}
	.st1{fill:#FFFFFF;stroke:#3BC07C;}
</style>
<g id="g852" transform="matrix(0,-0.35277777,-0.35277777,0,114.81397,271.71594)">
	<path id="path854" inkscape:connector-curvature="0" class="st0" d="M-239.4-38.6c18.7-20.7,35.7-43.1,53.3-64.8
		c18.2-22.4,36.9-44.4,54.1-67.5c16.1-21.7,30.8-44.3,45.5-67c31.4-48.3,64.2-95.6,95.6-143.9c15.5-23.9,28.7-49.4,42.7-74.1
		C65.8-481,80-506.1,94.4-531.1c28.1-48.7,58.3-96.1,85.6-145.2c27.1-48.9,55.8-97,79.6-147.7c24.4-51.9,49-103.7,72.2-156.2
		c10.8-24.5,24.1-49,29.4-75.4c5.6-27.5,13.9-54.3,22.1-81.2c16.4-54.2,33.7-107.9,54.1-160.7c20.1-52,35.5-105.7,55.4-157.8
		c4.6-12.1,9-24,15.8-35.1c7.1-11.5,14.6-22.7,22-34c13.3-20.2,27.9-40.2,34.8-63.7c16-54.9,20.4-112,27.7-168.5
		c13.2,1.7,22.2,2.5,33.9-4.9c9.2-5.8,17-12,22.7-21.5c12.6-21.2,12.4-47.7,16.9-71.4c5.5-28.5,10.5-57.1,16.6-85.5
		c2.9-13.6,5.8-27.2,9-40.7c3-12.9,4.8-26.3,8.8-38.9c7.5-23.9,23.8-43.7,37.9-63.9c6.7-9.6,14.9-19.7,17.5-31.3
		c3-13.4,5-27.2,7.4-40.8c4.6-26.2,1.6-51.7-4-77.4c-2.8-12.8-7.7-24.7-12-37c-2.1-6.1-3.9-12.4-4.7-18.8
		c-0.7-5.7,0.4-11.2,0.2-16.9c-0.3-8.4-8.6-20-16-23.9c-8.8-4.6-19.3-5.9-29.1-6.7c-22.7-1.9-51.7,0.5-71.6,12.7
		c-22.8,13.9-28,39.9-35.3,63.3c-7.4,23.7-16.7,49.9-32.6,69.4c-3.6,4.4-8.1,7.5-12.1,11.5c-4.1,4.2-6.6,9.5-10.1,14.1
		c-7.7,10.3-18,20.5-27.6,29c-9.2,8.1-19.4,14.9-28.3,23.3c-8.6,8.2-16.5,16.8-26.6,23.1c-23.6,15-48.9,27.8-73.1,41.9
		c-20.3,11.8-42.6,22.1-58.2,40.3c-3.9,4.6-7.7,9.6-10.1,15.2c-2.6,5.9-3,12.5-5,18.7c-1.5,4.9-3.1,11.2-6.1,15.4
		c-3.1,4.3-9.6,7.3-14.2,9.6c-24.3,11.7-50.1,20.3-74.5,31.9c-11.6,5.5-21.1,13.4-31.8,20.4c-10.9,7-17.5,15.5-25,25.9
		c-7.4,10.3-17.1,18.3-25.8,27.4c-9.5,9.9-17.5,21.1-25.9,32c-17.3,22.3-35.8,43.6-53.6,65.5c-17.1,21-32.8,43.2-50.7,63.5
		c-18.6,21-38.6,40.6-57.5,61.2c-18.1,19.7-33.6,41.3-50.7,61.8c-17,20.4-38.7,35.4-58.8,52.4c-21.9,18.6-43.2,38.2-64.4,57.6
		c-40.4,36.9-77.6,78.1-111,121.4c-17.5,22.6-35.3,44.9-52.6,67.6c-17.1,22.4-32.9,45.8-48.8,69c-31.8,46.4-63.6,92.3-92.9,140.3
		c-29.8,48.9-61.3,96.6-94.3,143.4c-33,46.9-67.4,92.9-101.9,138.7c-16.7,22.3-34.2,44-49.2,67.5c-15.1,23.7-28.8,48.2-43.4,72.2
		c-29.7,48.9-67.4,94.6-95,144.8l-40,64.9c-27.1,49.4-54.6,99.2-77.6,150.7c-11.6,25.9-24,51.9-33.5,78.6
		c-9.2,25.7-16.4,52.1-25.1,78c-8.9,26.5-13.2,54-15.5,81.8c-1.1,13.9-0.3,27.8,0.2,41.7c0.5,13,0.2,26,2.7,38.8
		c2.9,14.4,6.2,28.7,9.2,43c2.9,13.5,7.5,23.8,15.1,35.4c15,23.2,28,48,41.9,72c6.6,11.4,12.4,23.3,19.9,34.1
		c6.7,9.6,16,17.6,24.1,26c8.5,8.7,20.4,12.3,31.2,17.5c12.5,6,25,12,37.8,17.2c12.2,5,24.3,10.9,36.8,15.1
		c12.7,4.2,26.6,5.5,39.8,7.3c27.7,3.7,55.9,3.1,83.8,3.1c27.1,0,53.4-8.1,79.5-14.7c13.9-3.5,27.7-7.2,41.5-11.1
		c12.1-3.4,26-5.5,37.2-11.4c12.1-6.4,23.4-14.9,34.9-22.3c11.2-7.2,22.6-14.2,34-21.1c23.8-14.5,45.1-31.3,66.7-48.9
		c44.1-35.9,87.5-72.1,129-111c20.1-18.8,41.4-37,59.9-57.5L-239.4-38.6z"/>
</g>
<sodipodi:namedview  bordercolor="#666666" borderopacity="1.0" fit-margin-bottom="0" fit-margin-left="0" fit-margin-right="0" fit-margin-top="0" id="base" inkscape:current-layer="layer1" inkscape:cx="-194.80966" inkscape:cy="376.49941" inkscape:document-units="mm" inkscape:pageopacity="0.0" inkscape:pageshadow="2" inkscape:window-height="1329" inkscape:window-maximized="1" inkscape:window-width="2426" inkscape:window-x="134" inkscape:window-y="55" inkscape:zoom="0.49497475" pagecolor="#ffffff" showgrid="false">
	</sodipodi:namedview>
<g id="g856" transform="matrix(0,-0.35277777,-0.35277777,0,174.81928,306.7715)">
	<path id="path858" inkscape:connector-curvature="0" class="st1" d="M-622.2,413.2c0.3,8.1,4.3,6,10.3,4.5c4-1,8.3-4.1,12-6.1
		c9.2-4.7,23.4-7.5,21.2-18.1c-1.7-3.1-6.9-0.3-10.7,2.1c-3.5,2.3-6.8,4-10.5,5.8C-607.5,405-617.1,403.1-622.2,413.2"/>
</g>
<g id="g860" transform="matrix(0,-0.35277777,-0.35277777,0,145.57937,293.99502)">
	<path id="path862" inkscape:connector-curvature="0" class="st1" d="M-423.5,227.6c-2.6,4.3-0.6,4.1,1.1,5c2,1.1,4.1-0.4,5.8-1.1
		c3.8-1.7,7.6-4.3,11.1-6.6c9.4-5.9,18.7-12,28-18.1c14.7-9.8,29.8-19.7,43.6-30.7c5-4,9.8-8.5,14.6-12.7c4-3.5,7.5-6.3,7.6-11.3
		c-3-2.8-8.5,2-11.9,3.9c-3.3,1.9-6.2,5.1-9.2,7.5c-6.7,5.2-13.6,10.4-20.4,15.5c-15,11.3-29.8,22.2-46,31.8
		C-408.2,216.2-418,218.2-423.5,227.6"/>
</g>
<g id="g864" transform="matrix(0,-0.35277777,-0.35277777,0,149.02138,285.0769)">
	<path id="path866" inkscape:connector-curvature="0" class="st1" d="M-476.4,165.7c0.5,6.6,1.6,6.7,7.1,6.7c3.5,0,6.4-0.4,9.9-0.9
		c7-1.2,13.4-2,19.9-4.7c6.9-2.9,14.4-5.2,20.9-8.9c6.9-3.9,13.7-9.2,20.1-13.9c6-4.4,12.6-8.1,14.3-15.7c0.7-3.1,0.9-6-0.8-8.4
		c-2.9-4-4.9-2.2-8.6-0.7c-15.1,6-28.9,13.3-43.1,21.2C-450,147.9-470.9,154.7-476.4,165.7"/>
</g>
<g id="g868" transform="matrix(0,-0.35277777,-0.35277777,0,141.6678,277.51472)">
	<path id="path870" inkscape:connector-curvature="0" class="st1" d="M-438.8,84.1c1.9,1.6,4.8,4.9,6.9,4.6c2.3-0.3,6.2-3.7,7.9-5.4
		c4.5-4.3,8.7-11.5,7.8-17.9c-0.5-3.4-0.6-4-4.9-2.9c-2.8,0.7-5.9,2.9-8.5,4.3C-435.5,70-436.5,78-438.8,84.1"/>
</g>
<g id="g872" transform="matrix(0,-0.35277777,-0.35277777,0,129.62877,272.20291)">
	<path id="path874" inkscape:connector-curvature="0" class="st1" d="M-357.1,7.3c2,7.3,4.1,5.4,10.3,5c4.3-0.2,7.9-1.8,11.7-4
		c6.3-3.6,11.4-11.3,12.3-18.6c1.4-11.8-11.8-6.6-17.3-2.5C-347.4-7.3-357.9-2.8-357.1,7.3"/>
</g>
<g id="g876" transform="matrix(0,-0.35277777,-0.35277777,0,126.55177,275.85367)">
	<path id="path878" inkscape:connector-curvature="0" class="st1" d="M-322,27.9c1.7,4.1,3.1,3.1,5.2,2.9c3-0.3,7.5-3.6,10.3-5
		c5.3-2.6,9.3-6.9,13.7-10.8c9-8,16.8-17.1,25.5-25.3c3.4-3.2,8.7-6.7,9.8-10.9c2.6-9.6-5.8-5-9.5-1.6c-8.2,7.4-15.8,15.9-24.4,22.7
		C-302.9,8.9-319.7,15.1-322,27.9"/>
</g>
<g id="g880" transform="matrix(0,-0.35277777,-0.35277777,0,135.57413,267.40492)">
	<path id="path882" inkscape:connector-curvature="0" class="st1" d="M-418.5-14.4c0,6.2-1.3,10.8,5.9,13c5,1.6,10.1,0,14-2.8
		c5.4-3.8,7.6-7.4,11.3-12.9c2.3-3.5,6.7-7.5,7.8-11.3c1-3.4-0.4-11.7-3.6-13.6c-1.5-0.9-8.3-0.4-10.1,0c-2,0.4-3.6,1.6-5.4,2.8
		C-408.1-33.4-413-23.9-418.5-14.4"/>
</g>
<g id="g884" transform="matrix(0,-0.35277777,-0.35277777,0,152.23738,276.10569)">
	<path id="path886" inkscape:connector-curvature="0" class="st1" d="M-527.7,102.8c-1.1,4.8,1.3,4.5,2.5,4.9
		c1.7,0.7,7.4-2.1,9.2-2.6c5.9-1.7,8.6-2.7,13.4-6.6c3.9-3.2,7.2-5.4,9.7-9.7c3.6-6.2,7.2-12.6,10.9-18.7
		c5.6-9.1,14.3-16.6,21.6-24.5c6.6-7.2,13.3-14.4,19.9-21.6c6.9-7.4,17.2-16.1,22.1-25.1c1.9-3.4,3-11.5-3.1-11.3
		c-5.5,0.2-10.6,7.6-13.4,11.6C-446.7,16-461.6,30-474.5,45.8c-8.4,10.3-17,20.4-25.3,30.8c-4.4,5.5-8.2,9.7-13.8,13.7
		C-518.8,94-525.5,96.6-527.7,102.8"/>
</g>
<g id="g888" transform="matrix(0,-0.35277777,-0.35277777,0,175.10831,265.93885)">
	<path id="path890" inkscape:connector-curvature="0" class="st1" d="M-740.3,85.9c2,6.2,5.6,4.6,7.7,4.7c1.9,0.1,7.5-3,9-4
		c3.9-2.6,6.2-8.1,7.6-12.6c3.8-12,7.4-23.5,12.8-35c2.3-4.9,8.4-13,5.5-19c-0.6-1.3-4.6-5.1-6.2-5.5c-2.3-0.6-4,1.8-6.2,3.7
		c-5.4,4.5-8.8,7.3-12.2,13.4c-2.9,5.2-5.7,10.2-9.2,15c-2.5,3.4-6,7-7.9,10.9c-1.3,2.7-0.9,5.3-0.9,8.5V85.9z"/>
</g>
<g id="g892" transform="matrix(0,-0.35277777,-0.35277777,0,182.76747,268.00094)">
	<path id="path894" inkscape:connector-curvature="0" class="st1" d="M-796,124.2c5.2,4.5,8.7-0.4,13.6-4.2c3.8-2.9,6.7-7,9.6-10.9
		c2.7-3.7,14.6-19.8,10.5-24.3c-2.7-3-9.6,2.4-11.8,3.7c-5.2,3.2-6.5,5.5-9.6,10.9C-788.4,107.5-798.7,121.3-796,124.2"/>
</g>
<g id="g896" transform="matrix(0,-0.35277777,-0.35277777,0,186.4499,261.74101)">
	<path id="path898" inkscape:connector-curvature="0" class="st1" d="M-843.3,84.3c-2.1,9.4,4,6.1,5.9,5.3c1.1-0.4,5.2-3.8,6.2-4.7
		c3.3-2.9,7-6.7,9.3-10.4c5.6-9.1,8.2-20.9,8.2-31.3c0-6.2-4-4.6-7.4-1.2c-3.4,3.4-6.4,7.9-8.5,12.3
		C-834.5,64.2-838.6,74.4-843.3,84.3"/>
</g>
<g id="g900" transform="matrix(0,-0.35277777,-0.35277777,0,188.89561,251.01318)">
	<path id="path902" inkscape:connector-curvature="0" class="st1" d="M-893.4,5c2.3,9.5,5.6,7.9,12.3,4.8c4.1-1.9,6.3-7.7,9.2-11.4
		c5.6-7.1,7.5-16.5,11-24.8c7.8-18.4,16.7-36.4,25.7-54.3c3.6-7.1,9.7-15,11-22.6c0.3-1.5,0.8-6.7,0-8.1c-0.4-0.7-5.9-4.3-6.8-4.1
		c-1.7,0.3-4.1,6.1-5.1,7.7C-847-90.1-856.9-73-865.8-54.2C-875.2-34.5-892.5-12.6-893.4,5"/>
</g>
<g id="g904" transform="matrix(0,-0.35277777,-0.35277777,0,175.12383,254.32717)">
	<path id="path906" inkscape:connector-curvature="0" class="st1" d="M-773.3-7.4c-2.2,8.9,5.2,5.7,7.3,4.1c1.3-1,5.3-6.8,6.3-8.2
		c1.6-2.1,2.8-4.2,4.1-6.5c6.8-12.2,13.6-24.4,20.4-36.5c10.7-19.2,21.4-38.4,32-57.6c24.4-44.3,48.7-88.9,75.3-131.8
		c5.4-8.7,12.7-16,16.5-25.6c2.5-6.2,5.2-12.2,6.8-18.7c0.6-2.2,2.7-8.5,2.8-10.7c0.2-3.5-0.7-9-7.1-4.9
		c-10.4,21.3-21.1,42.4-31.9,63.5c-9.4,18.4-21.9,34.7-32.6,52.4c-10.3,17.1-19.5,35.1-28.9,52.7c-10.5,19.7-19.9,40.7-32.4,59.3
		c-8.3,12.4-17.8,24.5-25.2,37.5C-765.3-28.7-768.9-17.6-773.3-7.4"/>
</g>
<g id="g908" transform="matrix(0,-0.35277777,-0.35277777,0,177.16885,236.9396)">
	<path id="path910" inkscape:connector-curvature="0" class="st1" d="M-839.1-141.3c1.2,3.8,6.1,2.1,8.6,0.4
		c2.8-1.8,5.8-7.4,7.7-10.3c3.5-5.2,6.4-10.9,9.5-16.4c6.7-11.7,12.2-22.5,17.3-34.9c5.2-12.6,9.6-25.2,16.8-36.8
		c7.8-12.6,14.6-24.7,20.9-38.2c2.5-5.4,4.8-10.9,7.9-16c3.6-5.7,9.9-11.3,10.6-18c0.5-4.3,0.4-6.3-3.9-7.8
		c-4.1-1.4-3.1-0.7-5.7,3.6c-3.1,5.1-6.1,10.2-9.2,15.2c-14.4,23.2-29.2,46.3-42.2,70.3c-8.3,15.3-15.5,29.5-21.5,45.8
		C-827.2-170.2-842.1-144.7-839.1-141.3"/>
</g>
<g id="g912" transform="matrix(0,-0.35277777,-0.35277777,0,221.47485,268.95986)">
	<path id="path914" inkscape:connector-curvature="0" class="st1" d="M-1104.3,241.6c1.4,4,2.3,8.7,4.3,12.4c0.5,1,0.5,2.4,1.4,3
		c1,0.7,6.7,0.4,7.9,0c9.6-3.1,7.2-12.8,5.9-20.5c-1-5.6-3.2-9.7-6.4-14.5c-3.3-4.8-4-2.8-9.1-0.5c-4.4,2-4,1.7-4,6.5V241.6z"/>
</g>
<g id="g916" transform="matrix(0,-0.35277777,-0.35277777,0,220.14949,263.21534)">
	<path id="path918" inkscape:connector-curvature="0" class="st1" d="M-1109.9,191.7c3.7,2.4,3.8,3.8,7,1.7c2.8-1.9,3.8-4.7,4.8-7.6
		c2.4-7.3,4.3-14.3,5.7-21.9c2.3-12.6,8.6-23.7,13.5-35.5c5.4-13.2,10.9-26.3,16.4-39.4c5.4-12.9,11.6-24.3,18.4-36.4
		c4.1-7.4,8.7-14.8,12.1-22.6c1.4-3.1,2.9-7.2,3.4-10.5c0.4-2.9,0.7-3.1,1.1-5.3c0.9-4.4-2.1-5-6.7-2.4c-9.4,10.5-12.5,22.3-19,33.3
		c-7,11.9-12.2,22.9-17.4,35.7c-9.6,23.9-20,47.3-27.7,71.9C-1102.4,165.5-1106.1,178.6-1109.9,191.7"/>
</g>
<g id="g920" transform="matrix(0,-0.35277777,-0.35277777,0,204.95042,249.24565)">
	<path id="path922" inkscape:connector-curvature="0" class="st1" d="M-1027.4,36.4c-0.8,5.8-1.9,9.7,4.1,10.6c7.2-1.3,7.8-9,9.7-15
		c1.7-5.3,3.3-10.5,5.1-15.8c5.4-15.5,10.9-30.8,16.4-46.3c8.1-22.9,14.8-47.2,27.9-67.8c6.2-9.7,14.8-22.2,14.8-33.8
		c0-1,0.7-6,0-6.8c-1-1.3,0.3-0.1-1.7-0.9c-1.9-0.8-6.2-0.3-7.5,0.8c-1.7,1.5-2.8,7.1-3.6,9.1c-1.9,4.7-3.7,9.4-5.6,14.2
		c-9.1,22.9-19.8,45.1-28.7,68.1c-5.8,14.8-11.6,28.8-18.8,42.9C-1021.8,8.5-1024,22.4-1027.4,36.4"/>
</g>
<g id="g924" transform="matrix(0,-0.35277777,-0.35277777,0,186.5388,216.69414)">
	<path id="path926" inkscape:connector-curvature="0" class="st1" d="M-971.7-277.4c-1.3,5.6,0.2,10.1,6.5,5.9
		c21.2-30.6,38.5-63.5,56.5-96.1c7.8-14.3,14.5-29.1,21.4-43.8c7.5-15.8,17-30.3,26-45.3c4.4-7.2,10.6-13,15.2-20.1
		c5.3-8.2,13.8-19,8.7-25.6c-2.8-2.5-6.6,2.4-8.8,4.4c-2.9,2.7-5.1,7.4-7.3,10.7c-5.1,7.4-10.8,14.6-15.3,22.3
		c-8.7,14.8-14.9,31.1-23.1,46.1c-9.4,17.3-20,34.1-30,51c-7.3,12.4-12.6,25.8-19.3,38.6C-950.5-311.4-960.9-294.3-971.7-277.4"/>
</g>
<g id="g928" transform="matrix(0,-0.35277777,-0.35277777,0,179.54252,196.29438)">
	<path id="path930" inkscape:connector-curvature="0" class="st1" d="M-973.3-461.1c3.5,1.8,5.6,3.2,9.3,3c2.5-0.2,9.7-1.5,11.5-3.2
		c4-3.8,6.2-16.7,4.6-21.8c-1-3.1-3.6-6.5-6-6.2c-2.9,0.4-7.2,4.2-9.3,6.2c-2.9,2.9-7.4,7.7-9.1,11.4
		C-973.9-468.6-973.3-464.8-973.3-461.1"/>
</g>
<g id="g932" transform="matrix(0,-0.35277777,-0.35277777,0,177.11234,206.60466)">
	<path id="path934" inkscape:connector-curvature="0" class="st1" d="M-924.6-385.2c1.3,6.4,6.8,8.5,9.9,9.3
		c2.1,0.6,9.2-2.1,10.4-3.6c2.2-2.7,2.8-11.1,3.4-14.6c0.6-4,1.7-9.4,1.2-13.5c-0.4-3.1-2.4-8.5-4.8-9.7c-6.2-3.1-9.8,1.7-12.3,6.2
		C-921.4-402.4-925.3-394.9-924.6-385.2"/>
</g>
<g id="g936" transform="matrix(0,-0.35277777,-0.35277777,0,173.20903,201.44959)">
	<path id="path938" inkscape:connector-curvature="0" class="st1" d="M-907.8-437.7c1.1,3,2.6,11.4,5,13c1.1,0.7,7.2,0.4,8.5,0
		c2.9-0.8,2.4-1.1,4.1-4.4c6.6-13,15.8-24.1,22-37.4c2.9-6.4,2.9-8.7,2.3-15.8c-0.2-2.4,0.1-3.6-1.4-4.7c-1.7-1.3-6.3-1.8-8.5-2.1
		c-7-1.2-10.3-0.8-14.8,4.5c-3.3,3.9-7,7.8-9.5,12.2C-906.4-460.9-906.8-450.6-907.8-437.7"/>
</g>
<g id="g940" transform="matrix(0,-0.35277777,-0.35277777,0,165.5499,179.35586)">
	<path id="path942" inkscape:connector-curvature="0" class="st1" d="M-908.9-636.9c-1.6,11,5.9,12.6,11.5,12.8
		c9.3,0.5,11.8-7,15.7-13.8c3.6-6.1,7.5-12.1,11.7-17.8c2.8-3.9,6.8-7.4,9.1-11.6c2.4-4.5,4.3-10.4,4.8-15.4c0.3-3,1.1-8.1,0-11
		c-1.1-2.7-4.7-4.3-7.4-5.6c-6.5-3-13.3-2-18.3,3.1c-6.9,7.1-7.6,16.2-11.7,24.8c-2.6,5.4-6.9,9.9-9.6,15.2
		C-906.1-650.2-907.4-643.4-908.9-636.9"/>
</g>
<g id="g944" transform="matrix(0,-0.35277777,-0.35277777,0,159.80555,179.35586)">
	<path id="path946" inkscape:connector-curvature="0" class="st1" d="M-862.8-653.2c-5.2,8.9-2.1,11.1,3.6,10.1
		c10.3-3.6,16-13.4,21.5-22.3c5.6-9,10.4-18.6,15.6-27.9c4-7.1,7.4-16,12.8-22.1c3.7-4.2,9.1-6.8,12.9-10.8c2.6-2.7,4.6-6.2,6.8-9.3
		c2.4-3.3,5.6-6.8,7.4-10.4c1.8-3.9,4.7-11.7,4.6-15.9c0-2.8,1.1-1.2-1.2-3c-2.2-1.8-2.3-1.2-4-0.3c-4.6,2.5-8.9,10.1-12.7,13.9
		c-14,14-24.4,30.9-34.8,47.6C-841.1-686.4-854-671.7-862.8-653.2"/>
</g>
<g id="g948" transform="matrix(0,-0.35277777,-0.35277777,0,151.7044,150.85495)">
	<path id="path950" inkscape:connector-curvature="0" class="st1" d="M-878.5-905.2c1.4,3.6,2.8,7.1,4.1,10.7
		c6.6-3.4,18.8-6.5,16.6-16.6c-1.2-5.4-7.4-7.9-12.3-7.1C-876.4-917.1-878.4-911.1-878.5-905.2"/>
</g>
<g id="g952" transform="matrix(0,-0.35277777,-0.35277777,0,132.85114,215.29492)">
	<path id="path954" inkscape:connector-curvature="0" class="st1" d="M-544.3-440.8c-3.1,8.7-0.9,15.3,2.7,18.1
		c2.1,1.7,10.2,3.3,13,3.4c2.6,0.1,4.1-0.8,6.7-1.9c6.5-2.9,13.2-4.6,17.8-10.1c4.6-5.5,9-10.1,11.8-16.6c3-6.9,5.8-12.8,7.1-20.1
		c1.4-7.7,0-14-1.1-21.7c-0.7-5-1.7-8-6.7-9.9c-3.1-1.2-7.7-3-10.8-2.3c-7.4,1.6-14.5,8.7-18.8,14.5c-4.8,6.5-10,14.5-12.4,22.3
		C-537.6-455.9-540.6-454.7-544.3-440.8"/>
</g>
<g id="g956" transform="matrix(0,-0.35277777,-0.35277777,0,124.30831,200.71306)">
	<path id="path958" inkscape:connector-curvature="0" class="st1" d="M-517-582.2c1.3,4.1,1.9,10,5.9,12.5c3.4,2.1,5.7,0.1,9.2-1.4
		c3.7-1.6,3-0.9,3.9-3.9c1.2-3.6,1.8-12.3-2-14.7C-507.1-594.2-512.9-587-517-582.2"/>
</g>
<g id="g960" transform="matrix(0,-0.35277777,-0.35277777,0,141.54136,194.45313)">
	<path id="path962" inkscape:connector-curvature="0" class="st1" d="M-673.2-583.7c-3.9,5.6-1.9,9,3,7.7c4.3-2.3,8.5-4.5,11.1-8.7
		c2.8-4.5,5.1-9.5,7.8-14.1c3.9-6.9,7.7-13.9,12.2-20.4c10-14.6,20.5-28.8,30.1-43.7c22.5-34.6,45-69.1,67.9-103.5
		c19.1-28.6,35.4-59.1,54.1-88c20.1-31,41.8-60.8,62.5-91.4c10.5-15.5,20.4-31.7,31.5-46.8c11.5-15.6,24.5-30.2,35.5-46.1
		c1.6-2.4,6.9-9.2,6.2-11.7c-2.2-7.4-11.4,2.4-13.4,4.4c-6.5,6.6-11.7,14.9-17.3,22.3c-11.2,14.8-21.4,30.1-31.8,45.5
		c-20.4,30.2-43.3,58.3-64.6,87.8c-21.8,30.1-40.3,62.3-58.5,94.6c-8.1,14.4-15.8,28.8-25.1,42.5c-13.5,19.7-26.9,39.4-40.4,59.1
		c-19.9,29.2-38.7,59.1-57.1,89.3C-664-597.5-668.7-590.6-673.2-583.7"/>
</g>
<g id="g964" transform="matrix(0,-0.35277777,-0.35277777,0,123.57175,143.49036)">
	<path id="path966" inkscape:connector-curvature="0" class="st1" d="M-673.3-1044.1c0.3,3.2-0.2,7.7,1,10.7
		c0.3,0.8-0.1,1.9,0.5,2.3c1,0.7,6.7-0.3,7.6-0.6c5.3-1.8,10.9-9.7,14.1-14.2c8.8-12.6,15.2-27.9,22.5-41.4
		c13.2-24.3,29.4-47.2,44.3-70.5c6.1-9.6,11.7-19.8,18.4-28.9c8.9-12,19.7-23,29.5-34.3c16.3-19,30.9-39.4,46.9-58.7
		c10.1-12.1,20.7-23.8,31.1-35.7c9.2-10.5,19.8-18.6,29.4-28.5c2.5-2.5,12.2-12,5.8-15.5c-2.5-1.4-12.4,2.7-15,4.6
		c-6.5,4.8-12.2,12.2-17.9,17.9c-3.6,3.6-7.4,7.1-10.8,10.9c-19.7,22.4-37,47-56,70c-15.1,18.2-31.6,34.8-44.6,54.6
		c-15.7,24.1-30.9,47.9-48.6,70.5c-17.1,22-33.9,43.4-47.6,67.7C-666.2-1056.7-669.7-1050.4-673.3-1044.1"/>
</g>
<g id="g968" transform="matrix(0,-0.35277777,-0.35277777,0,124.30831,117.56705)">
	<path id="path970" inkscape:connector-curvature="0" class="st1" d="M-752.7-1250.3c1.4,1.1,5.8,5.7,7.5,5.8c1.7,0,5-3.6,6.4-4.7
		c4.2-3.3,8-6.4,11.8-10.1c8.4-8.2,16.8-16.2,24.8-24.8c17-18.4,35.1-36.4,50.4-56.3c5.5-7.2,12-14.2,16.8-21.8
		c3-4.8,3.9-11,5.4-16.5c-6.8-0.7-6.9,0.4-11.7,5.2c-5.9,5.9-11.9,11.9-17.8,17.8c-7.7,7.7-14,16.7-20.7,25.4
		c-13.8,17.9-29.3,33.7-45,49.9C-734.3-1270.6-744.3-1261.2-752.7-1250.3"/>
</g>
<g id="g972" transform="matrix(0,-0.35277777,-0.35277777,0,97.501188,127.21471)">
	<path id="path974" inkscape:connector-curvature="0" class="st1" d="M-509.9-1248.8c0.6,1.5,1.7,7,3,7.7c1,0.5,6.3-1.9,7.4-2.2
		c5.1-1.5,5.2-2.9,7.6-7.7c4.6-9.3,8.9-18.3,14.8-26.8c6.2-9,12.5-17.9,19.1-26.7c2.8-3.7,4.8-6.8,6.7-11.1c3-6.6,2.8-6.9,0-13.7
		c-10.5,13.8-20.5,27.9-29.5,42.8C-489.1-1272.7-500.2-1261.5-509.9-1248.8"/>
</g>
<g id="g976" transform="matrix(0,-0.35277777,-0.35277777,0,93.745339,96.062419)">
	<path id="path978" inkscape:connector-curvature="0" class="st1" d="M-568.1-1509.7c5.4,15.5,23.2-2.5,27.6-10.2
		c2.8-4.9,5.6-9.7,8.4-14.6c2.3-4,5.8-10.8,4.1-15.6c-1.1-3.3-8-3.8-11.5-3.6c-8.6,0.5-11.3,1.6-15,9c-2.5,5-4.1,9-5,14.4
		C-560.9-1521.7-569.6-1516.4-568.1-1509.7"/>
</g>
<g id="g980" transform="matrix(0,-0.35277777,-0.35277777,0,86.30702,109.76046)">
	<path id="path982" inkscape:connector-curvature="0" class="st1" d="M-469.5-1420.8c1,2.2,2,4.3,3,6.5c9.2-4.9,14.1-10,19.5-18.9
		c3.8-6.3,8.7-11.9,13.3-17.7c4.7-5.8,10-11.1,12.6-18c1.2-3.2,3.2-6.8,3.7-10.1c0.5-3.6-0.4-8-0.6-11.6c-4.2,0.5-6.7,0.4-9.2,3.8
		c-2.3,3.2-4,7.6-5.7,11.2c-2.3,4.8-3.4,10.1-6.1,14.6c-2.3,3.9-5.5,7.3-8.2,10.8C-454.9-1440.5-462.1-1430.6-469.5-1420.8"/>
</g>
<g id="g984" transform="matrix(0,-0.35277777,-0.35277777,0,79.310731,81.701542)">
	<path id="path986" inkscape:connector-curvature="0" class="st1" d="M-492.8-1666c-0.4,4.1-2,10-0.6,13.7c0.7,1.9,4.3,6.2,5.9,7.3
		c2.3,1.6,1.9,1.4,5.4,0.4c11.7-3.4,19.1-13.4,27.3-22.1c4.1-4.4,8.2-9,12.1-13.6c2.3-2.7,7.7-8.2,7.8-11.5c0.1-1.8-5.8-11-7.3-11.3
		c-3.7-0.9-15.4,7.1-18.7,8.7C-474.8-1687.7-485.5-1679.7-492.8-1666"/>
</g>
<g id="g988" transform="matrix(0,-0.35277777,-0.35277777,0,83.582129,83.763775)">
	<path id="path990" inkscape:connector-curvature="0" class="st1" d="M-521.3-1637.4c1.1,4.5,1.6,12.6,7.6,13.7
		c4.2,0.8,9.9-3.9,11.9-7.2c1.3-2.1,5.4-8.4,5.2-10.8c-0.1-1.1-3.3-6-4.2-6.3c-1.6-0.6-6.9,1.8-8.6,2.3
		C-515.6-1643.7-517.7-1642.7-521.3-1637.4"/>
</g>
<g id="g992" transform="matrix(0,-0.35277777,-0.35277777,0,92.787936,82.143537)">
	<path id="path994" inkscape:connector-curvature="0" class="st1" d="M-599.8-1624.3c1.6,8.4,7.4,3.8,12.7,1.3
		c4.1-1.9,7.5-3.7,11-6.4c8.2-6.2,16.2-12.4,23.9-19.2c16.6-14.8,32.1-30,47-46.6c6.2-6.9,20.6-19.8,17.2-25.5
		c-1.9-4.2-19,12-27.2,21.2c-8.3,9.3-14.9,19.6-24.3,27.9c-8.7,7.6-17.6,14.8-26.6,22.1C-577-1640.7-600.6-1628.9-599.8-1624.3"/>
</g>
<g id="g996" transform="matrix(0,-0.35277777,-0.35277777,0,59.941891,140.02908)">
	<path id="path998" inkscape:connector-curvature="0" class="st1" d="M-171.8-1252.3c-4.7,7.2-8.9,13.7-12.1,21.7
		c-1,2.5-4.9,8.7-4.2,11.2c0.2,0.7,3.8,4.9,4.5,5c1,0.1,4.5-3.6,5.2-4.1c8.4-6.8,11.4-16.5,15.9-26.3c2.6-5.6,5.2-11.2,7.4-17
		c13.4-34.9,25.3-70.3,38.7-105.2c6-15.7,14.9-30.5,20.2-46.4c2.6-7.9,4-17.2,5.2-25.4c1.1-7.2,2.2-14.9-1.4-21.2
		c-0.6-1.1-1.6-3.9-2.7-4c-1.5-0.2-6,2.8-6.8,4c-2.9,4.4-1.2,13.3-2.2,18.4c-2.2,10.7-5.7,21.2-8.5,31.8
		c-4.1,15.5-10.9,30-16.4,45.1C-142.8-1327-157.8-1289.9-171.8-1252.3"/>
</g>
<g id="g1000" transform="matrix(0,-0.35277777,-0.35277777,0,45.728298,114.25288)">
	<path id="path1002" inkscape:connector-curvature="0" class="st1" d="M-130.7-1499.7c-1.6,4.7-5.6,27.4,2.4,27.8
		c6.1,0.3,11.1-6.9,12.4-11.7c1.8-6.5,3.7-13.1,5.1-19.7c0.9-4.4,1.4-8.9,1.8-13.3c0.6-7,2.3-16.8-8-13.2
		C-126.1-1526.7-128.2-1507.9-130.7-1499.7"/>
</g>
<g id="g1004" transform="matrix(0,-0.35277777,-0.35277777,0,40.352212,83.02721)">
	<path id="path1006" inkscape:connector-curvature="0" class="st1" d="M-176-1765.8c3.1,1.7,1,10.1-0.8,15.2
		c-1.6,4.7-3.2,9.3-5.5,13.7c-5.6,10.8-11.2,21.6-15.5,33c-4.2,10.9-6.6,23.6-9,35c-1.6,7.7-1.4,15.7-3.1,23.4
		c-1.4,6.7-7.8,12.5-14.2,10.4c-3.5-0.7-2.6-8.3-2.3-12c0.3-5,3.6-10.6,5-15.4c2.7-9.2,4.4-18.7,6.6-28.1c1.8-8,7.6-12.7,10.5-20
		c2.1-5.3,2.4-11.4,4.1-16.8c1.2-3.9,3.3-7.3,5.2-10.9c2.2-4.2,4.4-8.4,6.3-12.7C-185.4-1758.5-180.7-1768.2-176-1765.8"/>
</g>
<g id="g1008" transform="matrix(0,-0.35277777,-0.35277777,0,47.27477,96.20988)">
	<path id="path1010" inkscape:connector-curvature="0" class="st1" d="M-194.3-1640.3c1.7-7.4,6.7-24.4-5.5-25.3
		c-12.2-0.9-20.3,14.4-23.9,23.9c-3.4,9-6.4,18-8.9,27.3c-1.2,4.3-3.7,12.1-1.8,16.2c2.4,5.2,8.3,6.3,13.2,6.1
		c7.4-0.3,14.2-6.3,16.4-13.4C-201-1617.3-199-1628.7-194.3-1640.3"/>
</g>
<g id="g1012" transform="matrix(0,-0.35277777,-0.35277777,0,30.189002,102.4696)">
	<path id="path1014" inkscape:connector-curvature="0" class="st1" d="M-39.2-1638.4c0.4-2,0.6-4-0.6-4.7c-4.1-1.3-5.9,2.8-7.9,6.4
		c-2.9,5.2-5.6,11-7.7,16.6c-3.2,8.4-10.7,22.8-6.3,26.7c3.2,2.8,8.1,0.4,10.5-1.3c3.5-2.5,5-9.4,5.4-13.3
		C-44.7-1618.6-42.7-1628.4-39.2-1638.4"/>
</g>
<g id="g1016" transform="matrix(0,-0.35277777,-0.35277777,0,30.041717,95.547046)">
	<path id="path1018" inkscape:connector-curvature="0" class="st1" d="M-57.7-1694.4c-3.1,5.2-7.2,13.8-4.1,16
		c2.5,2.2,6.5-0.5,9.2-1.5c2.6-1,3.7-3.2,5.7-5.5c4.4-5,8-9.4,10.6-15.6c1.6-3.9,4.1-5.9,0.7-8.5c-3.8-2.9-8.2-1.2-11.4,1.4
		C-51.5-1704.6-54.4-1699-57.7-1694.4"/>
</g>
<g id="g1020" transform="matrix(0,-0.35277777,-0.35277777,0,28.053391,86.93052)">
	<path id="path1022" inkscape:connector-curvature="0" class="st1" d="M-66.1-1769.3c-0.3,0.9-5.7,11.5-3.5,14.2
		c3.9,3.5,6.7,1.8,10-0.7c3-2.3,5.5-5.9,8-8.8c3.3-3.8,6.5-7.6,9-12c2.3-4.1,7.3-10.5,8.1-15.1c1.9-12-13.2-3.1-17.5,1.2
		c-2.8,2.8-6.3,5.5-8.4,8.8C-62.9-1778-64.3-1773.3-66.1-1769.3"/>
</g>
<g id="g1024" transform="matrix(0,-0.35277777,-0.35277777,0,63.99245,187.01502)">
	<path id="path1026" inkscape:connector-curvature="0" class="st1" d="M-71.2-863.2c4.7-8.5,9.6-16.9,14.2-25.4
		c4.6-8.5,14.6-17.3,10.1-25.4c-4.4-4.2-7.1,5.1-9.9,8.3c-4,4.6-7,10.5-10.4,15.5c-4.6,6.9-7.9,14.4-12,21.6
		c-5.6,9.8-13.5,19.1-18.1,29.4c-1.2,2.7-3.5,8.6-2.7,11.2c2.8,8.4,10.6-1.2,12.8-4.4C-80.8-841.8-76.4-853.2-71.2-863.2"/>
</g>
<g id="g1028" transform="matrix(0,-0.35277777,-0.35277777,0,90.799433,197.6936)">
	<path id="path1030" inkscape:connector-curvature="0" class="st1" d="M-256.3-701.5c-23.8,27.7-47.5,56.9-65.5,88.9
		c-5.1,9.1-8.4,17.9-15.2,25.9c-3,3.5-6,6.8-9.2,10.1c-3.3,3.4-11.8,10.5-12.4,15.5c-0.2,1.4,0.9,3.6,3.3,4c1.9,0.3,2.9-1.1,4.7-2.6
		c2.9-2.4,5.7-4.6,8.2-7.4c6.7-7.4,13.8-14.8,19.9-22.7c12.7-16.4,23.3-34.7,35.3-51.6c11-15.3,23.1-30,34.6-44.9
		c11.4-14.8,21.3-28.6,30.8-44.7c9-15.3,14.4-31.7,21-48.2c1.2-3.1,6.8-12.5,5.9-15.5c-0.3-0.9-3.9-2.7-5.1-2.7
		c-2.3,0-2.2,0.5-4.2,2.7c-6.7,7.6-9.5,15.2-13.6,24.5c-5.2,11.7-9.9,23.5-14.6,35.4c-3.3,8.4-7.2,16.9-13.3,23.8
		C-248.8-707.4-252.9-704.5-256.3-701.5"/>
</g>
<g id="g1032" transform="matrix(0,-0.35277777,-0.35277777,0,74.744764,209.25604)">
	<path id="path1034" inkscape:connector-curvature="0" class="st1" d="M-94.5-654.1c2.5-6,4.9-12,7.7-17.8c1.4-3,4.1-6.6,4.7-9.9
		c0.5-3,3.4-8.4-1.1-10.2c-4.6-0.4-7.1,4.2-8.9,8.8c-2.8,7.1-7.4,11.7-12.2,17.6c-7.9,9.8-10.7,22-17.1,32.7
		c-4.6,7.6-10.5,13.6-13.2,22.1c-1.1,3.3-2.6,5-0.3,7.5c0.9,0.9,5.1,2.7,6.3,2.4c4.6-1.1,6.8-8.9,8.1-12.7
		c1.8-5.2,4.1-10.5,6.8-15.4C-108.4-639-102.4-645.8-94.5-654.1"/>
</g>
<g id="g1036" transform="matrix(0,-0.35277777,-0.35277777,0,4.7170007,45.484635)">
	<path id="path1038" inkscape:connector-curvature="0" class="st1" d="M3.9-2168.5c1.2-4.9,3.3-10.1,3.8-15.2
		c0.4-4.6-0.7-10.3-1.4-14.8c-0.4-3-1.3-10.6-3.5-12.3c-0.7-0.5-5.5-0.2-6.1,0.3c-1.5,1.2-2.2,7.7-2.7,9.7
		c-2.7,10.6-3.6,21.9-5.3,32.7c-1.3,8.2-7.8,18.5-3.5,25.6c5.8,9.5,10.1-0.9,12.8-7.9C0.2-2156.3,1.9-2162.5,3.9-2168.5"/>
</g>
<g id="g1040" transform="matrix(0,-0.35277777,-0.35277777,0,1.1000055,26.23962)">
	<path id="path1042" inkscape:connector-curvature="0" class="st1" d="M-21.6-2333.4c3.2-8,6-16.1,9.5-23.9
		c2.9-6.5,7.6-12.2,11.6-18.1c3.9-5.8,8.2-11.5,11.8-17.6c4.2-7.3,8.4-18.4,6.1-20.4c-1.9-1.7-7.5,0-9.5,1.4
		c-2.8,1.9-5.5,7.9-7.4,10.7c-4,5.9-6.4,12.1-9.2,18.6c-2.9,6.8-5.2,11.6-9.6,17.4c-4.3,5.6-8.8,10.8-12.1,17
		c-8.4,15.3-19,31.3-25,47.7c-1.4,3.9-2.3,8.1-3.5,12.1c-0.8,2.8-3.3,7.6-3,10.5c0.1,1.1,3.5,8.3,4.5,8.6c4.3,1.4,7.2-8.6,7.9-11
		c2.7-8.9,5.3-19.5,10-27.5c2.8-4.6,6.5-8.7,9.2-13.4C-28-2325.5-24.8-2329.5-21.6-2333.4"/>
</g>
<g id="g1044" transform="matrix(0,-0.35277777,-0.35277777,0,11.882623,32.859389)">
	<path id="path1046" inkscape:connector-curvature="0" class="st1" d="M-89.4-2249.6c-0.2,4.3,3.1,6.5,4.9,7.4
		c1.6,0.8,2.2-0.1,4.2-1.3c6-3.6,7.2-3.8,8.9-10.3c1.3-4.9,2-10.2,4.3-14.7c2.4-4.7,5.8-9,8.6-13.5c2.5-4,9.9-11,3.7-15
		c-7.4-4.8-12,5.4-14.7,10.4c-3.3,6.2-3.5,13.4-7.3,19.2C-81-2261.4-89.5-2254.2-89.4-2249.6"/>
</g>
<g id="g1048" transform="matrix(0,-0.35277777,-0.35277777,0,19.18484,33.336874)">
	<path id="path1050" inkscape:connector-curvature="0" class="st1" d="M-146.8-2225.1c6.9-8.8,16-23.1,11.5-26.3
		c-4.8-5.1-23,9.1-26.9,20.6c-2.1,6.3-2.3,15.1,7.4,12.8C-151.4-2218.8-149.2-2222.4-146.8-2225.1"/>
</g>
<g id="g1052" transform="matrix(0,-0.35277777,-0.35277777,0,9.9718019,21.940141)">
	<path id="path1054" inkscape:connector-curvature="0" class="st1" d="M-105-2342.8c11.2-15.3,22.3-30.4,32.2-46.6
		c4.7-7.7,9.9-15.2,14.1-23.1c2-3.8,4-8.2,5.3-12.3c1.3-4,4.1-7.2-0.6-11.3c-5.4-2.2-15,20.7-22.5,31.8c-7.3,10.8-15.3,21.3-23,31.8
		c-9,12.2-18.3,23.8-28.4,35.1c-3.9,4.5-8,8.8-12,13.2c-1.8,1.9-3.9,4-5.3,6.2c-1.4,2.3-2.8,6.2,1.1,8.2
		c7.4,3.8,18.4-12.2,22.2-16.5C-116.7-2332.1-110.8-2337.4-105-2342.8"/>
</g>
<g id="g1056" transform="matrix(0,-0.35277777,-0.35277777,0,23.484319,23.031917)">
	<path id="path1058" inkscape:connector-curvature="0" class="st1" d="M-210.5-2295.7c-4,2.8-16.5,9.2-16.6,13.7
		c-0.2,10.9,13.4,6.5,18,2.3c10.2-9.4,23.6-15.6,32.6-26.4c3.9-4.7,7.5-9.5,11.6-14c3.5-3.8,11.8-9.8,13.3-15.1
		c2.6-8.8-8.6-1.5-11.5,0.1c-5.1,2.7-10.3,4.8-14.6,8.6C-189-2316.6-199.6-2306-210.5-2295.7"/>
</g>
<g id="g1060" transform="matrix(0,-0.35277777,-0.35277777,0,29.967493,25.011107)">
	<path id="path1062" inkscape:connector-curvature="0" class="st1" d="M-257-2261.4c8.9-7.9,17.8-15.7,26.4-24
		c9.4-9.2,28.4-22.1,27.4-29.2c-0.1-3.1-5.7-3.6-9.4-0.1c-4.4,4.2-8.8,8.5-13.4,12.5c-6.9,6-14.7,11.3-22,16.9
		c-14.7,11.5-44,35.3-42.4,38.6c0.6,4.3,6.5,1.2,9,0.5c2.7-0.7,5.7-3.8,7.9-5.3C-268.2-2255.1-262.6-2258.2-257-2261.4"/>
</g>
<g id="g1064" transform="matrix(0,-0.35277777,-0.35277777,0,16.455117,13.750828)">
	<path id="path1066" inkscape:connector-curvature="0" class="st1" d="M-180.4-2390.2c6.1-5.5,12.7-10.8,18.3-16.8
		c3.2-3.4,6-7.1,9.1-10.6c3.9-4.4,7.2-6.2,4.4-10.4c-2.1-2.1-8.1,2.4-12.1,5.9c-5.2,4.5-9.7,9.8-14.5,14.7
		c-7.3,7.4-15.7,16.5-25.1,20.9c-6.9,3.2-11.8,5.4-17.3,10.6c-5.1,5,1.3,7.1,6.4,5.4C-199.3-2374.7-190.9-2383.8-180.4-2390.2"/>
</g>
<g id="g1068" transform="matrix(0,-0.35277777,-0.35277777,0,9.0847069,9.2467028)">
	<path id="path1070" inkscape:connector-curvature="0" class="st1" d="M-133.9-2447.3c5.8-8.6,11.4-17.2,18.1-25.2
		c3.2-3.8,6.2-7.9,9.6-11.5c3.6-3.8,7.4-9.4,12.8-5c2.9,7.3-1.4,12.2-6.4,18.1c-4.5,5.3-8.5,10.8-12.5,16.6
		c-4,5.7-7.1,9.9-12.3,14.4c-7.6,6.6-14.4,13.8-22.1,10.7C-149.5-2435.5-140.3-2441.3-133.9-2447.3"/>
</g>
<g id="g1072" transform="matrix(0,-0.35277777,-0.35277777,0,14.885361,6.9260953)">
	<path id="path1074" inkscape:connector-curvature="0" class="st1" d="M-187.1-2449.5c2.3,4.1,8,1.5,10,0.4c2.9-1.6,6.1-8.2,8-10.8
		c1.9-2.5,3.7-5,5.5-7.6c3.4-5.1,5.9-6.8,0.7-10C-165.1-2480.7-188.9-2451.5-187.1-2449.5"/>
</g>
<g id="g1076" transform="matrix(0,-0.35277777,-0.35277777,0,9.63056,-3.3103161)">
	<path id="path1078" inkscape:connector-curvature="0" class="st1" d="M-173.9-2546.6c1-1.9,2.6-2.9,4.1-3c2.2-0.1,3.2,0.1,3.2,0.1
		c4,2.2,3.1,6.5,3.1,10.2c0,3.7-0.8,6.6-3.2,9.8c-2.4,3-5.1,6.3-8.8,4.3C-178.8-2526.6-175.1-2539.3-173.9-2546.6"/>
</g>
<g id="g1080" transform="matrix(0,-0.35277777,-0.35277777,0,-4.1000447,9.5543603)">
	<path id="path1082" inkscape:connector-curvature="0" class="st1" d="M-27.1-2482.2c1,4.6,0,8.8,5.4,7.6c5.3-1.2,6.3-6.9,8.4-11.5
		c3-6.5,6.1-14.3,7.3-21.3c2.5-15.2,0.2-31.7,1.1-47.2c0.6-9.7,1.4-19.7,0.7-29.4c-0.2-2.4-0.6-7.8-2.7-9.3c-0.5-0.3-3.9-0.7-5,0.6
		c-0.8,1-1.5,3.1-1.6,3.8c-1.2,17.5-7,34.3-7.4,51.8c-0.2,10.2,2.1,19.4,0.7,29.5C-21.2-2498.7-24.4-2490.6-27.1-2482.2"/>
</g>
<g id="g1084" transform="matrix(0,-0.35277777,-0.35277777,0,1.2421043,-8.4255938)">
	<path id="path1086" inkscape:connector-curvature="0" class="st1" d="M-121-2611.5c5-1.3,20.3-5.5,21.7,2.1
		c1.4,7.7-15.5,6.9-19.8,8.1c-3.9,1-7.6,3.3-11.6,3.9c-5.7,0.9-9.2,2.1-10.9-4.1C-139.9-2608.3-128.6-2609.5-121-2611.5
		 M-144.7-2640c3.6-1.1,12.1-0.5,12.3,4.1c0.2,3.7-7.1,8.7-10.2,10.3c-2,1.1-3.5,2.2-6.2,1.3c-2.5-0.9-3.7-1.9-3.7-5
		C-153.3-2634-150.2-2638.3-144.7-2640 M-97.3-2658.1c-22.7-1.9-51.6,0.5-71.6,12.7c-20.6,12.6-26.9,35.1-33.3,56.7
		c7.6-7.5,17-19.3,28.7-19.5c5.4-0.1,10.3,1.9,11.8,7c1.8,6.5,3.1,11.2,3,17.8c-0.3,10.5-2.6,21.1-6.7,30.8
		c-3.9,9.1-12.3,16.4-18,24.7c-2.7,4-4.3,8.5-6.4,12.9c-1.6,3.4-6.3,8.2-6.8,11.5c-1.1,8.9,5.8,3.9,8.7,1c3.7-3.7,6.4-7.4,9.4-11.7
		c12.2-17.6,21.5-38,35.7-54.1c3.1-3.5,7.6-5.6,11.6-8.1c3.7-2.4,9.3-6.5,13.9-6.5c2.3,0,3.5-0.1,3.5,3.5c0,1.9-1.7,5-2.4,6.8
		c-2.4,5.9-6.9,10.2-1.8,11.5c1.8,0.4,3.3-0.5,3.7-0.9c4.6-4.8,6.9-16.3,13.3-19.3c5.1-2.4,4.2,1.6,3.5,5.6
		c-0.6,3.7-1.1,6.9-2.4,10.4c-5.5,15-13.1,29.4-16.2,45.1c-0.4,2.2-1.8,7.2-0.1,8.3c3.7,2.6,7.5-3.4,9-5.6c4.3-6.2,6.9-13.1,9.7-20
		c5.3-12.9,7.3-26.8,13.4-39.3c3.2-6.6,7.5-15.7,12.8-20.7c5.2-4.9,12.8-6.2,19.5-7.4c-0.4-1.8-0.7-3.6-0.9-5.5
		c-0.7-5.8,0.4-11.2,0.2-16.9c-0.3-8.4-8.6-20-16-23.9C-77-2656-87.6-2657.3-97.3-2658.1"/>
</g>
<g id="g1088" transform="matrix(0,-0.35277777,-0.35277777,0,78.36384,71.070301)">
	<path id="path1090" inkscape:connector-curvature="0" class="st1" d="M-515.3-1754.1c14.7-17.6,28.1-35.9,43.8-52.7
		c17.3-18.6,35.2-36.5,53.2-54.5c14.4-14.3,28.8-29.3,44.4-42.2c1.8-1.5,3.7-3,5.6-4.4l-4.7-5.9c-4.7,3.9-10.7,6.8-15.1,11
		c-9.5,9-19,18.1-28.5,27.1c-14.6,13.9-28.3,28.9-42.3,43.5c-11.7,12.1-23.9,24.1-34.4,37.2c-7.4,9.2-14.1,19.2-21.2,28.6
		c-5.3,7-11.6,12.5-10.9,21.9C-520.6-1746.2-518.5-1750.3-515.3-1754.1"/>
</g>
<g id="g1092" transform="matrix(0,-0.35277777,-0.35277777,0,59.22099,69.425616)">
	<path id="path1094" inkscape:connector-curvature="0" class="st1" d="M-366.2-1821.6c11.6-18.4,26.4-35,36.9-54
		c13-23.7,27.2-45.6,42.3-67.9c12.8-18.9,29.5-35.5,44.9-52.3c7.5-8.2,17.3-14.2,26.1-20.8c3.4-2.5,7.8-7.4,11.8-8.7
		c4.6-1.5,13.5-0.7,15,5.1c0.5,1.7-2,8-2.8,9.6c-0.9,1.8-2.9,3.3-4.3,4.7c-3.9,4-7.7,8-11.6,12.1c-4.1,4.3-8.4,8.3-11.8,13.1
		c-1.9,2.6-6.5,7.3-7.1,10.4c-0.5,2.4-0.1,2.6,1.5,5.2c6.3-4.1,8.1-9.6,12.9-15.3c4.7-5.6,11.3-10.3,16.7-15.3
		c5.2-4.8,10.2-4.2,17.4-4.5c6.2-0.3,14.5-1.5,20.5-0.1c9.4,2.3,21.7,13.2,22.5,22.9c0.7,7.6-5.5,10.8-8.6,17.3
		c-2,4.2-3.3,10.4,1.8,12.5c6.2,2.4,11.2-4.5,17.7-2.7c5.1,1.5,7.8,8.2,10.5,13c4.8,8.4,3.1,24-0.9,32.5
		c-10.5,23-26.2,42.8-38.3,64.8c-5.6,10.1-9.4,21-15.4,30.9c-6.2,10.3-22.8,29.5-18.3,32.3c7.9,3.3,19.7-19.2,23.3-24.6
		c7.3-10.9,14.3-22,21.2-33.2c11.5-18.6,23.2-37.3,34.3-56.1c2.6-4.3,4.9-8.8,7.4-13.2c2.3-4.2,4.6-11.2,8.1-14.4
		c7.1-6.6,21.8-8.3,30.3-5.2c6,2.2,9.1,3,13.1,7.8c4.1,4.9,7.5,7.9,12.8,11.6c4.1,2.8,10.1,6.3,12.8,10.4c2.9,4.3,3.3,10.5,3.1,15.6
		c-0.3,11.5-6.8,20.8-12.1,30.6c-5,9.1-15.4,25.1-13.8,27.7c5.3,4.6,9.7-10,11.3-13.3c3-5.8,10.9-16.6,13.1-13.4
		c2.5,3-1.6,14.9-4.5,22.5c-2.7,7.1-10.8,20.8-6.9,21.6c7.5,1.4,12.9-19.9,14.5-25.1c1.6-4.7,3.7-9.2,5.2-13.9
		c1.7-5.2,1.9-11.1,3.9-16.3c1.6-4.1,3.1-7.2,7.7-4.7c3,1.6,2.6,1.2,2.7,5.1c0,1.6,0.1,3.2,0,4.9c-0.1,4.3,0.3,9.1-0.6,13.3
		c-1.1,5.2-4,10.6-5.9,15.6c-6,15.4-13.1,30.5-21.4,44.8c-9.4,16.1-17.9,32.2-26.3,48.8c-4.2,8.4-8.7,16.6-12.8,25
		c-2.2,4.5-13.7,23.8-9.5,25.7c4.6,2.3,10.3-20.1,15.4-30.3c8.6-17.5,19.5-33.4,29.4-50.2c5.1-8.8,10.4-17.3,15.9-25.8
		c5.4-8.3,11.8-14.6,18.9-21.7c5.9-35.3,9.3-71.1,14-106.6c13.2,1.7,22.2,2.5,33.9-4.9c1.6-1,3.3-2.1,4.8-3.2v0
		c-9.8,1.4-17.3,2.1-27.2,0.4c-7.7-1.3-12.2-11.8-12.2-19.1c0-18.2,9-36.8,14.1-54.3c2.8-9.8,9-25.4,5.6-29c-3.6-2.1-5-0.8-6.6,3.6
		c-1,2.7-1.8,5.5-2.8,8.2c-2.6,6.9-5,13.3-6.3,20.5c-2.5,13.3-5.8,26.4-9.9,39.3c-2.2,6.9-4.2,13.9-6.9,20.6
		c-1.8,4.6-1.6,4.3-6.6,4.6c-3,0.2-5.5,0.3-8.5,0c-8-0.9-12.9-1-19.5-5.4c-7-4.6-11.5-7.2-15.7-14.3c-2.2-3.7-3.7-4.8-2.7-8.6
		c0.7-2.9,2.7-6,4.1-8.6c3.8-7.4,7.8-11.7,12.9-18.1c3.5-4.4,9-11.1,8.7-17.3c-0.4-9.4-8.7,3.3-10.9,6.4
		c-3.6,5.1-7.1,10.4-10.1,15.9c-2.8,5-6.2,14.3-12.1,16.1c-11.6,3.4-12.5-12-10.6-19.5c1.5-5.6,5.4-11.7,8.9-16.2
		c10-13,19.6-25.9,30.1-38.4c4.6-5.5,8.8-11.2,13.2-16.8c2-2.6,4.4-5.2,6.2-8c3.1-4.9,4.6-10.1,2-13c-3-2.2-8.7,1.3-11.5,3.2
		c-3.3,2.3-5.7,8-8.2,11.3c-5.7,7.6-11.6,15.1-17.4,22.7c-9.9,12.8-22.8,26.5-37.4,34.1c-6.7,3.5-15.9,2.6-21.5-2.8
		c-4.6-4.5-12.8-17.3-12.3-23.5c0.5-5.8,3.4-4.8,7.9-7.5c3.9-2.3,8.2-5.8,11.4-8.9c5.9-5.8,9.6-14.3,12.9-21.7
		c1.2-2.7,4.7-9.5,3.5-12.4c-0.3-0.7-3.9-2.2-4.7-1.9c-1,0.4-2.5,5-3,6c-3.9,7.8-8.1,14.4-14.1,20.9c-6.3,6.9-12.5,11.2-21.9,12.5
		c-9.2,1.2-19.3-0.3-27.4-5.1c-6.2-3.6-12.3-12.4-11.2-19.8c1.3-8.6,8.2-14.8,15.3-19.2c4.1-2.6,21.1-6.3,20.2-13.5
		c-1.4-10.7-15.2,1.8-19.6,4.3c-6.9,3.9-16,10.4-24,11.5c-2.3,0.3-6.1,0.5-8.3,0c-3-0.7-2.3,0.6-2.9-2.9c-0.7-4.1,2.3-8.4,5-11.5
		c6.1-7.1,15.2-12.8,22.3-18.8c5.6-4.7,11.3-9.4,16.2-14.9c3.8-4.2,6.4-5.7,5.6-11.4c-1.2-2.8-9.8,4.5-13.7,8.2
		c-5.4,5.2-10.2,11.1-15.8,16.1c-4.9,4.4-10.5,8.1-15.8,12.1c-5.9,4.5-8.6,4.9-16.2,5.8c-0.4-5.2-0.7-5.3,3.5-8.2
		c5.2-3.6,10.3-7.2,15.5-10.7c6.7-4.7,13-10.2,19.1-15.6c3.5-3.1,6.8-6.3,10.2-9.4c2.1-2,8.1-6.2,9-9c1.7-5.8-5.9-3.9-8.9-2.3
		c-3.5,1.9-6.8,7.1-9.6,10c-6.2,6.6-13.6,11.8-20.6,17.4c-6.5,5.2-13.5,12.1-20.9,15.9c-2.3,1.2-8.6,3.4-11.1,2.4
		c-2.7-1-6-8.2-4.7-11c1.2-2.6,7.6-5.4,10.1-7.1c4.1-2.8,9.4-5.2,13-8.6c3.2-3,7.9-7.7,5-12c-1.9-2.9,0-1.9-3.3-1.4
		c-3.1,0.4-6.7,2.7-9.7,3.9c-7.4,2.9-18.9,10.3-26.2,6.3c7.3-10.7,18.1-17.1,27.7-25.5c11.5-10.1,22.7-20.4,34.4-30.2
		c12.4-10.4,25.7-19.8,38-30.4c8.8-7.5,18.9-15.6,26-24.6c10.9-13.7,20.1-29,30.1-43.3c-9.2,8.1-19.4,14.9-28.3,23.3
		c-8.6,8.2-16.6,16.8-26.6,23.1c-23.6,15-48.9,27.8-73.1,41.9c-20.3,11.8-42.6,22.1-58.1,40.3c-3.9,4.6-7.7,9.6-10.1,15.2
		c-2.6,6-3,12.5-5,18.7c-1.5,4.9-3.1,11.3-6.1,15.4c-3.1,4.3-9.6,7.3-14.2,9.6c-24.3,11.7-50.1,20.3-74.5,31.9
		c-11.6,5.5-21.1,13.4-31.8,20.4c-10.9,7.1-17.5,15.5-25,25.9c-3,4.2-6.4,8-9.9,11.7c4.7-2,10.6-6.1,15.7-5.8
		c7.5,0.4,1.1,8.2-1.2,11.9c-3.5,5.5-7.2,10.7-10.5,16.3c-5.8,9.9-12.8,18.8-19.6,28.1c-15.8,21.2-31.6,42.1-48.1,62.7
		c-14.4,18-28.1,37.2-43.6,54.3c-16.7,18.4-36,35.3-54.2,52.2c-2.2,2.1-10.6,7.6-7,10.6c3.6,3.1,11.7-3.8,14.3-6.2
		c8.6-7.7,17.2-15.4,25.8-23.1c17.2-15.7,32.1-32.8,47.5-50.3c9.8-11.2,20.1-22.2,29.6-33.7c7.7-9.4,14.4-19.8,21.4-29.7
		c12.6-17.6,26.2-34.6,37.8-53c6.7-10.7,13.2-21.5,20.1-31.9c7-10.5,13-21,23.1-28.7c4.6-3.5,9.3-8.4,14.7-10.5
		c3.3-1.2,7.1-2.7,9.2-0.4c2.4,2.6,0.9,4.8-0.7,7.5c-2.8,4.8-8.1,7.6-11.7,12c-4,4.9-7.3,7.9-8.4,14.2c7.4-0.3,9.9-2.2,16.1-6.2
		c3.7-2.4,7.6-4.7,11.3-7.1c4.8-3.1,9.4-7.4,15.2-8.4c6-1.1,8.2,2.7,4.6,7.5c-1.2,1.6-2.7,3-4.3,4.4l4.7,5.9
		c16.9-13.4,34.9-25.6,52.9-37.2c4.7-3,9.8-7.6,15-9.7c2.9-1.2,12.9-3.6,15.7-2.6c5.2,1.8,4.4,8.8,2.7,12.7
		c-2.4,5.4-7.7,9.3-12.1,13c-16.2,13.7-33.1,26.9-48.2,41.9c-9,8.9-17.6,18.6-27.1,26.8c-4,3.5-9,6-12.8,9.7
		c-4.7,4.5-8.6,10.3-12.8,15.3c-7.5,9-15.1,17.7-22.7,26.6c-7.2,8.4-12.2,17.8-18.5,26.9c-3.3,4.8-7.2,9.1-10.5,13.8
		c-2.4,3.5-7,9.5-0.5,10.8c7.1,1.4,20-19.1,23.6-24.1c6.2-8.6,9.9-19.3,16.6-27.6c7-8.7,17-16.2,25.4-23.6c3.7,5.6,0.4,9.6-3.2,14.5
		c-2.9,4.1-6,8.1-9,12.1c-6.6,8.9-12.8,16.9-17.2,27.2c-1.3,3-2.1,2.7-0.1,5.2c1.5,1.8,3.1,2.6,5.6,1.5c4-1.8,6.9-8,9.1-11.4
		c5.5-8.6,12.2-16.1,18.7-24c5.1-6.2,10.9-18.1,19.2-18.7c0.2,6.4-0.1,10-2.2,16c-7.7,22.8-17.4,44.5-28.1,66
		c-10.3,20.7-24.3,40.1-37.7,58.9c-14.1,19.6-29.5,38.3-43.5,58c-2.9,4.1-8.2,9.1-9.8,13.9c-2.4,7.3,4.9,1.2,7.1-1.2
		c8.7-9.6,16.4-19.7,23.9-30.2c6.4-9,13.7-17.1,20.2-26.1C-379.6-1800.2-372.9-1810.9-366.2-1821.6 M-217.6-2160.2
		c-2.2,6.3-6.7,12.6-13.1,15.2c-2.4,1-8.8,2.6-11.1,1.8c-5-1.8-3.7-6.5-3.2-10.2c4.2-4.8,8.8-12.6,14.5-14.9
		C-222.5-2171.6-214-2170.3-217.6-2160.2"/>
</g>
<g id="g1096" transform="matrix(0,-0.35277777,-0.35277777,0,206.38703,307.31499)">
	<path id="path1098" inkscape:connector-curvature="0" class="st1" d="M-874.3,507c0.5-0.4,6.4-0.2,7.2,0c3.7,0.7,6.9,3.5,7.7,7.4
		c1.1,5.2-2.5,8.6-7.5,8.4c-5.2-0.2-6.7-5-8.9-9.4C-875.5,512.2-875.3,507.8-874.3,507 M-832.5,504.2c3.6-0.9,8.7-1,10.5,2.2
		c2.5,4.3-0.4,8.7-4.4,10.1c-4.7,1.5-8.2,0.1-12.2-2.2c-1.3-3.3-1.7-3.8,0.6-6.5C-836.6,506.3-834.7,504.8-832.5,504.2 M-905,480.9
		c4.3-0.9,7.3,1.6,8.6,5.3c0.6,2,1.3,4.6,1.1,6.6c-0.2,3.3-0.8,3.2-3.1,3.9c-5.2,1.8-8-0.6-10.5-4.4
		C-909.9,487.8-911.1,482.3-905,480.9 M-664.1,528.3c3.1-5.2-5.8-2.9-7.9-2.5c-6.1,1.4-12.2,2.6-18.2,4.1
		c-9.5,2.4-18.9,5.5-28.2,8.3c-5.2,1.6-19.8,6.9-20.6-1.4c-0.7-8.1,16.4-16.2,21.7-19.5c8.7-5.4,18.2-9.3,27.4-13.7
		c4.6-2.2,10.2-4.2,14.3-7.2c5.1-3.7,10.3-7.3,7.7-12.7c-1.8-7.1-34.2,11.8-48.9,21.1c-7.4,4.7-15.2,7.9-23.1,11.8
		c-9.6,4.8-18,4-23.8-5.6c-4.4-7.2-5.8-15.7-1.4-23.2c4.5-7.7,12.2-13,16.9-20.5c2.4-3.8,2.1-7.9-3-6.3c-3.9,1.2-7.9,5.3-10.9,7.9
		c-3.7,3.3-5.8,6.3-11,6.1c-5.1-0.1-8.8-1.6-12.6-4.7c-5.7-4.6-13.3-13-13.4-20.8c-0.1-5.8,13-20.7,6.2-24.8
		c-4.6-2.8-7.9,3.4-9.6,6.3c-2.6,4.3-3.8,8.1-9,9c-3.5,0.6-10.9-0.8-13.4-3.1c-3.1-2.9-1.8-7.4-0.7-10.7
		c12.8-34.4,28.6-67.4,39.8-102.4c5.6-17.3,12.9-34.1,18.1-51.5c1.3-4.2,8.5-22.8,3.6-25.5c-4.8-2.7-5.7,2.5-6.8,5.5
		c-1.9,5.1-3.8,10.2-5.8,15.3c-6.9,18.2-14.6,35.9-21.8,54c-6.6,16.6-11.8,33.8-18.1,50.6c-3.4,9.2-7.2,18.3-10.8,27.5
		c-2.7,6.7-5.7,17-10.9,22.1c-5.2,5.1-18.2,3.6-23.4-1c-2.4-2.2-4.6-6.9-5.9-9.9c-2.3-5.6-2.8-8.9-0.5-14.2c1.6-3.7,4.1-7.4,4-11.5
		c-0.1-4.5-3.7-6-7-8.6c-7.3-5.8-9.7-12.4-8.5-21.6c1.2-9.5,3.6-19.2,7.3-28c1.1-2.7,4.6-8.8,2.4-11.3c-0.7-0.8-5.5-1.3-6.3-0.9
		c-1.4,0.8-2.1,4.7-2.7,6.3c-3.7,8.7-8.5,16.9-12.5,25.5c-2.3,5-6.8,21.5-14.1,20c-7.7-1.6-10.3-13.5-9.7-20.1c1-9.9,4.2-19.6,7-29
		c5.2-17.6,9.1-35.5,13.8-53.2c2.4-9,5.2-17.1,8.7-25.7c3-7.5,8.2-14.5,9-22.6c0.7-7.5-3.9-4.4-6.4-0.2c-2.2,3.6-3.7,7.5-5.4,11.3
		c-3.8,8.5-7.1,16.9-10.1,25.7c-6.3,18.2-9.9,36.9-14.9,55.4c-2,7.6-4.4,15.8-8,22.7c-2.6,5-5.3,4.7-10.5,3.9
		c-4.6-0.8-8.3-2.7-10-7.2c-1.5-4,0.1-7.5,1-11.7c1.1-4.9,1.8-10.1,3.3-15c2.9-9.6,7.5-19,11.2-28.3c6-15.1,12.2-30.2,17.1-45.7
		c3-9.3,4.9-18.9,9-27.8c3.7-8.1,8.3-16.7,9.9-25.5c0.4-2.3,1.8-13-4.6-9.4c-2.3,1.3-3.9,9.6-4.9,12.2c-3.4,9.1-7.1,18.2-10.4,27.4
		c-6,16.8-11.1,33.7-17.7,50.3c-3.3,8.2-6.5,16.4-9.8,24.6c-3.5,8.9-5.8,17.9-9.1,26.8c-1,2.7-3.1,9.1-5.3,10.5
		c-2.9,1.8-11.1-1.8-12.8-4.1c-5-6.7,4.8-17.1,7.4-22.8c1.9-4.3,2.7-9.1,4.5-13.4c2-4.5,5.1-8.5,7.2-13c1.5-3.1,3.6-7.4,2.8-10.5
		c-1.4-5.7-5.8-1.8-8,1c-6.3,8.2-8.6,18.6-12.9,27.6c-1.6,3.3-3.8,9.4-8.6,7.2c-3.4-1.6-4.9-7.8-5-11.3c-0.3-7.2,3.5-15.6,5.9-22.5
		c3-9,6.2-17.9,8.9-26.9c5.1-17.3,10.5-34.4,14.8-51.9c4.8-19.8,10-39.4,15.4-59c2.2-8.1,4.3-16.3,6.5-24.5
		c2.2-8.3,5.6-17.1,6.4-25.7c0.3-2.5,1.4-10.9-3.2-8.8c-2.3,1-3.7,7.8-4.4,10c-2.7,8.6-5.4,17.3-8,26c-5,17.2-10.7,34.4-15.1,51.8
		c-9.4,37.4-19.1,74.3-31,111c-2.4,7.3-4.5,14.7-8,21.5c-2.6,5-3,5.4-8,7.8c-4.4,2.1-8.8,4.2-13.2,6.3c0.3,6.2,0.9,12.3,2.1,18.4
		c2.9,14.4,6.2,28.7,9.2,43c2.9,13.5,7.5,23.8,15,35.4c15,23.2,27.9,48,41.9,72c6.6,11.3,12.4,23.2,19.9,34.1
		c6.7,9.6,15.9,17.6,24.1,26c8.5,8.7,20.4,12.3,31.2,17.5c12.5,6,25,12,37.8,17.2c12.2,5,24.2,11,36.7,15.1
		c12.7,4.2,26.6,5.5,39.8,7.3c8.6,1.1,17.2,1.9,25.9,2.3c-7.1-4.9-16-10.3-13.7-20.3c1.2-5.4,2.3-6.7,7-8.2c6.2-2,12.5-3.9,18.7-5.8
		c7.9-2.5,15.9-5,23.8-7.5c5.3-1.6,10.6-3.2,15.9-5C-672.1,532.3-665.5,530.7-664.1,528.3"/>
</g>
</svg>
