<?xml version="1.0" encoding="UTF-8" standalone="no"?>
<!-- Created with Inkscape (http://www.inkscape.org/) -->

<svg
   xmlns:dc="http://purl.org/dc/elements/1.1/"
   xmlns:cc="http://creativecommons.org/ns#"
   xmlns:rdf="http://www.w3.org/1999/02/22-rdf-syntax-ns#"
   xmlns:svg="http://www.w3.org/2000/svg"
   xmlns="http://www.w3.org/2000/svg"
   xmlns:sodipodi="http://sodipodi.sourceforge.net/DTD/sodipodi-0.dtd"
   xmlns:inkscape="http://www.inkscape.org/namespaces/inkscape"
   version="1.1"
   id="svg834"
   xml:space="preserve"
   width="2133.3333"
   height="1638.3867"
   viewBox="0 0 2133.3333 1638.3867"
   sodipodi:docname="logo.svg"
   inkscape:version="0.92.4 (unknown)"><metadata
     id="metadata840"><rdf:RDF><cc:Work
         rdf:about=""><dc:format>image/svg+xml</dc:format><dc:type
           rdf:resource="http://purl.org/dc/dcmitype/StillImage" /><dc:title></dc:title></cc:Work></rdf:RDF></metadata><defs
     id="defs838"><clipPath
       clipPathUnits="userSpaceOnUse"
       id="clipPath850"><path
         d="M 0,1228.789 H 1600 V 0 H 0 Z"
         id="path848"
         inkscape:connector-curvature="0" /></clipPath><clipPath
       clipPathUnits="userSpaceOnUse"
       id="clipPath1106"><path
         d="M 0,1228.789 H 1600 V 0 H 0 Z"
         id="path1104"
         inkscape:connector-curvature="0" /></clipPath><clipPath
       clipPathUnits="userSpaceOnUse"
       id="clipPath1150"><path
         d="M 0,1228.789 H 1600 V 0 H 0 Z"
         id="path1148"
         inkscape:connector-curvature="0" /></clipPath><clipPath
       clipPathUnits="userSpaceOnUse"
       id="clipPath1206"><path
         d="M 0,1228.789 H 1600 V 0 H 0 Z"
         id="path1204"
         inkscape:connector-curvature="0" /></clipPath><clipPath
       clipPathUnits="userSpaceOnUse"
       id="clipPath1354"><path
         d="M 0,1228.789 H 1600 V 0 H 0 Z"
         id="path1352"
         inkscape:connector-curvature="0" /></clipPath></defs><sodipodi:namedview
     pagecolor="#ffffff"
     bordercolor="#666666"
     borderopacity="1"
     objecttolerance="10"
     gridtolerance="10"
     guidetolerance="10"
     inkscape:pageopacity="0"
     inkscape:pageshadow="2"
     inkscape:window-width="1853"
     inkscape:window-height="1025"
     id="namedview836"
     showgrid="false"
     inkscape:zoom="0.36425962"
     inkscape:cx="1185.1728"
     inkscape:cy="821.25867"
     inkscape:window-x="1987"
     inkscape:window-y="27"
     inkscape:window-maximized="1"
     inkscape:current-layer="g842" /><g
     id="g842"
     inkscape:groupmode="layer"
     inkscape:label="190221_LOGO"
     transform="matrix(1.3333333,0,0,-1.3333333,0,1638.3867)"><g
       id="g844"><g
         id="g846"
         clip-path="url(#clipPath850)"><g
           id="g852"
           transform="translate(469.0259,700.2979)"><path
             d="m 0,0 c 7.307,6.604 15.208,12.596 22.854,18.799 7.895,6.405 15.664,13.017 23.83,19.076 7.651,5.677 15.638,10.879 23.624,16.068 17.03,11.066 33.718,22.655 50.754,33.708 8.42,5.464 17.417,10.118 26.155,15.049 8.86,4.999 17.716,10.005 26.527,15.088 17.166,9.905 33.899,20.565 51.231,30.181 17.238,9.566 34.231,19.685 52.089,28.075 18.306,8.601 36.576,17.3 55.088,25.453 8.648,3.808 17.302,8.486 26.607,10.377 9.712,1.973 19.154,4.915 28.629,7.786 19.113,5.791 38.065,11.878 56.704,19.076 18.351,7.087 37.275,12.518 55.658,19.539 4.275,1.633 8.483,3.172 12.399,5.579 4.054,2.492 8.005,5.154 11.983,7.763 7.141,4.681 14.171,9.852 22.478,12.27 19.382,5.642 39.51,7.184 59.439,9.783 -0.609,4.651 -0.873,7.827 1.729,11.956 2.047,3.25 4.249,5.998 7.589,7.993 7.468,4.459 16.817,4.36 25.177,5.962 10.057,1.927 20.14,3.715 30.153,5.865 4.789,1.028 9.578,2.059 14.349,3.163 4.564,1.056 9.264,1.692 13.738,3.105 8.423,2.659 15.405,8.413 22.552,13.376 3.4,2.36 6.958,5.258 11.051,6.182 4.728,1.067 9.61,1.781 14.385,2.62 9.226,1.621 18.24,0.569 27.321,-1.395 4.528,-0.979 8.705,-2.723 13.063,-4.232 2.157,-0.747 4.358,-1.37 6.63,-1.641 2.025,-0.242 3.938,0.132 5.955,0.071 2.956,-0.091 7.045,-3.02 8.419,-5.639 1.623,-3.094 2.073,-6.815 2.363,-10.249 0.676,-8.02 -0.177,-18.221 -4.476,-25.264 -4.903,-8.035 -14.068,-9.893 -22.332,-12.466 -8.368,-2.606 -17.614,-5.898 -24.471,-11.507 -1.542,-1.261 -2.643,-2.871 -4.051,-4.256 -1.472,-1.448 -3.338,-2.324 -4.98,-3.548 -3.641,-2.717 -7.216,-6.341 -10.227,-9.745 -2.865,-3.237 -5.242,-6.857 -8.231,-9.994 -2.88,-3.022 -5.913,-5.834 -8.162,-9.386 -5.276,-8.335 -9.82,-17.265 -14.787,-25.8 -4.169,-7.165 -7.798,-15.04 -14.232,-20.516 -1.617,-1.377 -3.39,-2.718 -5.351,-3.565 -2.098,-0.906 -4.412,-1.073 -6.582,-1.747 -1.725,-0.537 -3.966,-1.096 -5.445,-2.163 -1.507,-1.087 -2.587,-3.389 -3.372,-5.025 -4.116,-8.58 -7.172,-17.665 -11.246,-26.268 -1.939,-4.095 -4.737,-7.452 -7.185,-11.224 -2.485,-3.83 -5.482,-6.171 -9.151,-8.808 -3.64,-2.616 -6.445,-6.035 -9.672,-9.111 -3.51,-3.345 -7.46,-6.174 -11.286,-9.138 -7.87,-6.094 -15.379,-12.627 -23.097,-18.909 -7.41,-6.031 -15.241,-11.557 -22.4,-17.893 -7.394,-6.545 -14.33,-13.608 -21.6,-20.291 C 551.23,57.787 543.627,52.34 536.386,46.299 529.19,40.296 523.913,32.654 517.887,25.553 511.317,17.81 504.416,10.318 497.561,2.826 c -13.029,-14.24 -27.569,-27.36 -42.825,-39.176 -7.965,-6.17 -15.849,-12.445 -23.854,-18.563 -7.915,-6.048 -16.142,-11.59 -24.356,-17.216 -16.366,-11.21 -32.548,-22.445 -49.509,-32.76 -17.267,-10.501 -34.076,-21.63 -50.605,-33.257 -16.547,-11.639 -32.759,-23.792 -48.933,-35.944 -7.854,-5.902 -15.512,-12.067 -23.812,-17.349 -8.349,-5.313 -16.997,-10.171 -25.454,-15.311 -17.257,-10.487 -33.372,-23.772 -51.075,-33.5 l -22.908,-14.126 c -17.424,-9.574 -34.988,-19.261 -53.154,-27.358 -9.142,-4.076 -18.308,-8.45 -27.735,-11.82 -9.064,-3.24 -18.377,-5.787 -27.503,-8.849 -9.362,-3.142 -19.034,-4.674 -28.87,-5.453 -4.909,-0.389 -9.814,-0.114 -14.725,0.066 -4.588,0.168 -9.171,0.064 -13.695,0.97 -5.073,1.015 -10.123,2.17 -15.182,3.254 -4.778,1.023 -8.4,2.663 -12.492,5.31 -8.2,5.305 -16.946,9.864 -25.384,14.784 -4.006,2.336 -8.206,4.364 -12.021,7.016 -3.394,2.359 -6.202,5.629 -9.164,8.502 -3.081,2.989 -4.349,7.197 -6.166,11.003 -2.108,4.417 -4.232,8.816 -6.085,13.348 -1.759,4.302 -3.862,8.555 -5.327,12.965 -1.484,4.466 -1.94,9.382 -2.558,14.032 -1.299,9.783 -1.081,19.705 -1.089,29.565 -0.009,9.547 2.862,18.838 5.172,28.042 1.228,4.895 2.547,9.767 3.909,14.626 1.196,4.269 1.925,9.177 4.005,13.117 2.251,4.267 5.269,8.265 7.877,12.322 2.55,3.966 5.006,7.984 7.457,12.011 5.104,8.386 11.042,15.924 17.234,23.524 12.664,15.542 25.422,30.869 39.141,45.5 6.645,7.085 13.06,14.603 20.27,21.119 z"
             style="fill:none;stroke:#000000;stroke-width:3;stroke-linecap:butt;stroke-linejoin:miter;stroke-miterlimit:10;stroke-dasharray:none;stroke-opacity:1"
             id="path854"
             inkscape:connector-curvature="0" /></g><g
           id="g856"
           transform="translate(369.6558,530.2041)"><path
             d="m 0,0 c -2.85,0.106 -2.104,1.5 -1.581,3.639 0.347,1.419 1.46,2.923 2.139,4.249 1.651,3.229 2.649,8.255 6.39,7.486 1.076,-0.608 0.123,-2.442 -0.74,-3.77 C 5.409,10.373 4.78,9.219 4.152,7.888 2.875,5.183 3.551,1.827 0,0"
             style="fill:#000000;fill-opacity:1;fill-rule:nonzero;stroke:none"
             id="path858"
             inkscape:connector-curvature="0" /></g><g
           id="g860"
           transform="translate(405.8726,613.0889)"><path
             d="m 0,0 c -1.504,-0.931 -1.446,-0.226 -1.774,0.405 -0.373,0.715 0.135,1.449 0.398,2.047 0.595,1.357 1.532,2.665 2.32,3.925 2.074,3.318 4.219,6.61 6.39,9.864 3.452,5.171 6.956,10.509 10.815,15.379 1.408,1.776 2.983,3.441 4.467,5.154 1.229,1.417 2.213,2.647 3.994,2.698 0.992,-1.068 -0.7,-2.988 -1.389,-4.212 -0.661,-1.176 -1.796,-2.193 -2.63,-3.263 -1.85,-2.373 -3.654,-4.786 -5.465,-7.19 C 13.132,19.5 9.302,14.294 5.913,8.575 4.023,5.385 3.312,1.935 0,0"
             style="fill:#000000;fill-opacity:1;fill-rule:nonzero;stroke:none"
             id="path862"
             inkscape:connector-curvature="0" /></g><g
           id="g864"
           transform="translate(431.1523,603.332)"><path
             d="m 0,0 c -2.34,0.17 -2.365,0.57 -2.365,2.513 0,1.224 0.131,2.266 0.333,3.478 0.414,2.484 0.695,4.727 1.661,7.033 1.015,2.419 1.84,5.09 3.131,7.372 1.385,2.447 3.24,4.821 4.915,7.083 1.566,2.115 2.852,4.446 5.533,5.054 1.083,0.245 2.114,0.335 2.955,-0.283 1.402,-1.03 0.777,-1.733 0.257,-3.044 C 14.319,23.896 11.742,19.001 8.936,14.017 6.288,9.315 3.878,1.938 0,0"
             style="fill:#000000;fill-opacity:1;fill-rule:nonzero;stroke:none"
             id="path866"
             inkscape:connector-curvature="0" /></g><g
           id="g868"
           transform="translate(452.5884,624.1768)"><path
             d="m 0,0 c -0.548,0.685 -1.717,1.678 -1.632,2.443 0.093,0.829 1.32,2.189 1.909,2.799 C 1.808,6.827 4.322,8.316 6.601,7.983 7.784,7.81 8.018,7.771 7.637,6.255 7.384,5.252 6.603,4.188 6.112,3.262 4.998,1.163 2.16,0.817 0,0"
             style="fill:#000000;fill-opacity:1;fill-rule:nonzero;stroke:none"
             id="path870"
             inkscape:connector-curvature="0" /></g><g
           id="g872"
           transform="translate(467.6455,658.3032)"><path
             d="m 0,0 c -2.577,0.712 -1.895,1.463 -1.774,3.631 0.084,1.514 0.623,2.793 1.405,4.145 1.283,2.216 3.995,4.035 6.561,4.347 C 10.344,12.627 8.519,7.951 7.08,6.015 5.158,3.431 3.566,-0.271 0,0"
             style="fill:#000000;fill-opacity:1;fill-rule:nonzero;stroke:none"
             id="path874"
             inkscape:connector-curvature="0" /></g><g
           id="g876"
           transform="translate(457.2969,667.0254)"><path
             d="m 0,0 c -1.444,0.591 -1.076,1.08 -1.013,1.829 0.091,1.074 1.283,2.653 1.761,3.624 0.924,1.877 2.423,3.27 3.814,4.836 2.812,3.162 6.028,5.932 8.935,9.013 1.117,1.184 2.364,3.069 3.855,3.465 3.387,0.9 1.762,-2.053 0.574,-3.364 C 15.307,16.514 12.322,13.826 9.903,10.784 6.695,6.749 4.516,0.837 0,0"
             style="fill:#000000;fill-opacity:1;fill-rule:nonzero;stroke:none"
             id="path878"
             inkscape:connector-curvature="0" /></g><g
           id="g880"
           transform="translate(481.2461,641.4502)"><path
             d="m 0,0 c -2.172,0 -3.797,-0.444 -4.583,2.07 -0.555,1.776 0.009,3.56 0.99,4.953 1.339,1.899 2.605,2.679 4.561,3.98 1.22,0.812 2.631,2.362 3.98,2.746 1.216,0.345 4.117,-0.135 4.809,-1.276 0.323,-0.532 0.13,-2.929 0,-3.551 C 9.609,8.208 9.191,7.669 8.786,7.02 6.696,3.677 3.36,1.938 0,0"
             style="fill:#000000;fill-opacity:1;fill-rule:nonzero;stroke:none"
             id="path882"
             inkscape:connector-curvature="0" /></g><g
           id="g884"
           transform="translate(456.5825,594.2158)"><path
             d="m 0,0 c -1.697,-0.39 -1.576,0.454 -1.736,0.874 -0.23,0.605 0.748,2.616 0.923,3.228 0.599,2.096 0.963,3.032 2.316,4.711 1.113,1.379 1.9,2.548 3.41,3.428 2.2,1.284 4.432,2.526 6.606,3.854 3.216,1.964 5.869,5.056 8.633,7.604 2.539,2.341 5.08,4.678 7.622,7.016 2.628,2.417 5.664,6.058 8.861,7.782 1.217,0.656 4.055,1.075 3.989,-1.088 C 40.564,35.466 37.948,33.683 36.525,32.69 30.614,28.568 25.662,23.334 20.099,18.765 16.483,15.795 12.897,12.785 9.249,9.855 7.32,8.307 5.84,6.963 4.413,4.994 3.072,3.146 2.173,0.777 0,0"
             style="fill:#000000;fill-opacity:1;fill-rule:nonzero;stroke:none"
             id="path886"
             inkscape:connector-curvature="0" /></g><g
           id="g888"
           transform="translate(485.4019,529.3848)"><path
             d="m 0,0 c -2.178,0.695 -1.624,1.967 -1.67,2.714 -0.041,0.676 1.052,2.635 1.409,3.17 0.918,1.376 2.843,2.181 4.449,2.694 4.241,1.356 8.287,2.603 12.361,4.498 1.745,0.811 4.574,2.953 6.707,1.954 0.472,-0.22 1.814,-1.637 1.95,-2.188 0.201,-0.823 -0.649,-1.411 -1.31,-2.203 C 22.299,8.722 21.316,7.527 19.171,6.336 17.331,5.313 15.59,4.335 13.889,3.104 12.679,2.228 11.406,0.977 10.059,0.329 9.096,-0.134 8.196,0 7.062,0 Z"
             style="fill:#000000;fill-opacity:1;fill-rule:nonzero;stroke:none"
             id="path890"
             inkscape:connector-curvature="0" /></g><g
           id="g892"
           transform="translate(479.5566,507.6738)"><path
             d="M 0,0 C -1.576,1.826 0.142,3.052 1.473,4.796 2.499,6.14 3.958,7.161 5.322,8.182 6.614,9.148 12.3,13.348 13.91,11.898 14.956,10.958 13.053,8.503 12.59,7.75 11.457,5.908 10.66,5.472 8.76,4.367 5.866,2.684 1,-0.944 0,0"
             style="fill:#000000;fill-opacity:1;fill-rule:nonzero;stroke:none"
             id="path894"
             inkscape:connector-curvature="0" /></g><g
           id="g896"
           transform="translate(497.3013,497.2354)"><path
             d="m 0,0 c -3.317,-0.74 -2.145,1.396 -1.879,2.088 0.149,0.388 1.337,1.84 1.642,2.188 1.012,1.161 2.364,2.47 3.671,3.281 3.199,1.983 7.362,2.881 11.039,2.881 2.192,0 1.625,-1.428 0.44,-2.605 C 13.7,6.629 12.116,5.581 10.587,4.831 7.113,3.129 3.494,1.677 0,0"
             style="fill:#000000;fill-opacity:1;fill-rule:nonzero;stroke:none"
             id="path898"
             inkscape:connector-curvature="0" /></g><g
           id="g900"
           transform="translate(527.7109,490.3027)"><path
             d="m 0,0 c -3.338,0.801 -2.78,1.974 -1.709,4.329 0.665,1.464 2.732,2.233 4.027,3.257 2.51,1.984 5.819,2.66 8.746,3.895 6.507,2.747 12.857,5.886 19.163,9.06 2.494,1.256 5.276,3.406 7.98,3.884 0.543,0.096 2.381,0.291 2.861,0 0.249,-0.151 1.519,-2.095 1.456,-2.398 C 42.402,21.44 40.383,20.563 39.812,20.212 33.552,16.36 27.544,12.869 20.917,9.722 13.945,6.41 6.231,0.325 0,0"
             style="fill:#000000;fill-opacity:1;fill-rule:nonzero;stroke:none"
             id="path902"
             inkscape:connector-curvature="0" /></g><g
           id="g904"
           transform="translate(518.3169,529.3408)"><path
             d="m 0,0 c -3.157,-0.773 -2.025,1.842 -1.461,2.561 0.364,0.464 2.416,1.857 2.909,2.219 0.757,0.557 1.472,0.995 2.295,1.453 4.298,2.394 8.595,4.788 12.892,7.182 6.776,3.774 13.542,7.564 20.337,11.306 15.612,8.594 31.355,17.168 46.493,26.577 3.067,1.906 5.656,4.466 9.019,5.832 2.187,0.889 4.298,1.819 6.581,2.411 0.776,0.201 2.988,0.94 3.79,0.982 1.226,0.066 3.181,-0.253 1.733,-2.488 C 97.07,54.363 89.618,50.585 82.169,46.773 75.663,43.444 69.925,39.043 63.672,35.28 57.633,31.647 51.297,28.408 45.081,25.084 38.123,21.364 30.706,18.057 24.149,13.656 19.78,10.723 15.499,7.378 10.924,4.778 7.518,2.843 3.602,1.554 0,0"
             style="fill:#000000;fill-opacity:1;fill-rule:nonzero;stroke:none"
             id="path906"
             inkscape:connector-curvature="0" /></g><g
           id="g908"
           transform="translate(567.6045,523.5439)"><path
             d="m 0,0 c -1.347,0.44 -0.736,2.139 -0.154,3.035 0.652,1.003 2.61,2.044 3.622,2.716 1.842,1.224 3.856,2.243 5.769,3.351 4.115,2.381 7.925,4.295 12.316,6.097 4.444,1.822 8.902,3.392 12.988,5.913 4.457,2.75 8.73,5.134 13.459,7.37 1.894,0.895 3.86,1.693 5.634,2.8 2.022,1.262 3.982,3.49 6.349,3.741 1.509,0.16 2.207,0.143 2.74,-1.359 0.511,-1.445 0.249,-1.095 -1.254,-1.996 C 59.674,30.591 57.871,29.525 56.093,28.419 47.914,23.322 39.768,18.131 31.285,13.545 25.882,10.623 20.883,8.063 15.126,5.972 10.212,4.186 1.222,-1.086 0,0"
             style="fill:#000000;fill-opacity:1;fill-rule:nonzero;stroke:none"
             id="path910"
             inkscape:connector-curvature="0" /></g><g
           id="g912"
           transform="translate(476.8384,397.9521)"><path
             d="m 0,0 c -1.406,0.486 -3.07,0.812 -4.374,1.514 -0.36,0.193 -0.848,0.193 -1.054,0.479 -0.25,0.348 -0.14,2.366 0,2.804 C -4.337,8.19 -0.895,7.35 1.804,6.881 3.794,6.534 5.234,5.769 6.906,4.628 8.595,3.476 7.903,3.22 7.1,1.413 6.404,-0.153 6.487,0 4.794,0 Z"
             style="fill:#000000;fill-opacity:1;fill-rule:nonzero;stroke:none"
             id="path914"
             inkscape:connector-curvature="0" /></g><g
           id="g916"
           transform="translate(493.1221,401.709)"><path
             d="m 0,0 c -0.861,1.293 -1.348,1.346 -0.592,2.474 0.655,0.979 1.651,1.342 2.69,1.676 2.582,0.83 5.051,1.534 7.714,2.009 4.447,0.794 8.351,3.049 12.512,4.771 4.64,1.92 9.281,3.84 13.917,5.771 4.536,1.891 8.555,4.105 12.855,6.492 2.605,1.447 5.236,3.074 7.956,4.285 1.09,0.484 2.531,1.033 3.704,1.21 1.019,0.154 1.086,0.254 1.857,0.405 1.538,0.3 1.781,-0.757 0.85,-2.371 -3.7,-3.328 -7.853,-4.413 -11.734,-6.71 C 47.545,17.535 43.666,15.705 39.149,13.884 30.718,10.484 22.478,6.827 13.8,4.097 9.224,2.656 4.601,1.358 0,0"
             style="fill:#000000;fill-opacity:1;fill-rule:nonzero;stroke:none"
             id="path918"
             inkscape:connector-curvature="0" /></g><g
           id="g920"
           transform="translate(532.7212,444.793)"><path
             d="m 0,0 c -2.052,-0.265 -3.433,-0.659 -3.757,1.462 0.455,2.547 3.19,2.739 5.286,3.415 1.856,0.599 3.72,1.177 5.563,1.815 5.455,1.888 10.882,3.861 16.322,5.791 8.092,2.872 16.665,5.222 23.921,9.839 3.43,2.183 7.821,5.235 11.932,5.235 0.363,0 2.101,0.23 2.41,0 0.453,-0.339 0.032,0.122 0.324,-0.604 0.267,-0.662 0.098,-2.2 -0.273,-2.637 -0.518,-0.608 -2.501,-0.991 -3.227,-1.278 -1.666,-0.66 -3.332,-1.32 -4.998,-1.98 C 45.422,17.856 37.582,14.089 29.485,10.921 24.267,8.879 19.322,6.832 14.341,4.283 9.826,1.974 4.926,1.187 0,0"
             style="fill:#000000;fill-opacity:1;fill-rule:nonzero;stroke:none"
             id="path922"
             inkscape:connector-curvature="0" /></g><g
           id="g924"
           transform="translate(624.9932,496.9834)"><path
             d="m 0,0 c -1.988,-0.469 -3.565,0.057 -2.088,2.296 10.804,7.479 22.396,13.591 33.898,19.917 5.028,2.766 10.261,5.109 15.447,7.566 5.565,2.636 10.7,5.997 15.965,9.189 2.549,1.545 4.6,3.748 7.089,5.36 2.889,1.872 6.701,4.87 9.018,3.06 C 80.226,46.394 78.488,45.066 77.778,44.3 76.822,43.268 75.163,42.502 74.009,41.709 71.414,39.924 68.872,37.913 66.157,36.313 60.946,33.244 55.192,31.064 49.878,28.173 43.775,24.853 37.865,21.114 31.875,17.594 27.497,15.021 22.763,13.165 18.275,10.801 12.014,7.503 5.949,3.824 0,0"
             style="fill:#000000;fill-opacity:1;fill-rule:nonzero;stroke:none"
             id="path926"
             inkscape:connector-curvature="0" /></g><g
           id="g928"
           transform="translate(682.8193,516.8154)"><path
             d="M 0,0 C -0.625,1.249 -1.143,1.973 -1.054,3.265 -0.995,4.142 -0.533,6.703 0.07,7.335 1.41,8.737 5.96,9.53 7.767,8.948 8.853,8.598 10.07,7.687 9.948,6.842 9.801,5.83 8.478,4.286 7.746,3.544 6.739,2.521 5.028,0.921 3.736,0.318 2.616,-0.204 1.294,0 0,0"
             style="fill:#000000;fill-opacity:1;fill-rule:nonzero;stroke:none"
             id="path930"
             inkscape:connector-curvature="0" /></g><g
           id="g932"
           transform="translate(653.5933,523.7041)"><path
             d="m 0,0 c -2.249,0.448 -2.99,2.397 -3.292,3.497 -0.199,0.728 0.729,3.24 1.259,3.662 0.967,0.77 3.904,0.989 5.164,1.192 1.426,0.228 3.332,0.583 4.761,0.414 1.097,-0.13 2.994,-0.838 3.41,-1.683 C 12.381,4.891 10.711,3.615 9.104,2.752 6.059,1.117 3.419,-0.253 0,0"
             style="fill:#000000;fill-opacity:1;fill-rule:nonzero;stroke:none"
             id="path934"
             inkscape:connector-curvature="0" /></g><g
           id="g936"
           transform="translate(668.2061,534.7686)"><path
             d="m 0,0 c -1.043,0.38 -4.038,0.9 -4.592,1.758 -0.258,0.397 -0.124,2.537 0,2.983 0.282,1.025 0.385,0.859 1.567,1.454 4.595,2.313 8.509,5.59 13.211,7.76 2.245,1.035 3.057,1.014 5.557,0.796 0.847,-0.074 1.256,0.037 1.671,-0.485 0.465,-0.584 0.62,-2.234 0.748,-2.993 C 18.582,8.786 18.43,7.632 16.569,6.046 15.205,4.883 13.827,3.564 12.253,2.711 8.18,0.501 4.543,0.379 0,0"
             style="fill:#000000;fill-opacity:1;fill-rule:nonzero;stroke:none"
             id="path938"
             inkscape:connector-curvature="0" /></g><g
           id="g940"
           transform="translate(730.834,556.4795)"><path
             d="m 0,0 c -3.894,-0.575 -4.436,2.067 -4.533,4.045 -0.161,3.272 2.477,4.15 4.854,5.546 2.159,1.267 4.272,2.662 6.292,4.141 1.364,0.998 2.618,2.405 4.101,3.202 1.585,0.852 3.658,1.515 5.445,1.707 1.041,0.112 2.874,0.389 3.863,-0.008 0.958,-0.384 1.512,-1.653 1.963,-2.62 1.062,-2.28 0.723,-4.693 -1.098,-6.445 C 18.367,7.145 15.169,6.891 12.15,5.442 10.258,4.535 8.673,2.992 6.796,2.053 4.68,0.994 2.279,0.536 0,0"
             style="fill:#000000;fill-opacity:1;fill-rule:nonzero;stroke:none"
             id="path942"
             inkscape:connector-curvature="0" /></g><g
           id="g944"
           transform="translate(730.834,572.7627)"><path
             d="m 0,0 c -3.14,-1.832 -3.923,-0.727 -3.549,1.253 1.267,3.632 4.73,5.649 7.881,7.602 3.179,1.971 6.562,3.672 9.825,5.498 2.492,1.394 5.638,2.613 7.78,4.499 1.47,1.293 2.396,3.205 3.806,4.566 0.956,0.923 2.185,1.64 3.266,2.416 1.167,0.839 2.382,1.989 3.683,2.594 1.374,0.639 4.13,1.651 5.606,1.628 0.976,-0.016 0.407,0.383 1.057,-0.42 0.639,-0.788 0.406,-0.827 0.092,-1.416 C 38.575,26.581 35.888,25.071 34.551,23.733 29.625,18.806 23.65,15.12 17.776,11.449 11.718,7.663 6.512,3.085 0,0"
             style="fill:#000000;fill-opacity:1;fill-rule:nonzero;stroke:none"
             id="path946"
             inkscape:connector-curvature="0" /></g><g
           id="g948"
           transform="translate(811.624,595.7266)"><path
             d="M 0,0 C -1.253,0.487 -2.505,0.974 -3.758,1.461 -2.545,3.793 -1.476,8.104 2.088,7.306 3.982,6.882 4.887,4.698 4.588,2.975 4.2,0.739 2.106,0.007 0,0"
             style="fill:#000000;fill-opacity:1;fill-rule:nonzero;stroke:none"
             id="path950"
             inkscape:connector-curvature="0" /></g><g
           id="g952"
           transform="translate(628.9595,649.1689)"><path
             d="m 0,0 c -3.075,-1.102 -5.386,-0.313 -6.397,0.937 -0.611,0.755 -1.157,3.608 -1.192,4.597 -0.033,0.915 0.272,1.443 0.677,2.36 1.016,2.304 1.617,4.668 3.552,6.293 1.941,1.63 3.559,3.162 5.868,4.172 2.417,1.057 4.515,2.048 7.095,2.517 2.702,0.491 4.934,0.002 7.669,-0.377 1.766,-0.245 2.824,-0.604 3.477,-2.359 0.411,-1.105 1.056,-2.704 0.814,-3.822 C 20.995,11.696 18.497,9.214 16.446,7.695 14.146,5.991 11.32,4.166 8.579,3.337 5.325,2.353 4.887,1.311 0,0"
             style="fill:#000000;fill-opacity:1;fill-rule:nonzero;stroke:none"
             id="path954"
             inkscape:connector-curvature="0" /></g><g
           id="g956"
           transform="translate(670.2939,673.3848)"><path
             d="m 0,0 c -1.452,0.454 -3.521,0.662 -4.402,2.086 -0.749,1.212 -0.034,2.028 0.487,3.237 0.557,1.291 0.316,1.041 1.367,1.39 C -1.28,7.135 1.798,7.348 2.637,6.017 4.219,3.504 1.698,1.451 0,0"
             style="fill:#000000;fill-opacity:1;fill-rule:nonzero;stroke:none"
             id="path958"
             inkscape:connector-curvature="0" /></g><g
           id="g960"
           transform="translate(688.0386,624.5352)"><path
             d="m 0,0 c -1.977,-1.373 -3.165,-0.661 -2.714,1.044 0.814,1.517 1.602,2.987 3.054,3.9 1.593,1.001 3.346,1.814 4.981,2.751 2.42,1.386 4.894,2.71 7.192,4.294 5.134,3.539 10.174,7.237 15.404,10.634 12.202,7.927 24.388,15.866 36.495,23.937 10.103,6.735 20.843,12.479 31.028,19.085 10.921,7.083 21.458,14.743 32.231,22.045 5.479,3.714 11.18,7.182 16.506,11.109 5.5,4.056 10.653,8.632 16.271,12.521 0.841,0.582 3.243,2.436 4.121,2.175 2.618,-0.778 -0.838,-4.031 -1.556,-4.742 -2.334,-2.31 -5.259,-4.131 -7.877,-6.106 C 149.917,98.709 144.51,95.1 139.092,91.437 128.434,84.229 118.528,76.172 108.111,68.636 97.493,60.955 86.142,54.417 74.725,47.995 69.65,45.141 64.549,42.428 59.744,39.146 52.792,34.399 45.842,29.652 38.891,24.905 28.586,17.868 18.036,11.254 7.391,4.765 4.89,3.24 2.459,1.591 0,0"
             style="fill:#000000;fill-opacity:1;fill-rule:nonzero;stroke:none"
             id="path962"
             inkscape:connector-curvature="0" /></g><g
           id="g964"
           transform="translate(832.5,675.4727)"><path
             d="m 0,0 c -1.125,0.102 -2.718,-0.055 -3.764,0.342 -0.294,0.111 -0.666,-0.037 -0.828,0.169 -0.264,0.337 0.11,2.359 0.214,2.668 0.629,1.853 3.419,3.844 5.023,4.972 4.436,3.12 9.838,5.345 14.605,7.934 8.569,4.655 16.634,10.381 24.855,15.617 3.373,2.148 6.99,4.122 10.207,6.501 4.237,3.134 8.1,6.96 12.098,10.395 6.7,5.756 13.9,10.902 20.691,16.547 4.275,3.555 8.399,7.312 12.582,10.975 3.69,3.231 6.552,6.972 10.042,10.381 0.888,0.868 4.218,4.302 5.474,2.044 0.494,-0.889 -0.96,-4.376 -1.632,-5.281 -1.708,-2.306 -4.287,-4.287 -6.314,-6.315 -1.267,-1.266 -2.488,-2.618 -3.832,-3.801 C 91.521,66.199 82.834,60.104 74.729,53.394 68.298,48.071 62.464,42.232 55.46,37.673 46.963,32.142 38.578,26.757 30.577,20.543 22.816,14.517 15.263,8.585 6.679,3.756 4.452,2.504 2.227,1.252 0,0"
             style="fill:#000000;fill-opacity:1;fill-rule:nonzero;stroke:none"
             id="path966"
             inkscape:connector-curvature="0" /></g><g
           id="g968"
           transform="translate(905.9834,673.3848)"><path
             d="m 0,0 c -0.386,0.501 -2.028,2.03 -2.029,2.638 -10e-4,0.594 1.253,1.751 1.655,2.265 1.149,1.469 2.259,2.833 3.556,4.165 2.881,2.96 5.724,5.929 8.756,8.732 6.494,6.001 12.847,12.369 19.858,17.774 2.53,1.95 4.999,4.23 7.699,5.935 1.696,1.071 3.864,1.369 5.806,1.913 0.24,-2.399 -0.127,-2.423 -1.824,-4.12 -2.09,-2.091 -4.181,-4.181 -6.271,-6.271 -2.73,-2.731 -5.892,-4.934 -8.95,-7.29 C 21.955,20.886 16.377,15.409 10.662,9.872 7.178,6.497 3.845,2.958 0,0"
             style="fill:#000000;fill-opacity:1;fill-rule:nonzero;stroke:none"
             id="path970"
             inkscape:connector-curvature="0" /></g><g
           id="g972"
           transform="translate(878.6357,749.3735)"><path
             d="m 0,0 c -0.514,0.197 -2.472,0.597 -2.714,1.043 -0.192,0.356 0.664,2.215 0.781,2.605 0.542,1.807 1.007,1.838 2.708,2.689 3.274,1.637 6.469,3.142 9.472,5.221 3.178,2.2 6.315,4.412 9.406,6.731 1.316,0.986 2.411,1.702 3.906,2.374 2.34,1.054 2.436,1.003 4.833,0.004 C 23.518,16.956 18.539,13.42 13.286,10.268 8.452,7.367 4.478,3.444 0,0"
             style="fill:#000000;fill-opacity:1;fill-rule:nonzero;stroke:none"
             id="path974"
             inkscape:connector-curvature="0" /></g><g
           id="g976"
           transform="translate(966.9414,760.02)"><path
             d="m 0,0 c -5.47,1.898 0.899,8.19 3.604,9.728 1.722,0.979 3.429,1.984 5.149,2.968 1.414,0.81 3.81,2.062 5.515,1.463 1.148,-0.403 1.335,-2.819 1.265,-4.046 C 15.361,7.086 14.963,6.11 12.355,4.814 10.595,3.939 9.193,3.364 7.292,3.043 4.22,2.524 2.363,-0.542 0,0"
             style="fill:#000000;fill-opacity:1;fill-rule:nonzero;stroke:none"
             id="path978"
             inkscape:connector-curvature="0" /></g><g
           id="g980"
           transform="translate(928.1123,781.105)"><path
             d="m 0,0 c -0.766,0.348 -1.531,0.696 -2.297,1.043 1.727,3.233 3.545,4.985 6.681,6.89 2.225,1.352 4.205,3.054 6.231,4.693 2.036,1.646 3.905,3.518 6.364,4.44 1.115,0.418 2.385,1.13 3.561,1.301 1.273,0.184 2.806,-0.141 4.093,-0.205 -0.167,-1.469 -0.137,-2.38 -1.353,-3.24 -1.143,-0.808 -2.669,-1.424 -3.941,-2.027 -1.68,-0.796 -3.558,-1.193 -5.167,-2.14 C 12.811,9.954 11.583,8.83 10.354,7.845 6.974,5.136 3.465,2.599 0,0"
             style="fill:#000000;fill-opacity:1;fill-rule:nonzero;stroke:none"
             id="path982"
             inkscape:connector-curvature="0" /></g><g
           id="g984"
           transform="translate(1007.6494,800.937)"><path
             d="m 0,0 c -1.452,-0.132 -3.533,-0.72 -4.84,-0.216 -0.663,0.255 -2.174,1.513 -2.571,2.088 -0.567,0.819 -0.482,0.686 -0.13,1.907 1.187,4.126 4.72,6.732 7.787,9.615 1.552,1.459 3.173,2.876 4.793,4.26 0.962,0.822 2.883,2.7 4.068,2.756 0.631,0.029 3.872,-2.038 3.997,-2.575 0.305,-1.307 -2.509,-5.419 -3.086,-6.598 C 7.624,6.35 4.835,2.579 0,0"
             style="fill:#000000;fill-opacity:1;fill-rule:nonzero;stroke:none"
             id="path986"
             inkscape:connector-curvature="0" /></g><g
           id="g988"
           transform="translate(1001.8037,788.8291)"><path
             d="m 0,0 c -1.59,0.397 -4.428,0.564 -4.837,2.684 -0.289,1.497 1.373,3.476 2.541,4.205 0.735,0.459 2.978,1.9 3.807,1.847 C 1.89,8.712 3.624,7.562 3.744,7.253 3.955,6.706 3.122,4.822 2.938,4.229 2.245,2.009 1.891,1.26 0,0"
             style="fill:#000000;fill-opacity:1;fill-rule:nonzero;stroke:none"
             id="path990"
             inkscape:connector-curvature="0" /></g><g
           id="g992"
           transform="translate(1006.3965,762.7339)"><path
             d="m 0,0 c -2.956,0.56 -1.344,2.61 -0.443,4.488 0.686,1.431 1.306,2.646 2.26,3.894 2.204,2.881 4.364,5.722 6.775,8.426 5.214,5.851 10.573,11.341 16.427,16.575 2.448,2.19 6.984,7.28 9.009,6.073 C 35.503,38.8 29.789,32.769 26.554,29.863 23.29,26.932 19.629,24.617 16.725,21.301 14.032,18.226 11.495,15.075 8.919,11.903 5.787,8.047 1.633,-0.264 0,0"
             style="fill:#000000;fill-opacity:1;fill-rule:nonzero;stroke:none"
             id="path994"
             inkscape:connector-curvature="0" /></g><g
           id="g996"
           transform="translate(842.3115,855.8408)"><path
             d="m 0,0 c -2.549,-1.662 -4.835,-3.145 -7.642,-4.286 -0.886,-0.36 -3.054,-1.713 -3.944,-1.467 -0.246,0.068 -1.742,1.335 -1.774,1.578 -0.047,0.354 1.256,1.605 1.435,1.826 2.416,2.98 5.819,4.021 9.263,5.596 1.986,0.908 3.951,1.825 5.988,2.608 12.304,4.733 24.805,8.937 37.1,13.668 5.527,2.127 10.765,5.256 16.383,7.119 2.796,0.927 6.062,1.4 8.978,1.838 2.529,0.381 5.252,0.771 7.487,-0.506 0.374,-0.214 1.36,-0.581 1.414,-0.952 0.08,-0.544 -0.972,-2.101 -1.414,-2.389 C 71.722,23.62 68.597,24.218 66.789,23.843 63.024,23.063 59.302,21.829 55.587,20.836 50.132,19.379 44.999,16.979 39.694,15.057 26.378,10.232 13.271,4.948 0,0"
             style="fill:#000000;fill-opacity:1;fill-rule:nonzero;stroke:none"
             id="path998"
             inkscape:connector-curvature="0" /></g><g
           id="g1000"
           transform="translate(915.3779,896.1313)"><path
             d="m 0,0 c -1.666,-0.555 -9.676,-1.983 -9.813,0.835 -0.103,2.144 2.427,3.905 4.127,4.373 2.297,0.633 4.633,1.292 6.963,1.788 1.54,0.328 3.139,0.498 4.708,0.63 2.474,0.209 5.939,0.825 4.661,-2.825 C 9.525,1.6 2.904,0.873 0,0"
             style="fill:#000000;fill-opacity:1;fill-rule:nonzero;stroke:none"
             id="path1002"
             inkscape:connector-curvature="0" /></g><g
           id="g1004"
           transform="translate(1003.8916,911.3706)"><path
             d="m 0,0 c -0.583,1.08 -3.548,0.354 -5.366,-0.278 -1.671,-0.581 -3.265,-1.112 -4.832,-1.923 -3.816,-1.973 -7.637,-3.935 -11.658,-5.472 -3.854,-1.473 -8.308,-2.327 -12.353,-3.164 -2.715,-0.562 -5.541,-0.51 -8.253,-1.08 -2.351,-0.495 -4.393,-2.738 -3.674,-4.992 0.236,-1.232 2.925,-0.902 4.234,-0.817 1.755,0.115 3.744,1.26 5.434,1.747 3.249,0.937 6.614,1.567 9.908,2.332 2.809,0.652 4.466,2.674 7.065,3.709 1.864,0.741 4.013,0.83 5.928,1.437 1.36,0.43 2.585,1.163 3.86,1.821 1.484,0.766 2.95,1.54 4.48,2.21 C -2.599,-3.32 0.826,-1.643 0,0"
             style="fill:#000000;fill-opacity:1;fill-rule:nonzero;stroke:none"
             id="path1006"
             inkscape:connector-curvature="0" /></g><g
           id="g1008"
           transform="translate(966.5234,891.7476)"><path
             d="m 0,0 c 2.598,0.59 8.599,2.366 8.912,-1.924 0.313,-4.287 -5.071,-7.168 -8.42,-8.435 -3.172,-1.2 -6.347,-2.255 -9.619,-3.15 -1.52,-0.415 -4.261,-1.315 -5.73,-0.647 -1.833,0.832 -2.212,2.933 -2.154,4.645 0.089,2.621 2.234,5.001 4.727,5.798 C -8.11,-2.38 -4.082,-1.67 0,0"
             style="fill:#000000;fill-opacity:1;fill-rule:nonzero;stroke:none"
             id="path1010"
             inkscape:connector-curvature="0" /></g><g
           id="g1012"
           transform="translate(948.7793,940.1797)"><path
             d="m 0,0 c 0.698,0.125 1.416,0.229 1.67,-0.209 0.441,-1.46 -0.99,-2.078 -2.25,-2.777 -1.842,-1.023 -3.89,-1.977 -5.858,-2.729 -2.979,-1.139 -8.049,-3.762 -9.428,-2.218 -0.987,1.141 -0.143,2.841 0.475,3.718 0.882,1.25 3.329,1.752 4.706,1.899 C -6.976,-1.918 -3.519,-1.224 0,0"
             style="fill:#000000;fill-opacity:1;fill-rule:nonzero;stroke:none"
             id="path1014"
             inkscape:connector-curvature="0" /></g><g
           id="g1016"
           transform="translate(968.4023,940.5972)"><path
             d="m 0,0 c -1.852,-1.107 -4.852,-2.55 -5.637,-1.461 -0.771,0.873 0.16,2.295 0.542,3.251 0.369,0.922 1.126,1.296 1.934,1.994 1.777,1.537 3.304,2.814 5.488,3.733 C 3.699,8.095 4.414,8.949 5.311,7.754 6.329,6.399 5.743,4.874 4.816,3.719 3.578,2.177 1.607,1.148 0,0"
             style="fill:#000000;fill-opacity:1;fill-rule:nonzero;stroke:none"
             id="path1018"
             inkscape:connector-curvature="0" /></g><g
           id="g1020"
           transform="translate(992.8271,946.2334)"><path
             d="m 0,0 c -0.318,-0.11 -4.068,-2.014 -5.01,-1.252 -1.25,1.373 -0.649,2.377 0.233,3.529 0.809,1.057 2.072,1.952 3.09,2.829 1.348,1.162 2.683,2.291 4.227,3.178 1.441,0.828 3.696,2.589 5.34,2.845 C 12.106,11.789 8.974,6.468 7.456,4.951 6.462,3.957 5.503,2.742 4.339,1.972 3.067,1.132 1.392,0.633 0,0"
             style="fill:#000000;fill-opacity:1;fill-rule:nonzero;stroke:none"
             id="path1022"
             inkscape:connector-curvature="0" /></g><g
           id="g1024"
           transform="translate(709.123,844.3589)"><path
             d="m 0,0 c 2.992,1.67 5.967,3.373 8.977,5.01 2.981,1.623 6.098,5.163 8.977,3.549 C 19.452,7 16.143,6.044 15.022,5.074 13.405,3.674 11.319,2.605 9.541,1.419 7.105,-0.204 4.461,-1.365 1.924,-2.815 c -3.47,-1.982 -6.738,-4.762 -10.382,-6.389 -0.939,-0.419 -3.038,-1.249 -3.961,-0.942 -2.962,0.983 0.438,3.731 1.564,4.51 C -7.583,-3.375 -3.534,-1.835 0,0"
             style="fill:#000000;fill-opacity:1;fill-rule:nonzero;stroke:none"
             id="path1026"
             inkscape:connector-curvature="0" /></g><g
           id="g1028"
           transform="translate(678.853,768.3706)"><path
             d="m 0,0 c -9.788,-8.39 -20.083,-16.741 -31.368,-23.095 -3.208,-1.806 -6.319,-2.979 -9.131,-5.369 -1.236,-1.051 -2.389,-2.115 -3.55,-3.247 -1.195,-1.165 -3.716,-4.152 -5.472,-4.375 -0.484,-0.061 -1.274,0.328 -1.417,1.153 -0.112,0.653 0.396,1.012 0.92,1.649 0.846,1.026 1.628,2.002 2.603,2.891 2.599,2.371 5.215,4.884 7.996,7.037 5.794,4.487 12.224,8.206 18.189,12.466 5.412,3.866 10.567,8.147 15.826,12.217 5.207,4.03 10.102,7.525 15.777,10.851 5.404,3.168 11.186,5.092 17.005,7.406 1.076,0.428 4.41,2.387 5.475,2.077 0.317,-0.092 0.96,-1.379 0.968,-1.791 0.016,-0.809 -0.175,-0.792 -0.965,-1.489 -2.668,-2.355 -5.378,-3.358 -8.64,-4.812 C 20.083,11.727 15.93,10.076 11.719,8.429 8.741,7.265 5.75,5.875 3.316,3.73 2.099,2.658 1.08,1.214 0,0"
             style="fill:#000000;fill-opacity:1;fill-rule:nonzero;stroke:none"
             id="path1030"
             inkscape:connector-curvature="0" /></g><g
           id="g1032"
           transform="translate(646.0776,813.8799)"><path
             d="M 0,0 C 2.104,0.891 4.228,1.742 6.297,2.71 7.352,3.204 8.633,4.157 9.78,4.369 10.825,4.562 12.739,5.582 13.361,3.967 13.505,2.354 11.873,1.468 10.239,0.818 7.733,-0.178 6.121,-1.806 4.047,-3.471 c -3.448,-2.77 -7.775,-3.788 -11.534,-6.05 -2.676,-1.611 -4.799,-3.715 -7.787,-4.667 -1.176,-0.375 -1.763,-0.933 -2.648,-0.116 -0.332,0.307 -0.942,1.788 -0.834,2.231 0.397,1.618 3.155,2.415 4.475,2.866 1.844,0.631 3.7,1.461 5.417,2.39 C -5.303,-4.891 -2.924,-2.791 0,0"
             style="fill:#000000;fill-opacity:1;fill-rule:nonzero;stroke:none"
             id="path1034"
             inkscape:connector-curvature="0" /></g><g
           id="g1036"
           transform="translate(1110.3115,1012.3838)"><path
             d="m 0,0 c 1.728,0.432 3.579,1.165 5.348,1.337 1.607,0.157 3.628,-0.253 5.226,-0.482 1.043,-0.149 3.753,-0.456 4.322,-1.242 0.188,-0.259 0.06,-1.944 -0.098,-2.155 C 14.39,-3.085 12.077,-3.305 11.38,-3.48 7.646,-4.42 3.651,-4.758 -0.153,-5.359 c -2.878,-0.454 -6.524,-2.764 -9.035,-1.218 -3.346,2.059 0.315,3.578 2.797,4.501 C -4.299,-1.299 -2.119,-0.706 0,0"
             style="fill:#000000;fill-opacity:1;fill-rule:nonzero;stroke:none"
             id="path1038"
             inkscape:connector-curvature="0" /></g><g
           id="g1040"
           transform="translate(1164.8643,1022.6367)"><path
             d="m 0,0 c 2.81,1.112 5.687,2.118 8.448,3.344 2.289,1.017 4.308,2.68 6.382,4.082 2.052,1.387 4.066,2.901 6.204,4.146 2.569,1.496 6.493,2.978 7.21,2.163 C 28.85,13.048 28.235,11.104 27.748,10.371 27.081,9.367 24.946,8.439 23.971,7.766 21.9,6.338 19.72,5.51 17.394,4.528 14.995,3.515 13.285,2.704 11.243,1.128 9.275,-0.389 7.418,-1.97 5.237,-3.157 -0.172,-6.104 -5.82,-9.876 -11.606,-11.994 c -1.373,-0.502 -2.855,-0.82 -4.256,-1.233 -0.982,-0.289 -2.678,-1.158 -3.719,-1.066 -0.382,0.033 -2.933,1.251 -3.034,1.571 -0.481,1.52 3.035,2.532 3.864,2.788 3.125,0.963 6.883,1.866 9.691,3.543 1.633,0.975 3.057,2.281 4.724,3.234 C -2.783,-2.27 -1.376,-1.138 0,0"
             style="fill:#000000;fill-opacity:1;fill-rule:nonzero;stroke:none"
             id="path1042"
             inkscape:connector-curvature="0" /></g><g
           id="g1044"
           transform="translate(1146.0996,992.0718)"><path
             d="m 0,0 c -1.525,-0.085 -2.279,1.097 -2.6,1.733 -0.279,0.554 0.037,0.765 0.464,1.478 1.265,2.108 1.328,2.534 3.636,3.127 1.728,0.445 3.614,0.71 5.193,1.526 1.651,0.854 3.183,2.03 4.763,3.019 1.413,0.886 3.876,3.475 5.296,1.297 C 18.458,9.563 14.857,7.942 13.072,6.986 10.899,5.822 8.338,5.746 6.299,4.399 4.162,2.988 1.619,-0.016 0,0"
             style="fill:#000000;fill-opacity:1;fill-rule:nonzero;stroke:none"
             id="path1046"
             inkscape:connector-curvature="0" /></g><g
           id="g1048"
           transform="translate(1144.7461,971.3726)"><path
             d="M 0,0 C 3.098,2.434 8.156,5.658 9.285,4.062 11.099,2.385 6.079,-4.064 2.029,-5.432 -0.205,-6.187 -3.299,-6.252 -2.502,-2.838 -2.225,-1.651 -0.945,-0.872 0,0"
             style="fill:#000000;fill-opacity:1;fill-rule:nonzero;stroke:none"
             id="path1050"
             inkscape:connector-curvature="0" /></g><g
           id="g1052"
           transform="translate(1177.0518,997.4883)"><path
             d="m 0,0 c 5.407,3.958 10.718,7.86 16.422,11.371 2.699,1.661 5.362,3.484 8.161,4.964 1.338,0.707 2.889,1.404 4.326,1.863 1.406,0.449 2.545,1.436 3.978,-0.207 C 33.667,16.094 25.583,12.69 21.667,10.06 17.845,7.492 14.147,4.674 10.446,1.935 6.147,-1.248 2.064,-4.538 -1.945,-8.076 c -1.576,-1.39 -3.117,-2.819 -4.671,-4.231 -0.687,-0.624 -1.404,-1.383 -2.188,-1.878 -0.795,-0.502 -2.173,-0.98 -2.879,0.386 -1.34,2.594 4.314,6.505 5.825,7.837 C -3.768,-4.12 -1.896,-2.044 0,0"
             style="fill:#000000;fill-opacity:1;fill-rule:nonzero;stroke:none"
             id="path1054"
             inkscape:connector-curvature="0" /></g><g
           id="g1056"
           transform="translate(1173.957,959.1851)"><path
             d="m 0,0 c -0.977,-1.419 -3.232,-5.817 -4.843,-5.846 -3.851,-0.068 -2.298,4.723 -0.806,6.347 3.32,3.614 5.519,8.311 9.305,11.485 1.642,1.376 3.362,2.648 4.944,4.092 1.355,1.238 3.449,4.162 5.314,4.707 3.088,0.903 0.518,-3.023 -0.022,-4.053 C 12.953,14.946 12.184,13.094 10.859,11.578 7.386,7.603 3.62,3.84 0,0"
             style="fill:#000000;fill-opacity:1;fill-rule:nonzero;stroke:none"
             id="path1058"
             inkscape:connector-curvature="0" /></g><g
           id="g1060"
           transform="translate(1168.3467,940.8076)"><path
             d="m 0,0 c 2.798,3.127 5.548,6.295 8.478,9.3 3.248,3.332 7.787,10.002 10.287,9.658 1.084,-0.043 1.275,-1.996 0.024,-3.301 C 17.295,14.1 15.78,12.549 14.362,10.922 12.23,8.476 10.39,5.719 8.386,3.162 4.323,-2.021 -4.078,-12.375 -5.224,-11.8 c -1.518,0.2 -0.423,2.3 -0.186,3.175 0.254,0.936 1.323,1.998 1.879,2.794 C -2.229,-3.963 -1.13,-1.976 0,0"
             style="fill:#000000;fill-opacity:1;fill-rule:nonzero;stroke:none"
             id="path1062"
             inkscape:connector-curvature="0" /></g><g
           id="g1064"
           transform="translate(1200.2656,979.1104)"><path
             d="m 0,0 c 1.95,2.152 3.806,4.469 5.92,6.456 1.198,1.127 2.519,2.128 3.753,3.217 1.557,1.375 2.173,2.552 3.676,1.547 C 14.086,10.465 12.506,8.379 11.269,6.94 9.678,5.09 7.826,3.52 6.085,1.815 3.458,-0.758 0.251,-3.718 -1.284,-7.053 c -1.114,-2.419 -1.891,-4.166 -3.757,-6.096 -1.747,-1.807 -2.5,0.469 -1.889,2.249 1.451,4.229 4.676,7.18 6.93,10.9"
             style="fill:#000000;fill-opacity:1;fill-rule:nonzero;stroke:none"
             id="path1066"
             inkscape:connector-curvature="0" /></g><g
           id="g1068"
           transform="translate(1213.0332,1000.0029)"><path
             d="m 0,0 c 3.043,2.059 6.078,4.033 8.899,6.384 1.355,1.129 2.782,2.178 4.05,3.404 1.329,1.284 3.321,2.612 1.753,4.527 C 12.14,15.35 10.383,13.816 8.331,12.072 6.447,10.471 4.515,9.089 2.481,7.677 0.473,6.282 -1.003,5.163 -2.6,3.332 -4.934,0.655 -7.478,-1.759 -6.384,-4.449 -4.158,-5.521 -2.101,-2.246 0,0"
             style="fill:#000000;fill-opacity:1;fill-rule:nonzero;stroke:none"
             id="path1070"
             inkscape:connector-curvature="0" /></g><g
           id="g1072"
           transform="translate(1219.6113,983.5601)"><path
             d="M 0,0 C -1.444,0.819 -0.535,2.809 -0.154,3.511 0.401,4.538 2.729,5.65 3.649,6.333 4.534,6.99 5.411,7.651 6.325,8.267 8.113,9.472 8.732,10.333 9.865,8.512 11.019,7.751 0.694,-0.656 0,0"
             style="fill:#000000;fill-opacity:1;fill-rule:nonzero;stroke:none"
             id="path1074"
             inkscape:connector-curvature="0" /></g><g
           id="g1076"
           transform="translate(1248.6279,998.4556)"><path
             d="M 0,0 C 0.656,0.348 1.025,0.909 1.059,1.455 1.106,2.244 1.033,2.586 1.033,2.586 0.264,3.996 -1.259,3.69 -2.575,3.675 -3.896,3.661 -4.911,3.395 -6.018,2.529 -7.091,1.69 -8.23,0.728 -7.544,-0.581 -7.069,-1.737 -2.591,-0.432 0,0"
             style="fill:#000000;fill-opacity:1;fill-rule:nonzero;stroke:none"
             id="path1078"
             inkscape:connector-curvature="0" /></g><g
           id="g1080"
           transform="translate(1212.1611,1037.377)"><path
             d="m 0,0 c -1.637,0.363 -3.119,-0.002 -2.696,1.922 0.409,1.861 2.447,2.225 4.064,2.97 2.277,1.049 5.039,2.16 7.511,2.56 5.369,0.871 11.187,0.086 16.638,0.4 3.418,0.196 6.955,0.48 10.375,0.234 C 36.741,8.026 38.65,7.875 39.165,7.135 39.277,6.974 39.426,5.742 38.962,5.359 38.607,5.067 37.851,4.825 37.61,4.808 31.446,4.374 25.507,2.356 19.331,2.205 15.744,2.117 12.492,2.932 8.911,2.469 5.837,2.073 2.951,0.939 0,0"
             style="fill:#000000;fill-opacity:1;fill-rule:nonzero;stroke:none"
             id="path1082"
             inkscape:connector-curvature="0" /></g><g
           id="g1084"
           transform="translate(1263.1279,1022.2339)"><path
             d="m 0,0 c 0.47,1.78 1.93,7.15 -0.74,7.65 -2.7,0.49 -2.45,-5.48 -2.861,-6.98 -0.37,-1.38 -1.16,-2.68 -1.379,-4.09 -0.3,-2.02 -0.75,-3.25 1.45,-3.84 2.399,0.6 2.819,4.57 3.53,7.26 m 10.039,-8.38 c 0.391,1.28 0.171,4.26 -1.449,4.35 -1.29,0.06 -3.07,-2.5 -3.651,-3.6 -0.379,-0.71 -0.78,-1.25 -0.46,-2.2 0.3,-0.87 0.67,-1.32 1.781,-1.32 1.66,-0.25 3.2,0.85 3.779,2.77 M 16.42,8.35 C 17.1,0.33 16.239,-9.87 11.949,-16.91 7.5,-24.19 -0.44,-26.41 -8.04,-28.67 c 2.63,2.69 6.81,6 6.89,10.14 0.04,1.91 -0.661,3.65 -2.47,4.16 -2.28,0.65 -3.941,1.11 -6.28,1.05 -3.701,-0.1 -7.451,-0.9 -10.861,-2.37 -3.219,-1.39 -5.8,-4.34 -8.7,-6.34 -1.399,-0.97 -3.01,-1.52 -4.55,-2.26 -1.2,-0.57 -2.91,-2.24 -4.069,-2.39 -3.141,-0.4 -1.391,2.04 -0.351,3.08 1.311,1.31 2.601,2.27 4.13,3.33 6.2,4.32 13.42,7.57 19.101,12.59 1.25,1.1 1.989,2.68 2.87,4.1 0.83,1.31 2.309,3.27 2.309,4.92 0,0.82 0.05,1.22 -1.25,1.23 -0.669,0 -1.769,-0.59 -2.389,-0.84 -2.09,-0.83 -3.611,-2.44 -4.04,-0.63 -0.151,0.63 0.16,1.16 0.309,1.3 1.701,1.61 5.76,2.42 6.8,4.69 0.83,1.81 -0.569,1.48 -1.97,1.25 C -13.87,8.13 -15,7.95 -16.221,7.5 c -5.29,-1.95 -10.37,-4.63 -15.92,-5.71 -0.78,-0.15 -2.53,-0.62 -2.929,-0.04 -0.91,1.32 1.21,2.65 1.99,3.18 2.18,1.5 4.619,2.45 7.05,3.43 4.559,1.86 9.46,2.59 13.87,4.74 2.33,1.13 5.54,2.64 7.309,4.51 1.741,1.83 2.201,4.51 2.601,6.87 0.64,-0.13 1.279,-0.23 1.93,-0.31 2.03,-0.25 3.939,0.13 5.96,0.07 2.95,-0.09 7.04,-3.02 8.42,-5.64 1.62,-3.1 2.07,-6.82 2.36,-10.25"
             style="fill:#000000;fill-opacity:1;fill-rule:nonzero;stroke:none"
             id="path1086"
             inkscape:connector-curvature="0" /></g><g
           id="g1088"
           transform="translate(1037.7852,803.6211)"><path
             d="m 0,0 c 6.22,5.17 12.65,9.92 18.58,15.46 6.56,6.12 12.89,12.41 19.21,18.78 5.03,5.07 10.34,10.15 14.87,15.66 0.53,0.65 1.06,1.3 1.569,1.96 L 56.31,50.19 C 54.93,48.52 53.91,46.43 52.42,44.87 49.229,41.52 46.04,38.17 42.85,34.82 37.94,29.66 32.64,24.85 27.52,19.89 23.26,15.77 19.01,11.46 14.4,7.75 11.14,5.13 7.64,2.79 4.31,0.28 1.83,-1.59 -0.09,-3.82 -3.43,-3.55 -2.79,-1.87 -1.35,-1.12 0,0"
             style="fill:#000000;fill-opacity:1;fill-rule:nonzero;stroke:none"
             id="path1090"
             inkscape:connector-curvature="0" /></g><g
           id="g1092"
           transform="translate(1042.4473,857.8843)"><path
             d="m 0,0 c 6.49,4.08 12.34,9.32 19.04,13.02 8.351,4.59 16.07,9.59 23.97,14.94 6.671,4.52 12.53,10.42 18.46,15.84 2.881,2.63 5,6.09 7.341,9.2 0.899,1.2 2.599,2.74 3.059,4.17 0.521,1.61 0.231,4.77 -1.8,5.3 -0.61,0.16 -2.83,-0.69 -3.4,-1 -0.62,-0.33 -1.149,-1.04 -1.649,-1.52 -1.42,-1.37 -2.831,-2.73 -4.261,-4.09 -1.5,-1.43 -2.94,-2.96 -4.619,-4.18 -0.931,-0.67 -2.561,-2.28 -3.661,-2.5 -0.83,-0.17 -0.9,-0.03 -1.82,0.54 1.45,2.23 3.401,2.86 5.39,4.54 1.99,1.67 3.65,3.98 5.41,5.89 1.7,1.85 1.48,3.59 1.58,6.14 0.09,2.2 0.54,5.12 0.021,7.24 -0.811,3.32 -4.651,7.65 -8.071,7.95 -2.69,0.24 -3.82,-1.95 -6.099,-3.05 -1.481,-0.72 -3.681,-1.17 -4.401,0.64 -0.86,2.2 1.6,3.96 0.96,6.24 -0.519,1.81 -2.9,2.75 -4.58,3.72 -2.97,1.71 -8.45,1.08 -11.46,-0.3 C 21.311,85.02 14.311,79.49 6.54,75.21 2.99,73.25 -0.88,71.88 -4.37,69.79 c -3.65,-2.18 -10.39,-8.06 -11.41,-6.47 -1.17,2.79 6.76,6.94 8.69,8.23 3.861,2.58 7.771,5.06 11.72,7.49 6.57,4.06 13.15,8.17 19.79,12.11 1.53,0.91 3.11,1.74 4.67,2.61 1.471,0.81 3.94,1.63 5.091,2.86 2.329,2.5 2.939,7.7 1.84,10.69 -0.781,2.12 -1.051,3.21 -2.741,4.63 -1.74,1.46 -2.79,2.64 -4.099,4.51 -1,1.43 -2.231,3.55 -3.681,4.52 -1.53,1.03 -3.72,1.15 -5.5,1.1 -4.06,-0.12 -7.33,-2.4 -10.8,-4.28 -3.21,-1.75 -8.84,-5.44 -9.76,-4.87 -1.64,1.86 3.53,3.41 4.68,4 2.061,1.06 5.87,3.85 4.731,4.63 -1.051,0.89 -5.25,-0.56 -7.951,-1.59 -2.49,-0.96 -7.35,-3.8 -7.61,-2.43 -0.49,2.63 7.03,4.54 8.851,5.13 1.659,0.55 3.25,1.31 4.909,1.85 1.85,0.6 3.92,0.67 5.74,1.37 1.44,0.55 2.53,1.1 1.66,2.72 -0.57,1.06 -0.429,0.92 -1.8,0.96 -0.58,0.01 -1.14,0.02 -1.719,0.01 -1.511,-0.03 -3.221,0.12 -4.691,-0.2 -1.83,-0.39 -3.75,-1.4 -5.49,-2.09 -5.42,-2.13 -10.76,-4.62 -15.8,-7.56 -5.679,-3.32 -11.349,-6.31 -17.21,-9.28 -2.95,-1.49 -5.849,-3.07 -8.809,-4.52 -1.571,-0.76 -8.41,-4.82 -9.051,-3.35 -0.8,1.64 7.08,3.65 10.681,5.42 6.159,3.03 11.79,6.89 17.719,10.36 3.09,1.8 6.09,3.66 9.09,5.62 2.941,1.91 5.151,4.17 7.64,6.66 12.46,2.08 25.08,3.29 37.62,4.93 -0.609,4.65 -0.88,7.83 1.721,11.96 0.369,0.58 0.739,1.15 1.129,1.7 h 0.01 c -0.51,-3.45 -0.74,-6.11 -0.15,-9.58 0.46,-2.7 4.15,-4.3 6.74,-4.3 6.41,0 12.99,3.17 19.16,4.96 3.441,1 8.96,3.16 10.23,1.98 0.75,-1.27 0.27,-1.77 -1.27,-2.34 -0.96,-0.36 -1.95,-0.64 -2.91,-0.99 -2.439,-0.9 -4.68,-1.78 -7.229,-2.24 -4.701,-0.87 -9.321,-2.06 -13.88,-3.48 -2.451,-0.76 -4.891,-1.49 -7.271,-2.44 -1.61,-0.64 -1.5,-0.57 -1.639,-2.34 -0.081,-1.07 -0.101,-1.95 0.009,-3.01 0.3,-2.83 0.361,-4.56 1.901,-6.87 1.639,-2.47 2.539,-4.06 5.039,-5.55 1.301,-0.77 1.69,-1.29 3.02,-0.97 1.02,0.25 2.111,0.97 3.05,1.45 2.601,1.34 4.11,2.74 6.37,4.54 1.56,1.24 3.93,3.17 6.1,3.07 3.301,-0.15 -1.159,-3.06 -2.27,-3.85 -1.8,-1.28 -3.679,-2.49 -5.61,-3.56 -1.75,-0.98 -5.06,-2.19 -5.67,-4.26 -1.21,-4.1 4.23,-4.41 6.88,-3.73 1.96,0.52 4.11,1.91 5.73,3.15 4.58,3.52 9.12,6.91 13.54,10.63 1.93,1.62 3.951,3.11 5.94,4.64 0.93,0.71 1.841,1.54 2.83,2.17 1.721,1.09 3.56,1.64 4.58,0.69 0.79,-1.06 -0.45,-3.07 -1.14,-4.05 -0.81,-1.16 -2.82,-2.02 -3.969,-2.88 -2.691,-2.01 -5.33,-4.1 -8,-6.15 -4.521,-3.48 -9.361,-8.06 -12.021,-13.19 -1.229,-2.38 -0.92,-5.62 1,-7.6 1.59,-1.62 6.09,-4.5 8.3,-4.34 2.06,0.16 1.69,1.19 2.65,2.78 0.81,1.36 2.031,2.89 3.13,4.02 2.03,2.08 5.03,3.37 7.651,4.56 0.96,0.44 3.359,1.66 4.359,1.25 0.24,-0.1 0.761,-1.39 0.66,-1.66 -0.14,-0.36 -1.78,-0.89 -2.12,-1.06 -2.74,-1.37 -5.09,-2.87 -7.37,-4.97 -2.42,-2.22 -3.96,-4.4 -4.4,-7.73 -0.43,-3.25 0.09,-6.8 1.79,-9.67 1.28,-2.17 4.371,-4.35 6.98,-3.95 3.04,0.47 5.21,2.88 6.79,5.4 0.91,1.45 2.21,7.46 4.75,7.12 3.771,-0.51 -0.64,-5.36 -1.52,-6.91 -1.37,-2.45 -3.66,-5.66 -4.04,-8.47 -0.11,-0.8 -0.18,-2.14 0,-2.92 0.25,-1.05 -0.22,-0.81 1.04,-1.03 1.46,-0.26 2.96,0.82 4.06,1.78 2.5,2.16 4.51,5.35 6.641,7.88 1.67,1.98 3.329,3.99 5.25,5.73 1.479,1.34 2.019,2.25 4.009,1.99 0.991,-0.42 -1.58,-3.44 -2.9,-4.83 -1.83,-1.92 -3.93,-3.6 -5.689,-5.57 -1.551,-1.72 -2.861,-3.72 -4.261,-5.56 -1.6,-2.09 -1.72,-3.05 -2.029,-5.73 1.839,-0.13 1.879,-0.23 2.899,1.23 1.26,1.82 2.53,3.64 3.79,5.47 1.66,2.38 3.601,4.57 5.51,6.75 1.08,1.22 2.21,2.4 3.31,3.6 0.69,0.75 2.18,2.87 3.16,3.16 2.03,0.59 1.39,-2.07 0.82,-3.15 -0.68,-1.25 -2.489,-2.41 -3.529,-3.39 -2.311,-2.18 -4.161,-4.81 -6.151,-7.27 -1.84,-2.28 -4.269,-4.77 -5.61,-7.37 -0.42,-0.81 -1.199,-3.03 -0.86,-3.9 0.36,-0.94 2.88,-2.13 3.89,-1.67 0.91,0.43 1.91,2.68 2.5,3.55 0.99,1.46 1.82,3.31 3.021,4.6 1.059,1.14 2.71,2.8 4.219,1.78 1.01,-0.68 0.66,-0.01 0.5,-1.16 -0.15,-1.11 -0.94,-2.38 -1.36,-3.43 -1.02,-2.6 -3.64,-6.65 -2.21,-9.23 3.77,2.58 6.02,6.37 9.01,9.77 3.551,4.04 7.2,8.01 10.65,12.13 3.67,4.39 7,9.07 10.71,13.42 2.64,3.1 5.51,6.65 8.691,9.18 4.83,3.83 10.229,7.1 15.29,10.61 -2.861,-3.23 -5.241,-6.85 -8.231,-9.99 -2.88,-3.02 -5.91,-5.84 -8.16,-9.39 -5.279,-8.33 -9.819,-17.26 -14.79,-25.8 -4.17,-7.16 -7.79,-15.04 -14.23,-20.51 -1.62,-1.38 -3.39,-2.72 -5.35,-3.57 -2.1,-0.9 -4.409,-1.07 -6.58,-1.75 -1.73,-0.53 -3.97,-1.09 -5.449,-2.16 -1.5,-1.08 -2.581,-3.39 -3.371,-5.02 C 96.28,19.14 93.23,10.05 89.16,1.45 87.22,-2.65 84.42,-6 81.97,-9.77 c -2.49,-3.84 -5.48,-6.18 -9.15,-8.81 -1.48,-1.07 -2.82,-2.26 -4.11,-3.51 0.71,1.65 2.141,3.75 2.04,5.54 -0.149,2.63 -2.89,0.4 -4.189,-0.43 -1.931,-1.23 -3.781,-2.54 -5.761,-3.69 -3.5,-2.04 -6.64,-4.5 -9.9,-6.92 -7.469,-5.56 -14.839,-11.16 -22.11,-16.98 -6.359,-5.09 -13.13,-9.92 -19.16,-15.39 -6.5,-5.9 -12.449,-12.69 -18.42,-19.13 -0.73,-0.78 -2.67,-3.74 -3.74,-2.47 -1.079,1.28 1.33,4.11 2.171,5.05 2.71,3.04 5.42,6.08 8.159,9.09 5.53,6.06 11.58,11.33 17.75,16.74 3.96,3.47 7.83,7.09 11.9,10.44 3.31,2.73 7,5.07 10.49,7.56 6.21,4.43 12.22,9.26 18.68,13.32 3.76,2.36 7.58,4.64 11.271,7.1 3.719,2.48 7.409,4.6 10.13,8.15 1.25,1.61 2.969,3.28 3.689,5.18 0.431,1.15 0.94,2.52 0.15,3.24 C 80.95,5.15 80.15,4.62 79.23,4.07 77.54,3.08 76.561,1.21 75.01,-0.05 73.28,-1.45 72.22,-2.64 70,-3.01 c 0.101,2.6 0.78,3.48 2.2,5.69 0.85,1.31 1.651,2.67 2.49,3.99 1.09,1.7 2.61,3.33 2.98,5.37 0.38,2.1 -0.96,2.89 -2.63,1.64 -0.57,-0.43 -1.07,-0.94 -1.54,-1.5 l -2.08,1.67 c 4.73,5.95 9.02,12.3 13.13,18.67 1.07,1.66 2.67,3.45 3.42,5.28 0.421,1.03 1.28,4.55 0.93,5.54 -0.64,1.82 -3.11,1.56 -4.469,0.97 C 82.51,43.48 81.141,41.58 79.84,40.05 75,34.34 70.34,28.38 65.061,23.05 61.92,19.89 58.5,16.85 55.59,13.48 54.36,12.06 53.47,10.32 52.181,8.96 50.61,7.3 48.55,5.92 46.79,4.45 43.63,1.81 40.53,-0.89 37.41,-3.57 c -2.96,-2.54 -6.29,-4.3 -9.49,-6.51 -1.68,-1.16 -3.21,-2.53 -4.88,-3.7 -1.229,-0.84 -3.359,-2.47 -3.8,-0.16 -0.48,2.51 6.73,7.07 8.5,8.34 3.04,2.19 6.821,3.49 9.73,5.84 3.07,2.46 5.72,6.01 8.341,8.95 -1.96,1.31 -3.38,0.13 -5.13,-1.14 C 39.24,7.01 37.82,5.94 36.4,4.88 33.271,2.55 30.431,0.35 26.82,-1.18 25.75,-1.64 25.88,-1.92 24.98,-1.2 c -0.65,0.52 -0.91,1.11 -0.53,1.96 0.64,1.42 2.81,2.44 4.01,3.2 3.03,1.93 5.69,4.32 8.46,6.61 2.2,1.81 6.4,3.85 6.61,6.79 C 41.28,17.43 40.01,17.32 37.891,16.6 29.86,13.88 22.2,10.46 14.61,6.7 7.3,3.08 0.45,-1.86 -6.17,-6.61 -13.09,-11.58 -19.68,-17 -26.62,-21.95 c -1.449,-1.04 -3.22,-2.89 -4.89,-3.44 -2.57,-0.86 -0.42,1.74 0.42,2.49 3.39,3.07 6.96,5.78 10.67,8.44 3.16,2.26 6.05,4.84 9.22,7.11 3.64,2.61 7.41,4.96 11.2,7.35 m 119.431,52.42 c -2.231,-0.78 -4.451,-2.36 -5.37,-4.61 -0.341,-0.84 -0.92,-3.11 -0.641,-3.9 0.62,-1.75 2.28,-1.32 3.61,-1.13 1.69,1.49 4.43,3.09 5.27,5.13 1.16,2.78 0.721,5.77 -2.869,4.51"
             style="fill:#000000;fill-opacity:1;fill-rule:nonzero;stroke:none"
             id="path1094"
             inkscape:connector-curvature="0" /></g><g
           id="g1096"
           transform="translate(368.1152,440.7207)"><path
             d="M 0,0 C 0.15,0.19 0.06,2.25 0,2.55 -0.24,3.87 -1.24,4.971 -2.62,5.271 -4.46,5.67 -5.64,4.4 -5.58,2.63 c 0.06,-1.84 1.75,-2.37 3.31,-3.15 0.44,0.1 2,0.17 2.27,0.52 m 0.98,14.76 c 0.32,1.27 0.34,3.08 -0.78,3.72 -1.53,0.871 -3.08,-0.129 -3.55,-1.56 -0.54,-1.67 -0.04,-2.88 0.77,-4.31 1.17,-0.45 1.33,-0.61 2.28,0.21 0.57,0.491 1.08,1.18 1.28,1.94 M 9.21,-10.81 C 9.53,-9.29 8.66,-8.22 7.34,-7.79 6.65,-7.569 5.73,-7.34 5.01,-7.39 3.86,-7.46 3.89,-7.68 3.62,-8.479 3,-10.3 3.82,-11.3 5.17,-12.2 c 1.62,-0.36 3.57,-0.76 4.04,1.39 M -7.51,74.181 c 1.85,1.09 1.04,-2.031 0.88,-2.781 -0.49,-2.14 -0.93,-4.29 -1.45,-6.42 -0.83,-3.35 -1.94,-6.65 -2.92,-9.95 -0.55,-1.849 -2.45,-6.969 0.48,-7.25 2.85,-0.259 5.72,5.79 6.89,7.67 1.91,3.071 3.27,6.43 4.85,9.68 0.79,1.63 1.48,3.591 2.53,5.06 C 5.04,72 6.33,73.83 8.22,72.891 10.74,72.25 4.06,60.811 0.77,55.65 -0.9,53.03 -2.03,50.3 -3.41,47.51 c -1.68,-3.39 -1.4,-6.34 1.98,-8.409 2.54,-1.561 5.54,-2.061 8.18,-0.5 2.73,1.599 4.59,4.29 7.22,5.949 1.35,0.86 2.8,0.73 2.24,-1.06 -0.42,-1.37 -1.87,-2.79 -2.8,-3.84 -1.16,-1.29 -2.21,-2.06 -2.16,-3.89 0.04,-1.81 0.58,-3.1 1.66,-4.44 1.62,-2 4.57,-4.679 7.33,-4.74 2.05,-0.04 7.29,4.601 8.76,2.2 1,-1.61 -1.21,-2.77 -2.24,-3.37 -1.52,-0.9 -2.86,-1.34 -3.17,-3.17 -0.2,-1.219 0.28,-3.84 1.1,-4.71 1.01,-1.08 2.61,-0.65 3.76,-0.23 12.12,4.52 23.76,10.091 36.11,14.051 6.11,1.96 12.02,4.54 18.16,6.389 1.48,0.441 8.03,2.981 8.98,1.281 0.94,-1.681 -0.89,-2 -1.95,-2.391 -1.8,-0.659 -3.6,-1.35 -5.4,-2.029 C 77.93,32.181 71.67,29.44 65.3,26.91 59.43,24.57 53.36,22.75 47.45,20.54 44.2,19.33 40.99,18 37.76,16.73 c -2.38,-0.94 -5.99,-2.02 -7.78,-3.86 -1.8,-1.849 -1.26,-6.43 0.37,-8.269 0.76,-0.861 2.43,-1.63 3.5,-2.071 1.99,-0.82 3.13,-1 5,-0.19 1.31,0.56 2.62,1.46 4.07,1.42 1.57,-0.039 2.11,-1.3 3.05,-2.48 2.05,-2.59 4.36,-3.429 7.61,-3.009 3.35,0.439 6.79,1.279 9.89,2.589 0.95,0.4 3.12,1.63 3.99,0.861 0.29,-0.261 0.47,-1.931 0.3,-2.231 -0.27,-0.48 -1.67,-0.75 -2.21,-0.969 -3.08,-1.291 -5.97,-3 -8.99,-4.42 -1.75,-0.821 -7.58,-2.401 -7.06,-4.971 0.55,-2.73 4.78,-3.64 7.1,-3.409 3.48,0.349 6.91,1.489 10.24,2.479 6.2,1.83 12.53,3.2 18.78,4.87 3.17,0.84 6.03,1.83 9.08,3.06 2.63,1.06 5.11,2.88 7.98,3.17 2.64,0.261 1.56,-1.36 0.06,-2.26 -1.27,-0.76 -2.63,-1.31 -3.98,-1.91 -3.01,-1.34 -5.95,-2.489 -9.07,-3.56 -6.41,-2.23 -13.02,-3.48 -19.56,-5.25 -2.67,-0.719 -5.57,-1.56 -8.02,-2.83 -1.75,-0.91 -1.67,-1.87 -1.37,-3.719 0.27,-1.63 0.95,-2.931 2.55,-3.531 1.42,-0.53 2.66,0.02 4.14,0.361 1.74,0.379 3.58,0.649 5.28,1.179 3.39,1.04 6.7,2.651 10,3.96 5.31,2.111 10.67,4.3 16.11,6.04 3.28,1.05 6.66,1.741 9.8,3.16 2.87,1.29 5.89,2.911 8.98,3.5 0.8,0.15 4.59,0.63 3.32,-1.64 -0.46,-0.82 -3.37,-1.36 -4.3,-1.72 -3.22,-1.21 -6.42,-2.51 -9.66,-3.66 -5.92,-2.12 -11.89,-3.92 -17.73,-6.25 -2.89,-1.149 -5.79,-2.31 -8.69,-3.449 -3.13,-1.241 -6.32,-2.061 -9.46,-3.211 -0.95,-0.35 -3.2,-1.09 -3.7,-1.88 -0.64,-1.02 0.65,-3.9 1.46,-4.5 2.36,-1.77 6.04,1.69 8.05,2.6 1.51,0.68 3.21,0.94 4.72,1.6 1.6,0.691 3.01,1.79 4.58,2.53 1.1,0.52 2.6,1.27 3.71,1 2.01,-0.5 0.62,-2.04 -0.37,-2.81 -2.88,-2.22 -6.55,-3.02 -9.75,-4.55 -1.18,-0.56 -3.33,-1.35 -2.54,-3.029 0.58,-1.2 2.75,-1.721 3.98,-1.781 2.55,-0.12 5.51,1.25 7.95,2.07 3.16,1.06 6.3,2.19 9.49,3.14 6.1,1.81 12.12,3.701 18.3,5.21 6.98,1.71 13.9,3.531 20.83,5.44 2.87,0.79 5.76,1.52 8.64,2.28 2.93,0.771 6.03,1.97 9.07,2.26 0.89,0.091 3.83,0.5 3.1,-1.13 -0.36,-0.81 -2.74,-1.3 -3.52,-1.54 -3.05,-0.96 -6.09,-1.92 -9.16,-2.81 -6.07,-1.77 -12.14,-3.77 -18.28,-5.31 -13.19,-3.31 -26.21,-6.73 -39.15,-10.94 -2.56,-0.839 -5.19,-1.57 -7.57,-2.839 -1.75,-0.931 -1.92,-1.071 -2.76,-2.831 -0.74,-1.56 -1.48,-3.11 -2.22,-4.669 -2.17,0.109 -4.33,0.309 -6.48,0.739 -5.07,1.02 -10.12,2.171 -15.18,3.261 -4.78,1.019 -8.4,2.66 -12.49,5.309 -8.2,5.3 -16.95,9.86 -25.39,14.78 -4,2.34 -8.2,4.361 -12.02,7.02 -3.39,2.36 -6.2,5.62 -9.16,8.5 -3.08,2.99 -4.35,7.19 -6.17,11 -2.11,4.42 -4.23,8.82 -6.08,13.35 -1.76,4.3 -3.87,8.55 -5.33,12.96 -1.49,4.47 -1.94,9.39 -2.56,14.04 -0.4,3.03 -0.66,6.07 -0.82,9.121 1.73,-2.5 3.65,-5.641 7.15,-4.841 1.89,0.43 2.37,0.801 2.9,2.48 0.69,2.2 1.37,4.401 2.06,6.6 0.88,2.801 1.75,5.6 2.63,8.4 0.58,1.87 1.12,3.75 1.75,5.611 0.34,0.989 0.9,3.33 1.74,3.83"
             style="fill:#000000;fill-opacity:1;fill-rule:nonzero;stroke:none"
             id="path1098"
             inkscape:connector-curvature="0" /></g></g></g><g
       id="g1100"><g
         id="g1102"
         clip-path="url(#clipPath1106)"><g
           id="g1108"
           transform="translate(401.2837,230.9043)"><path
             d="m 0,0 c -149.951,11.935 -249.09,53.467 -249.09,53.467 71.994,-55.517 160.832,-91.71 160.832,-91.71 -23.324,-27.007 -230.481,18.311 -230.481,18.311 55.732,-38.051 215.359,-74.945 369.313,-101.489 146.339,-25.23 151.175,12.887 144.468,25.512 -15.629,29.421 -106.672,22.168 -159.084,33.158 -15.132,3.174 -38.679,12.775 -37.169,29.679 8.086,90.547 -26.066,118.197 -4.04,134.523 40.775,30.225 297.851,31.238 410.805,30.568 123.308,-0.733 394.688,-34.731 389.558,-73.284 -4.711,-35.398 -31.607,-50.429 -30.561,-84.28 1.947,-62.981 15.392,-72.421 -62.899,-86.058 -91.12,-15.872 -101.122,-31.418 -100.61,-51.068 0.4,-15.322 49.695,-35.543 83.192,-21.185 64.604,27.691 130.442,43.094 178.053,24.514 51.705,-20.178 94.87,-26.555 146.442,-6.451 38.063,14.838 95.663,98.365 164.506,72.898 0,0 -42.693,25.629 -133.267,5.579 -12.34,-2.733 -71.552,-5.337 -102.707,-0.971 0,0 57.133,17.096 83.043,36.003 65.685,47.931 120.817,61.874 147.24,47.894 13.914,-7.36 -47.997,69.665 -197.735,-25.964 -16.173,-10.329 -64.41,-14.761 -108.516,2.042 -25.422,9.687 -67.889,16.505 -96.348,11.754"
             style="fill:none;stroke:#000000;stroke-width:3;stroke-linecap:butt;stroke-linejoin:miter;stroke-miterlimit:10;stroke-dasharray:none;stroke-opacity:1"
             id="path1110"
             inkscape:connector-curvature="0" /></g><g
           id="g1112"
           transform="translate(400.0723,197.832)"><path
             d="M 0,0 C 16.019,37.275 200.719,25.804 389.648,23.663 594.375,21.343 762.043,-1.432 767.424,-43.206"
             style="fill:none;stroke:#000000;stroke-width:3;stroke-linecap:butt;stroke-linejoin:miter;stroke-miterlimit:10;stroke-dasharray:none;stroke-opacity:1"
             id="path1114"
             inkscape:connector-curvature="0" /></g><g
           id="g1116"
           transform="translate(597.5571,131.8516)"><path
             d="M 0,0 C -3.858,22.774 -30.822,46.378 -23.608,92.965"
             style="fill:none;stroke:#000000;stroke-width:3;stroke-linecap:butt;stroke-linejoin:miter;stroke-miterlimit:10;stroke-dasharray:none;stroke-opacity:1"
             id="path1118"
             inkscape:connector-curvature="0" /></g><g
           id="g1120"
           transform="translate(1054.9443,202.5928)"><path
             d="m 0,0 c -26.333,-5.507 -63.044,2.385 -46.383,-51.544 12.533,-40.568 -4.542,-46.532 -6.247,-80.81"
             style="fill:none;stroke:#000000;stroke-width:3;stroke-linecap:butt;stroke-linejoin:miter;stroke-miterlimit:10;stroke-dasharray:none;stroke-opacity:1"
             id="path1122"
             inkscape:connector-curvature="0" /></g></g></g><g
       id="g1124"
       transform="translate(432.0244,267.1914)"
       style="fill:#000000;fill-opacity:1"><path
         d="M 0,0 2.085,47.174 18.766,4.431 Z m 4.17,64.375 h -7.818 l -7.175,-98.951 h 8.512 l 2.832,26.758 20.851,5.733 9.643,-26.062 7.558,1.824 z"
         style="fill:#000000;fill-opacity:1;fill-rule:nonzero;stroke:none"
         id="path1126"
         inkscape:connector-curvature="0" /></g><g
       id="g1128"
       transform="translate(498.7451,238.5225)"
       style="fill:#000000;fill-opacity:1"><path
         d="m 0,0 -25.02,100.081 8.079,2.346 L 7.037,10.165 31.796,12.771 33.1,5.213 Z"
         style="fill:#000000;fill-opacity:1;fill-rule:nonzero;stroke:none"
         id="path1130"
         inkscape:connector-curvature="0" /></g><g
       id="g1132"
       transform="translate(527.6748,282.0908)"
       style="fill:#000000;fill-opacity:1"><path
         d="M 0,0 5.734,40.614 20.329,2.042 Z m 5.473,62.768 -5.734,-1.564 -9.904,-85.225 h 7.819 l 2.085,15.898 h 25.542 l 12.771,-33.1 h 8.34 z"
         style="fill:#000000;fill-opacity:1;fill-rule:nonzero;stroke:none"
         id="path1134"
         inkscape:connector-curvature="0" /></g><g
       id="g1136"
       transform="translate(673.5195,231.3291)"
       style="fill:#000000;fill-opacity:1"><path
         d="M 0,0 -8.863,117.052 2.268,117.624 10.045,10.369 H 28.839 V -0.972 Z"
         style="fill:#000000;fill-opacity:1;fill-rule:nonzero;stroke:none"
         id="path1138"
         inkscape:connector-curvature="0" /></g><g
       id="g1140"
       transform="translate(707.8672,230.6807)"
       style="fill:#000000;fill-opacity:1"><path
         d="M 0,0 -9.397,118.921 2.592,119.245 10.693,10.369 26.571,10.046 26.895,0.324 Z"
         style="fill:#000000;fill-opacity:1;fill-rule:nonzero;stroke:none"
         id="path1142"
         inkscape:connector-curvature="0" /></g><g
       id="g1144"
       style="fill:#000000;fill-opacity:1"><g
         id="g1146"
         clip-path="url(#clipPath1150)"
         style="fill:#000000;fill-opacity:1"><g
           id="g1152"
           transform="translate(640.1396,287.8389)"
           style="fill:#000000;fill-opacity:1"><path
             d="M 0,0 C -5.099,30.158 -5.927,49.372 2.331,48.952 10.927,48.515 16.754,22.873 17.629,2.185 Z M 16.827,-28.206 C 16.651,-42.303 14.424,-46.172 10.898,-46.002 3,-45.62 3.328,-30.028 1.917,-8.419 l 22.6,2.443 C 23.5,21.736 22.555,40.87 14.323,51.518 3.74,65.207 -13.102,63.726 -11.9,44.3 l 7.645,-80.896 c 0,0 0.354,-20.171 15.57,-18.048 13.005,1.815 14.02,14.863 12.414,27.528 z"
             style="fill:#000000;fill-opacity:1;fill-rule:nonzero;stroke:none"
             id="path1154"
             inkscape:connector-curvature="0" /></g><g
           id="g1156"
           transform="translate(741.1294,289.3457)"
           style="fill:#000000;fill-opacity:1"><path
             d="M 0,0 C -5.099,30.158 -7.034,51.344 1.224,50.924 9.82,50.487 14.635,30.351 15.092,0.023 Z M 21.255,-29.982 C 19.691,-43.774 14.424,-46.172 10.898,-46.001 3,-45.619 3.328,-30.027 1.917,-8.418 L 22.103,-8.663 C 21.085,19.049 22.555,40.87 14.324,51.518 3.741,65.207 -13.102,63.727 -11.9,44.301 l 7.645,-80.897 c 0,0 0.354,-20.171 15.57,-18.047 13.005,1.815 15.395,10.232 16.979,23.252 z"
             style="fill:#000000;fill-opacity:1;fill-rule:nonzero;stroke:none"
             id="path1158"
             inkscape:connector-curvature="0" /></g><g
           id="g1160"
           transform="translate(602.9175,245.2676)"
           style="fill:#000000;fill-opacity:1"><path
             d="M 0,0 -2.36,37.973 C 16.518,39.745 38.353,3.729 0,0 m -5.944,90.151 c 19.093,-0.858 23.813,-40.76 2.36,-37.972 z M 10.243,44.469 c 17.462,14.985 7.298,69.196 -26.063,55.122 L -8.262,-6.745 c 48.449,0 41.701,39.095 18.505,51.214"
             style="fill:#000000;fill-opacity:1;fill-rule:nonzero;stroke:none"
             id="path1162"
             inkscape:connector-curvature="0" /></g><g
           id="g1164"
           transform="translate(792.0073,257.792)"
           style="fill:#000000;fill-opacity:1"><path
             d="m 0,0 0.237,78.883 c 0.091,14.105 10.672,18.824 20.44,17.303 10.914,-1.7 19.226,-13.075 18.834,-31.463 L 30.856,63.97 C 30.503,76.179 25.809,88.117 18.612,87.633 13.723,87.304 7.674,82.383 8.112,71.153 l 1.296,-74.54 c 3.568,-25.235 30.146,-15.592 28.425,14.721 l 8.828,0.331 C 49.671,-29.351 3.387,-47.789 0,0"
             style="fill:#000000;fill-opacity:1;fill-rule:nonzero;stroke:none"
             id="path1166"
             inkscape:connector-curvature="0" /></g><g
           id="g1168"
           transform="translate(863.3105,237.3535)"
           style="fill:#000000;fill-opacity:1"><path
             d="m 0,0 c -4.735,-0.451 -10.82,2.42 -11.951,22.775 l -3.609,53.218 c -2.226,19.243 -1.035,30.282 7.216,30.443 6.418,0.125 11.88,-6.075 14.433,-26.834 l 4.975,-48.87 C 12.898,12.195 9.88,0.941 0,0 M 18.269,29.644 12.64,84.927 c -2.888,23.484 -13.969,29.917 -21.229,29.775 -9.334,-0.182 -17.238,-12.438 -14.72,-34.206 l 4.478,-60.128 c 1.279,-23.027 4.877,-29.959 20.905,-28.931 11.492,0.736 18.269,17.237 16.195,38.207"
             style="fill:#000000;fill-opacity:1;fill-rule:nonzero;stroke:none"
             id="path1170"
             inkscape:connector-curvature="0" /></g><g
           id="g1172"
           transform="translate(883.3271,346.9004)"
           style="fill:#000000;fill-opacity:1"><path
             d="m 0,0 7.106,0.271 2.969,-75.014 c 1.029,-17.878 5.819,-32.376 11.432,-32.335 6.96,0.053 7.346,5.84 7.346,34.779 l -1.175,73.13 h 8.79 l 2.244,-77.612 C 38.525,-89.498 39.108,-117.044 22.815,-117.925 8.308,-118.709 3.025,-98.443 1.459,-76.969 0.301,-61.081 0,0 0,0"
             style="fill:#000000;fill-opacity:1;fill-rule:nonzero;stroke:none"
             id="path1174"
             inkscape:connector-curvature="0" /></g><g
           id="g1176"
           transform="translate(940.7373,293.2461)"
           style="fill:#000000;fill-opacity:1"><path
             d="M 0,0 V 44.138 C 16.759,39.624 24.921,4.838 0,0 m 6.2,-10.653 c 14.366,8.19 20.347,20.925 17.764,35.527 -2.378,13.442 -11.741,28.669 -31.747,28.398 l -1.997,-116.53 7.532,-0.743 1.144,44.946 c 13.061,-3.399 17.292,-43.871 17.292,-43.871 l 5.994,0.333 C 23.766,-23.349 6.2,-10.653 6.2,-10.653"
             style="fill:#000000;fill-opacity:1;fill-rule:nonzero;stroke:none"
             id="path1178"
             inkscape:connector-curvature="0" /></g><g
           id="g1180"
           transform="translate(998.3633,302.0713)"
           style="fill:#000000;fill-opacity:1"><path
             d="M 0,0 8.873,-1.157 C 13.888,21.411 5.401,35.877 -3.665,36.263 -12.563,36.642 -24.11,31.634 -26.426,13.31 l -3.471,-45.329 c -0.964,-28.354 4.687,-46.972 14.466,-45.907 19.482,2.122 18.903,18.132 19.288,32.02 l 6.173,-0.579 0.965,10.608 -23.34,2.701 -1.157,-9.259 8.102,-1.736 c -0.579,-12.923 -2.122,-20.831 -8.681,-20.059 -9.99,1.174 -6.943,31.054 -6.943,31.054 0,0 1.759,39.63 2.893,44.943 1.735,8.137 6.343,15.976 13.116,14.659 C 1.929,25.075 0.76,16.54 0,0"
             style="fill:#000000;fill-opacity:1;fill-rule:nonzero;stroke:none"
             id="path1182"
             inkscape:connector-curvature="0" /></g><g
           id="g1184"
           transform="translate(1031.2246,323.6602)"
           style="fill:#000000;fill-opacity:1"><path
             d="m 0,0 c 8.441,-1.68 13.521,-37.954 11.385,-58.55 l -18.5,-0.407 C -7.785,-28.378 -8.109,1.613 0,0 M 14.638,-82.945 C 11.994,-96.363 7.388,-95.761 3.862,-95.957 -7.115,-96.566 -9.659,-90.526 -7.929,-65.462 l 26.632,0.203 c 0.407,35.78 -2.426,52.46 -8.132,64.649 -4.472,9.554 -22.585,15.272 -24.215,-4.122 l -2.01,-73.538 c 0,0 0.813,-25.005 16.467,-26.428 13.077,-1.19 21.099,8.785 21.346,21.549 z"
             style="fill:#000000;fill-opacity:1;fill-rule:nonzero;stroke:none"
             id="path1186"
             inkscape:connector-curvature="0" /></g><g
           id="g1188"
           transform="translate(1053.3838,215.7549)"
           style="fill:#000000;fill-opacity:1"><path
             d="M 0,0 10.822,108.556 18.938,107.541 15.895,76.091 37.2,73.047 35.848,63.578 15.218,66.621 8.454,-0.338 Z"
             style="fill:#000000;fill-opacity:1;fill-rule:nonzero;stroke:none"
             id="path1190"
             inkscape:connector-curvature="0" /></g><g
           id="g1192"
           transform="translate(1085.8496,210.3437)"
           style="fill:#000000;fill-opacity:1"><path
             d="m 0,0 17.247,107.88 7.44,-1.692 L 20.967,77.781 37.199,74.738 35.847,66.96 19.614,69.665 8.792,-1.69 Z"
             style="fill:#000000;fill-opacity:1;fill-rule:nonzero;stroke:none"
             id="path1194"
             inkscape:connector-curvature="0" /></g><g
           id="g1196"
           transform="translate(1151.3203,299.6855)"
           style="fill:#000000;fill-opacity:1"><path
             d="m 0,0 c 7.907,-3.398 5.329,-39.936 -1.046,-59.637 l -18.18,3.451 C -13.519,-26.137 -7.597,3.266 0,0 m 4.717,-67.722 c 7.842,34.913 8.541,51.818 5.496,64.926 C 7.826,7.48 -8.7,16.842 -14.33,-1.789 L -31.596,-73.3 c 0,0 -7.358,-20.654 7.658,-25.303 12.542,-3.883 18.196,3.377 21.094,15.81 l -7.143,1.786 c -2.143,-6.889 -5.63,-9.567 -9.071,-8.779 -7.557,1.732 -9.224,3.251 -2.317,27.406 z"
             style="fill:#000000;fill-opacity:1;fill-rule:nonzero;stroke:none"
             id="path1198"
             inkscape:connector-curvature="0" /></g></g></g><g
       id="g1200"><g
         id="g1202"
         clip-path="url(#clipPath1206)"><g
           id="g1208"
           transform="translate(347.6182,940.9961)"><path
             d="m 0,0 c -2.57,0.912 -5.847,1.505 -8.047,3.093 -1.985,1.431 -5.608,4.698 -6.073,7.221 -0.245,1.33 -0.346,2.612 -0.265,3.986 0.06,1.015 0.617,2.648 0.916,3.607 0.954,3.065 2.802,6.086 4.142,8.998 4.771,10.364 9.737,20.365 15.6,30.174 13.952,23.339 27.946,46.652 41.963,69.952 2.308,3.837 4.608,7.604 7.123,11.306 1.842,2.712 3.148,4.432 6.59,4.821 2.12,0.239 5.537,0.043 7.489,-0.769 2.79,-1.159 5.529,-3.778 8.014,-5.476 2.846,-1.946 5.895,-3.75 8.606,-5.883 2.104,-1.655 4.192,-3.16 3.331,-6.033 -0.855,-2.852 -3.124,-6.175 -4.714,-8.702 -3.417,-5.434 -7.846,-10.359 -11.65,-15.533 C 70.323,97.087 68.191,92.927 65.851,89.018 59.932,79.129 53.589,69.416 48.384,59.127 42.129,46.763 36.192,34.172 29.596,21.987 26.425,16.129 22.897,10.439 19.555,4.677 18.483,2.831 17.497,0.902 16.249,-0.829 15.082,-2.446 14.694,-3.085 12.681,-3.282 11.169,-3.431 9.825,-3.052 8.31,-2.754 5.199,-2.142 2.896,-1.323 0,0 Z"
             style="fill:none;stroke:#000000;stroke-width:3;stroke-linecap:butt;stroke-linejoin:miter;stroke-miterlimit:10;stroke-dasharray:none;stroke-opacity:1"
             id="path1210"
             inkscape:connector-curvature="0" /></g><g
           id="g1212"
           transform="translate(409.5669,1084.1538)"><path
             d="m 0,0 c -0.467,4.904 0.808,11.566 6.182,13.345 4.803,1.591 10.876,-3.3 14.643,-5.725 10.818,-6.966 21.281,-14.165 31.268,-22.3 4.311,-3.512 8.166,-6.609 10.148,-11.947 1.99,-5.364 4.78,-10.636 5.592,-16.352 1.776,-12.505 -0.225,-25.3 -3.488,-37.368 -0.726,-2.688 -1.297,-5.432 -2.263,-8.048 -1,-2.706 -2.674,-4.73 -4.535,-6.888 -3.859,-4.474 -6.599,-9.607 -9.461,-14.741 -2.876,-5.16 -5.898,-10.178 -7.25,-15.999 -1.387,-5.974 -4.048,-10.536 -7.845,-15.32 -3.656,-4.607 -8.037,-8.401 -12.128,-12.596 -3.994,-4.096 -7.16,-8.868 -12.29,-11.609 -10.347,-5.529 -23.258,-7.528 -34.736,-4.939 -7.058,1.593 -13.914,3.185 -20.731,5.647 -6.496,2.345 -12.933,4.84 -19.342,7.412 -4.899,1.966 -13.679,4.636 -15.64,10.207 -1.029,2.923 -0.738,6.751 0.253,9.617 1.133,3.279 2.544,3.525 5.554,4.761"
             style="fill:none;stroke:#000000;stroke-width:3;stroke-linecap:butt;stroke-linejoin:miter;stroke-miterlimit:10;stroke-dasharray:none;stroke-opacity:1"
             id="path1214"
             inkscape:connector-curvature="0" /></g><g
           id="g1216"
           transform="translate(360.2993,937.7139)"><path
             d="m 0,0 c 6.504,-2.958 13.03,-6.175 20.029,-7.797 3.433,-0.795 6.823,-0.888 10.325,-1.025 3.364,-0.132 5.789,0.819 8.804,2.223 3.147,1.465 5.883,3.544 8.786,5.423 2.976,1.926 5.836,3.827 8.432,6.258 2.608,2.442 5.053,5.057 7.57,7.592 2.224,2.239 4.547,4.535 6.068,7.335 1.529,2.816 1.827,5.978 2.557,9.045 0.839,3.524 2.177,6.901 3.663,10.196 2.674,5.93 6.518,11.129 11.215,15.624 2.068,1.979 4.383,3.723 5.757,6.294 1.789,3.353 3.182,7.116 4.404,10.705 1.075,3.155 1.943,6.398 2.568,9.672 0.705,3.699 0.072,7.279 -0.336,10.974 -1.667,15.102 -11.83,28.04 -23,37.699"
             style="fill:none;stroke:#000000;stroke-width:3;stroke-linecap:butt;stroke-linejoin:miter;stroke-miterlimit:10;stroke-dasharray:none;stroke-opacity:1"
             id="path1218"
             inkscape:connector-curvature="0" /></g><g
           id="g1220"
           transform="translate(469.1738,991.3809)"><path
             d="m 0,0 17.548,-12.433 40.147,-26.159 23.072,-14.715 24.524,-16.531 54.136,-37.059 45.234,-31.154 13.131,-9.036"
             style="fill:none;stroke:#000000;stroke-width:3;stroke-linecap:butt;stroke-linejoin:miter;stroke-miterlimit:10;stroke-dasharray:none;stroke-opacity:1"
             id="path1222"
             inkscape:connector-curvature="0" /></g><g
           id="g1224"
           transform="translate(445.8892,947.4556)"><path
             d="m 0,0 32.174,-20.071 53.53,-36.182 48.895,-32.923 40.746,-28.033 21.535,-12.161"
             style="fill:none;stroke:#000000;stroke-width:3;stroke-linecap:butt;stroke-linejoin:miter;stroke-miterlimit:10;stroke-dasharray:none;stroke-opacity:1"
             id="path1226"
             inkscape:connector-curvature="0" /></g><g
           id="g1228"
           transform="translate(342.2598,958.0498)"><path
             d="m 0,0 c -0.29,-0.464 -0.825,-1.812 -1.292,-2.067 -1.345,-0.733 -1.467,0.406 -1.42,1.282 0.09,1.688 1.113,3.251 1.808,4.789 1.446,3.202 2.755,6.414 4.04,9.684 0.278,0.708 3.392,9.469 5.26,6.377 C 9.612,18.053 5.604,11.926 4.741,10.162 3.1,6.804 1.634,3.365 0,0"
             style="fill:#000000;fill-opacity:1;fill-rule:nonzero;stroke:none"
             id="path1230"
             inkscape:connector-curvature="0" /></g><g
           id="g1232"
           transform="translate(349.2354,950.8159)"><path
             d="m 0,0 c -2.666,1.863 -3.16,7.727 -1.55,13.822 1.569,3.089 0.792,-2.634 1.808,-3.229 2.304,-0.606 2.266,3.113 2.968,5.165 0.927,2.713 1.769,5.458 2.652,8.185 1.533,4.727 2.955,9.513 4.714,14.164 0.376,0.992 1.24,2.213 2.447,1.518 C 14.123,39 13.418,37.599 13.208,36.717 12.673,34.469 12.198,32.198 11.559,29.978 10.198,25.25 9.009,20.207 6.956,15.727 5.728,13.05 4.232,10.369 3.282,7.583 2.339,4.819 2.633,-0.256 0,0"
             style="fill:#000000;fill-opacity:1;fill-rule:nonzero;stroke:none"
             id="path1234"
             inkscape:connector-curvature="0" /></g><g
           id="g1236"
           transform="translate(358.0195,944.0991)"><path
             d="m 0,0 c -1.489,-0.604 -2.026,-0.086 -2.973,0.314 -1.597,0.677 -2.478,0.862 -2.259,2.908 0.265,2.474 1.553,4.51 3.553,4.916 1.603,0.3 1.083,-3.257 2.652,-2.634 C 1.59,5.749 1.99,7.04 2.325,7.621 2.989,8.773 4.221,11.801 6.2,10.851 8.153,9.914 5.007,5.249 4.392,4.004 3.201,1.595 2.392,1.244 0,0"
             style="fill:#000000;fill-opacity:1;fill-rule:nonzero;stroke:none"
             id="path1238"
             inkscape:connector-curvature="0" /></g><g
           id="g1240"
           transform="translate(368.2241,960.7627)"><path
             d="m 0,0 c -1.662,-0.03 -1.591,0.111 -1.038,2 0.251,0.852 0.476,1.899 0.662,2.78 0.355,1.682 0.769,4.87 3.298,4.338 C 5.842,8.503 1.8,0.535 0,0"
             style="fill:#000000;fill-opacity:1;fill-rule:nonzero;stroke:none"
             id="path1242"
             inkscape:connector-curvature="0" /></g><g
           id="g1244"
           transform="translate(401.8101,1055.3193)"><path
             d="m 0,0 c 1.184,3.463 2.111,7.175 3.648,10.491 0.953,2.056 2.24,4.018 3.355,5.991 0.809,1.432 1.533,3.554 2.685,4.703 1.322,1.317 4.066,2.49 5.032,0.411 C 15.756,19.364 12.546,16.82 11.081,15.417 7.973,12.441 6.337,7.63 4.926,3.634 4.472,2.349 3.813,1.08 3.426,-0.218 3.161,-1.106 3.296,-2.481 2.708,-3.177 1.815,-4.232 0.486,-4.332 -0.124,-2.977 -0.464,-2.221 -0.08,-0.878 0,0"
             style="fill:#000000;fill-opacity:1;fill-rule:nonzero;stroke:none"
             id="path1246"
             inkscape:connector-curvature="0" /></g><g
           id="g1248"
           transform="translate(414.5981,1041.3682)"><path
             d="m 0,0 c -2.328,0.183 -2.611,0.253 -1.459,3.33 0.516,1.379 0.884,2.789 1.366,4.182 0.956,2.762 1.462,5.132 1.821,8.008 0.345,2.765 1.154,4.956 2.586,7.304 0.757,1.241 3.953,6.8 5.762,5.207 C 10.882,25.898 7.099,23.346 5.841,20.846 4.912,19 4.565,16.766 4.182,14.724 3.736,12.347 3.472,9.937 2.891,7.589 2.24,4.963 2.617,1.313 0,0"
             style="fill:#000000;fill-opacity:1;fill-rule:nonzero;stroke:none"
             id="path1250"
             inkscape:connector-curvature="0" /></g><g
           id="g1252"
           transform="translate(423.124,1055.5776)"><path
             d="m 0,0 c -1.317,-0.039 -1.458,0.103 -1.155,2.086 0.15,0.984 0.193,1.852 0.53,2.753 0.401,1.071 1.024,2.744 1.752,3.615 0.346,0.412 2.035,1.848 2.575,1.849 C 6.314,10.307 3.368,6.311 2.626,5.487 1.179,3.879 1.862,1.869 0,0"
             style="fill:#000000;fill-opacity:1;fill-rule:nonzero;stroke:none"
             id="path1254"
             inkscape:connector-curvature="0" /></g><g
           id="g1256"
           transform="translate(455.5723,946.665)"><path
             d="M 0,0 C 0,0.365 -0.19,1.448 0,1.759 0.322,2.289 0.158,1.949 0.941,2.111 2.306,2.393 2.874,1.73 3.873,0.939 5.658,-0.474 7.604,-1.497 8.022,-3.8 6.255,-3.941 5.066,-4.282 3.555,-3.461 1.778,-2.497 0.877,-1.754 0,0"
             style="fill:#000000;fill-opacity:1;fill-rule:nonzero;stroke:none"
             id="path1258"
             inkscape:connector-curvature="0" /></g><g
           id="g1260"
           transform="translate(499.0625,959.6138)"><path
             d="M 0,0 C 1.975,0.539 2.991,-0.294 4.757,-1.213 6.9,-2.327 7.271,-3.196 8.445,-5.349 5.836,-5.609 2.159,-1.583 0,0 m 22.738,-13.766 c -0.629,2.172 -3.629,1.983 -5.137,2.755 -1.268,0.649 -2.785,2.08 -3.769,3.121 -2.543,2.688 -4.121,6.098 -7.076,8.383 -2.858,2.208 -6.743,3.055 -10.175,4.118 -1.335,0.413 -2.755,0.639 -3.995,1.266 -1.877,0.952 -3.717,2.375 -5.44,3.586 -3.027,2.129 -5.712,4.493 -8.961,6.3 -0.57,-1.376 -0.156,-1.723 0.563,-2.955 2.351,-2.993 5.693,-4.547 8.841,-6.651 3.368,-2.25 6.262,-4.502 9.196,-7.249 2.405,-2.252 5.312,-5.462 8.26,-6.914 1.517,-0.746 3.519,-0.505 5.089,-1.142 1.687,-0.686 3.178,-2.135 4.761,-3.042 1.358,-0.779 2.844,-1.327 4.247,-2.025 0.894,-0.447 4.421,-2.402 3.596,0.449"
             style="fill:#000000;fill-opacity:1;fill-rule:nonzero;stroke:none"
             id="path1262"
             inkscape:connector-curvature="0" /></g><g
           id="g1264"
           transform="translate(466.269,982.5552)"><path
             d="M 0,0 C -0.861,0.822 -0.507,1.477 0.454,1.788 1.596,2.159 1.265,1.805 2.034,1.362 2.919,0.854 5.018,0.069 5.642,-0.766 5.949,-1.176 5.866,-1.994 5.911,-2.533 3.564,-2.299 1.964,-1.241 0,0"
             style="fill:#000000;fill-opacity:1;fill-rule:nonzero;stroke:none"
             id="path1266"
             inkscape:connector-curvature="0" /></g><g
           id="g1268"
           transform="translate(529.0415,940.8945)"><path
             d="m 0,0 -0.281,1.548 c 2.13,0.194 3.353,0.293 5.356,-0.516 1.694,-0.684 4.611,-1.864 5.587,-3.425 0.348,-0.557 0.202,-1.32 0.532,-1.884 0.345,-0.59 1.096,-0.962 1.69,-1.331 0.994,-0.619 2.036,-1.149 3.051,-1.729 1.451,-0.83 2.852,-1.744 4.301,-2.576 6.842,-3.926 13.549,-7.968 20.377,-11.903 3.041,-1.752 8.725,-3.747 9.352,-7.6 -3.916,0 -7.371,2.713 -10.375,4.966 -3.311,2.483 -7.327,4.063 -11.01,5.928 C 22,-15.191 15.731,-11.2 9.204,-7.761 8.479,-7.38 7.461,-6.971 6.985,-6.339 6.395,-5.555 6.298,-4.73 5.614,-3.965 4.034,-2.2 2.011,-1.192 0,0"
             style="fill:#000000;fill-opacity:1;fill-rule:nonzero;stroke:none"
             id="path1270"
             inkscape:connector-curvature="0" /></g><g
           id="g1272"
           transform="translate(519.4707,907.397)"><path
             d="m 0,0 c -0.22,0.549 -0.943,1.773 -0.698,2.169 0.485,0.785 1.268,0.295 1.718,0.067 1.632,-0.828 2.326,-2.575 4.153,-3.21 1.956,-0.68 3.331,-1.679 5.06,-2.868 1.132,-0.778 3.014,-1.586 3.842,-2.633 0.531,-0.671 0.481,-1.335 0.271,-1.949 -0.433,-1.267 -0.821,-0.963 -1.725,-0.88 C 10.66,-9.124 8.917,-7.559 7.36,-6.537 4.64,-4.752 2.348,-2.241 0,0"
             style="fill:#000000;fill-opacity:1;fill-rule:nonzero;stroke:none"
             id="path1274"
             inkscape:connector-curvature="0" /></g><g
           id="g1276"
           transform="translate(557.7539,878.9663)"><path
             d="M 0,0 C 0.731,2.012 1.936,2.27 4.035,2.111 5.736,1.982 7.357,1.564 8.27,0.154 c 1.031,-1.594 1.982,-3.05 3.364,-4.443 1.051,-1.058 2.929,-1.933 3.707,-3.17 C 16.795,-9.77 14.233,-9.86 12.786,-9.217 10.811,-8.339 9.615,-7.532 8.019,-6.02 6.871,-4.931 5.9,-3.597 4.676,-2.604 3.305,-1.493 1.561,-0.781 0,0"
             style="fill:#000000;fill-opacity:1;fill-rule:nonzero;stroke:none"
             id="path1278"
             inkscape:connector-curvature="0" /></g><g
           id="g1280"
           transform="translate(602.7925,889.3813)"><path
             d="m 0,0 c -0.36,1.559 -0.562,2.501 1.292,2.745 1.28,0.168 3.16,-0.428 4.442,-0.755 3.426,-0.874 7.014,-1.88 9.925,-3.94 0.677,-0.479 0.81,-0.563 1.24,-1.208 0.131,-0.196 0.684,-1.154 0.64,-1.37 -0.068,-0.326 -0.54,-0.286 -0.72,-0.609 -0.42,-0.753 -1.083,-0.51 -0.211,-1.619 0.461,-0.586 1.434,-1.038 2.041,-1.477 2.902,-2.102 6.028,-3.802 9.102,-5.64 2.517,-1.504 4.972,-3.116 7.436,-4.706 1.114,-0.719 3.403,-1.555 3.52,-3.056 0.183,-2.341 -2.435,-1.516 -3.816,-0.991 -3.248,1.236 -6.328,3.724 -9.299,5.54 -2.463,1.505 -4.86,3.116 -7.277,4.692 C 12.13,-8.363 5.964,-4.353 0,0"
             style="fill:#000000;fill-opacity:1;fill-rule:nonzero;stroke:none"
             id="path1282"
             inkscape:connector-curvature="0" /></g><g
           id="g1284"
           transform="translate(586.4658,860.6694)"><path
             d="m 0,0 c -0.407,2.392 1.779,2.48 3.456,1.871 1.648,-0.598 2.827,-2.059 4.14,-3.256 2.9,-2.642 5.833,-5.25 8.839,-7.774 1.141,-0.958 2.93,-1.844 3.773,-3.039 1.047,-1.483 0.521,-2.984 -1.212,-2.612 -1.619,0.347 -3.965,2.164 -5.344,3.128 -1.425,0.996 -2.73,2.241 -4.073,3.344 C 6.283,-5.632 3.117,-2.909 0,0"
             style="fill:#000000;fill-opacity:1;fill-rule:nonzero;stroke:none"
             id="path1286"
             inkscape:connector-curvature="0" /></g><g
           id="g1288"
           transform="translate(672.3208,841.8091)"><path
             d="m 0,0 c -1.822,1.34 -4.366,2.797 -5.679,4.71 -0.368,0.538 -1.149,2.28 -0.514,2.891 0.424,0.407 2.142,-0.047 2.68,-0.23 C 1.062,5.813 5.289,2.043 9.149,-0.704 8.062,-1.344 6.428,-2.761 5.256,-2.628 3.676,-2.45 1.454,-0.727 0,0"
             style="fill:#000000;fill-opacity:1;fill-rule:nonzero;stroke:none"
             id="path1290"
             inkscape:connector-curvature="0" /></g><g
           id="g1292"
           transform="translate(1000.9971,552.1094)"><path
             d="m 0,0 c -18.775,12.755 -37.571,25.479 -56.326,38.264 -3.977,2.711 -7.729,5.708 -11.597,8.565 -2.923,2.159 -6.464,4.721 -6.836,8.634 -0.845,8.889 6.03,17.669 10.607,24.616 2.739,4.16 5.281,8.45 7.883,12.696 2.436,3.975 4.621,8.397 7.573,12.02 7.084,8.693 18.103,-0.003 24.988,-4.312 C -4.91,88.716 13.73,76.727 32.33,64.65 c 1.563,-1.015 5.541,-3.433 7.069,-4.483 0,0 41.616,59.604 48.965,67.596 6.101,6.635 12.905,13.685 21.866,16.052 4.366,1.153 8.846,1.493 13.077,-0.28 4.418,-1.851 8.278,-4.819 12.304,-7.365 9.255,-5.851 18.575,-11.601 27.875,-17.381 18.561,-11.536 37.306,-22.844 55.254,-35.327 8.652,-6.017 17.021,-12.359 24.912,-19.35 7.436,-6.587 15.401,-13.106 21.071,-21.324 6.022,-8.73 11.987,-17.509 17.978,-26.263 2.885,-4.214 11.289,-8.584 22.62,-75.046 0.867,-5.085 4.263,-59.814 3.907,-82.013 -0.089,-5.504 -0.357,-10.978 -0.962,-16.45 -0.303,-2.738 -0.714,-5.477 -0.915,-8.224 -0.152,-2.063 0.06,-3.752 -1.81,-4.975 -3.908,-2.553 -8.369,-4.567 -12.426,-6.921 -4.455,-2.585 -8.984,-4.902 -13.747,-6.874 -20.238,-8.378 -41.153,-14.477 -62.208,-20.443 -10.223,-2.896 -20.117,-6.507 -30.766,-7.39 -5.43,-0.45 -10.816,-1.206 -16.237,-1.696 -5.263,-0.475 -26.617,1.076 -31.988,1.438 -5.648,0.38 -42.3,9.834 -59.674,17.625 -10.665,4.782 -31.38,21.047 -40.847,27.492 -18.408,12.533 -36.857,25.006 -55.314,37.467 -4.664,3.148 -9.328,6.297 -13.992,9.447 -3.751,2.532 -8.254,4.745 -11.322,8.112 -7.427,8.149 -3.218,17.826 -0.206,26.979 6.601,20.056 16.725,38.619 27.362,56.771 C -10.379,-18.884 -5.229,-9.413 0,0 Z"
             style="fill:none;stroke:#000000;stroke-width:3;stroke-linecap:butt;stroke-linejoin:miter;stroke-miterlimit:10;stroke-dasharray:none;stroke-opacity:1"
             id="path1294"
             inkscape:connector-curvature="0" /></g><g
           id="g1296"
           transform="translate(890.3105,638.354)"><path
             d="M 0,0 36.499,-24.501"
             style="fill:none;stroke:#000000;stroke-width:3;stroke-linecap:butt;stroke-linejoin:miter;stroke-miterlimit:10;stroke-dasharray:none;stroke-opacity:1"
             id="path1298"
             inkscape:connector-curvature="0" /></g><g
           id="g1300"
           transform="translate(933.8437,672.0405)"><path
             d="M 0,0 20.13,-13.464"
             style="fill:none;stroke:#000000;stroke-width:3;stroke-linecap:butt;stroke-linejoin:miter;stroke-miterlimit:10;stroke-dasharray:none;stroke-opacity:1"
             id="path1302"
             inkscape:connector-curvature="0" /></g><g
           id="g1304"
           transform="translate(897.7764,643.7725)"><path
             d="M 0,0 C 1.118,0.843 0.965,0.998 2.031,0.62 3.241,0.192 4.51,-1.003 5.582,-1.707 6.677,-2.424 10.58,-4.238 10.615,-5.841 10.668,-8.286 6.907,-4.805 6.081,-4.229 4.054,-2.82 2.027,-1.41 0,0"
             style="fill:#000000;fill-opacity:1;fill-rule:nonzero;stroke:none"
             id="path1306"
             inkscape:connector-curvature="0" /></g><g
           id="g1308"
           transform="translate(928.8398,667.9512)"><path
             d="m 0,0 c 3.039,-2.186 6.079,-4.372 9.118,-6.558 0.909,-0.654 6.715,-5.525 6.732,-2.56 0.005,1.135 -1.159,1.779 -1.977,2.348 -1.869,1.302 -3.737,2.603 -5.606,3.905 C 6.519,-1.647 4.758,-0.053 2.854,0.904 1.369,1.651 1.546,1.249 0,0"
             style="fill:#000000;fill-opacity:1;fill-rule:nonzero;stroke:none"
             id="path1310"
             inkscape:connector-curvature="0" /></g><g
           id="g1312"
           transform="translate(929.7002,620.9678)"><path
             d="M 0,0 C -1.806,1.25 -3.616,2.497 -5.419,3.752 -6.314,4.375 -8.955,6.202 -6.47,6.701 -5.067,6.983 -2.758,4.608 -1.586,3.794 -1.098,3.455 0.739,2.599 0.948,2.033 1.125,1.552 0.307,0.546 0,0"
             style="fill:#000000;fill-opacity:1;fill-rule:nonzero;stroke:none"
             id="path1314"
             inkscape:connector-curvature="0" /></g><g
           id="g1316"
           transform="translate(936.4209,631.5508)"><path
             d="m 0,0 c -0.984,0.539 -5.532,2.161 -4.864,3.674 0.795,1.802 5.131,-1.517 5.965,-2 C 0.733,1.116 0.367,0.558 0,0"
             style="fill:#000000;fill-opacity:1;fill-rule:nonzero;stroke:none"
             id="path1318"
             inkscape:connector-curvature="0" /></g><g
           id="g1320"
           transform="translate(947.0645,648.8682)"><path
             d="M 0,0 C -0.664,0.45 -7.727,4.935 -4.636,5.229 -3.362,5.35 -1.838,3.649 -0.888,2.966 0.884,1.692 1.108,1.911 0,0"
             style="fill:#000000;fill-opacity:1;fill-rule:nonzero;stroke:none"
             id="path1322"
             inkscape:connector-curvature="0" /></g><g
           id="g1324"
           transform="translate(938.8672,650.7861)"><path
             d="M 0,0 C 0.592,-2.187 -3.384,0.665 -3.703,0.899 -4.649,1.593 -7.21,3.125 -7.373,4.163 -7.732,6.441 -5.044,4.674 -4.449,4.123 -2.967,2.749 -1.483,1.375 0,0"
             style="fill:#000000;fill-opacity:1;fill-rule:nonzero;stroke:none"
             id="path1326"
             inkscape:connector-curvature="0" /></g><g
           id="g1328"
           transform="translate(936.001,608.8433)"><path
             d="m 0,0 c -0.751,2.188 -1.987,4.689 -1.186,6.987 0.389,1.115 1.28,2.394 2.387,1.455 0.964,-0.817 0.554,-2.814 0.821,-3.885 1.337,-5.352 5.099,-8.607 9.249,-11.818 8.2,-6.345 16.875,-12.106 25.437,-17.945 3.961,-2.701 7.901,-5.43 11.917,-8.051 1.406,-0.918 2.809,-1.843 4.219,-2.754 0.808,-0.523 2.185,-1.03 2.823,-1.663 0.652,-0.647 1.352,-2.049 0.325,-2.595 -0.923,-0.491 -1.758,0.422 -2.606,0.91 -10.096,5.802 -19.51,12.55 -29.114,19.136 -4.115,2.822 -8.137,5.769 -12.18,8.694 C 9.96,-9.987 7.649,-8.553 5.643,-6.85 3.239,-4.812 1.694,-2.619 0,0"
             style="fill:#000000;fill-opacity:1;fill-rule:nonzero;stroke:none"
             id="path1330"
             inkscape:connector-curvature="0" /></g><g
           id="g1332"
           transform="translate(1010.8398,541.3447)"><path
             d="M 0,0 C -0.236,1.006 -0.796,2.65 0.425,3.178 1.481,3.635 2.873,2.365 3.644,1.897 6.022,0.453 8.45,-0.931 10.786,-2.442 c 5.289,-3.423 10.417,-7.125 15.616,-10.682 8.309,-5.683 17.005,-10.553 25.68,-15.655 3.243,-1.908 6.537,-3.751 9.738,-5.729 1.962,-1.213 7.384,-4.168 4.406,-5.185 -1.671,-0.654 -35.289,18.185 -51.721,29.275 C 9.54,-7.068 4.525,-3.921 0,0"
             style="fill:#000000;fill-opacity:1;fill-rule:nonzero;stroke:none"
             id="path1334"
             inkscape:connector-curvature="0" /></g><g
           id="g1336"
           transform="translate(967.3633,448.1377)"><path
             d="m 0,0 c -0.966,5.071 0.098,10.334 1.268,15.368 0.787,3.391 1.845,6.74 2.765,10.098 0.207,0.754 0.396,1.449 0.701,2.157 0.57,1.321 1.453,3.908 2.492,4.836 0.8,0.717 2.125,0.62 2.389,-0.72 C 9.792,30.848 8.858,29.1 8.575,28.199 7.788,25.701 6.974,23.227 6.338,20.687 4.968,15.203 2.774,9.085 3.334,3.35 3.603,0.589 4.198,-0.569 6.312,-2.075 c 2.61,-1.858 5.208,-3.734 7.83,-5.573 5.022,-3.524 10.096,-6.977 15.145,-10.464 1.559,-1.078 3.102,-2.153 4.714,-3.148 2.217,-1.367 5.928,-2.713 7.245,-5.121 1.546,-2.825 -1.661,-2.65 -3.427,-1.55 -3.103,1.936 -6.207,3.871 -9.31,5.806 -4.947,3.084 -9.633,6.516 -14.389,9.887 -3.265,2.314 -6.529,4.629 -9.794,6.944 C 2.238,-3.814 1.398,-2.237 0,0"
             style="fill:#000000;fill-opacity:1;fill-rule:nonzero;stroke:none"
             id="path1338"
             inkscape:connector-curvature="0" /></g><g
           id="g1340"
           transform="translate(1294.2822,481.4941)"><path
             d="m 0,0 c -0.335,3.216 -0.683,6.43 -1.005,9.646 -0.246,2.458 -0.899,5.204 -0.683,7.646 0.107,1.215 0.382,3.226 1.885,3.494 0.893,0.16 1.599,-0.489 1.99,-1.405 0.5,-1.171 0.427,-2.907 0.614,-4.173 0.331,-2.255 0.663,-4.51 0.994,-6.765 0.849,-5.77 0.757,-11.643 0.96,-17.468 0.082,-2.341 0.192,-4.659 0.372,-6.995 0.097,-1.252 0.528,-2.878 -0.518,-3.907 -1.352,-1.33 -2.428,-0.36 -3.261,1.025 -1.336,2.217 -0.751,6.065 -0.871,8.659 C 0.317,-6.829 0.158,-3.414 0,0"
             style="fill:#000000;fill-opacity:1;fill-rule:nonzero;stroke:none"
             id="path1342"
             inkscape:connector-curvature="0" /></g><g
           id="g1344"
           transform="translate(1100.0605,671.5811)"><path
             d="M 0,0 C 4.354,4.354 8.645,7.973 14.292,10.482 19.743,12.905 26.748,8.511 31.446,6.106 33.115,5.252 37.379,3.752 36.28,1.277 35.178,-1.206 31.28,0.83 29.576,1.727 26.837,3.168 24.027,5.124 21.113,6.153 18.237,7.169 15.728,6.64 13.162,5.024 10.448,3.315 7.877,1.078 5.504,-1.062 4.441,-2.021 3.054,-3.714 1.405,-3.577 -1.377,-3.346 -0.649,-1.761 0,0"
             style="fill:#000000;fill-opacity:1;fill-rule:nonzero;stroke:none"
             id="path1346"
             inkscape:connector-curvature="0" /></g></g></g><g
       id="g1348"
       style="fill:#000000;fill-opacity:1"><g
         id="g1350"
         clip-path="url(#clipPath1354)"
         style="fill:#000000;fill-opacity:1"><g
           id="g1356"
           transform="translate(1204.2588,948.9067)"
           style="fill:#000000;fill-opacity:1"><path
             d="m 0,0 c 81.159,-91.429 130.447,-211.787 130.447,-343.657 0,-45.42 -5.847,-89.474 -16.83,-131.451 l -4.279,24.929 c 7.33,34.349 11.187,69.985 11.187,106.522 0,128.727 -47.883,246.271 -126.811,335.789 z"
             style="fill:#000000;fill-opacity:1;fill-rule:nonzero;stroke:none"
             id="path1358"
             inkscape:connector-curvature="0" /></g><g
           id="g1360"
           transform="translate(1115.7441,1028.2036)"
           style="fill:#000000;fill-opacity:1"><path
             d="m 0,0 c -84.443,59.787 -187.575,94.922 -298.914,94.922 -130.809,0 -250.29,-48.498 -341.444,-128.494 l 8.175,-6.032 C -542.983,38.008 -426.437,85 -298.914,85 -193.042,85 -94.736,52.611 -13.363,-2.8 Z"
             style="fill:#000000;fill-opacity:1;fill-rule:nonzero;stroke:none"
             id="path1362"
             inkscape:connector-curvature="0" /></g><g
           id="g1364"
           transform="translate(1271.8027,357.668)"
           style="fill:#000000;fill-opacity:1"><path
             d="m 0,0 c -22.583,-41.413 -50.656,-79.401 -83.241,-112.989 l 13.922,29.968 c 21.223,24.735 40.108,51.534 56.312,80.056 z"
             style="fill:#000000;fill-opacity:1;fill-rule:nonzero;stroke:none"
             id="path1366"
             inkscape:connector-curvature="0" /></g><g
           id="g1368"
           transform="translate(1000.9053,131.6758)"
           style="fill:#000000;fill-opacity:1"><path
             d="m 0,0 c -57.073,-22.2 -119.151,-34.38 -184.075,-34.38 -76.371,0 -148.806,16.855 -213.787,47.046 l 1.331,-11.521 c 64.826,-29.199 136.744,-45.447 212.456,-45.447 64.408,0 126.071,11.759 182.957,33.245 z"
             style="fill:#000000;fill-opacity:1;fill-rule:nonzero;stroke:none"
             id="path1370"
             inkscape:connector-curvature="0" /></g><g
           id="g1372"
           transform="translate(386.3423,335.499)"
           style="fill:#000000;fill-opacity:1"><path
             d="m 0,0 c -49.083,78.164 -77.466,170.643 -77.466,269.751 0,112.497 36.57,216.453 98.472,300.626 L 7.967,569.274 c -60.05,-84.556 -95.355,-187.917 -95.355,-299.523 0,-102.317 29.673,-197.705 80.882,-278.026 z"
             style="fill:#000000;fill-opacity:1;fill-rule:nonzero;stroke:none"
             id="path1374"
             inkscape:connector-curvature="0" /></g><g
           id="g1376"
           transform="translate(998.9004,58.7803)"
           style="fill:#000000;fill-opacity:1"><path
             d="m 0,0 c -5.7,0.529 -11.83,0.189 -18.521,-1.931 -25.269,-7.989 -21.36,-29.25 -41.059,-33.729 -26.75,-6.08 -36.65,15.559 -62.41,12.96 -24.55,-2.481 -26.46,-25.7 -60.08,-25.58 -33.62,-0.12 -35.531,23.099 -60.08,25.58 -25.76,2.599 -35.661,-19.04 -62.411,-12.96 -19.699,4.479 -15.79,25.74 -41.049,33.729 -25.511,8.071 -42.82,-9.609 -59.33,-3.189 -14.98,5.84 -10.02,30.51 -32.681,39.39 44.651,11.81 39.83,17.5 42.031,29.379 V 63.66 C -330.311,34.729 -258.07,18.67 -182.07,18.67 -118.08,18.67 -56.75,30.06 0,50.92 -7.25,29.84 -6.66,10.37 0,0"
             style="fill:#000000;fill-opacity:1;fill-rule:nonzero;stroke:none"
             id="path1378"
             inkscape:connector-curvature="0" /></g><g
           id="g1380"
           transform="translate(1316.8008,435.6924)"
           style="fill:#000000;fill-opacity:1"><path
             d="m 0,0 c 18.044,53.218 27.829,110.246 27.829,169.558 0,134.4 -50.24,257.06 -132.96,350.25 v 0.009 c 16.78,25.941 57.53,35.531 57.53,35.531 13.531,-15.75 -5.839,-27.81 13.09,-52.761 18.92,-24.94 36.27,-13.52 44.37,-27.159 7.571,-12.761 -6.509,-27.67 2.37,-50.321 8.88,-22.659 33.56,-17.699 39.39,-32.679 6.42,-16.5 -11.26,-33.821 -3.189,-59.321 7.989,-25.27 29.25,-21.359 33.729,-41.059 6.08,-26.75 -15.559,-36.651 -12.96,-62.41 2.481,-24.551 25.7,-26.46 25.58,-60.08 0.12,-33.621 -23.099,-35.531 -25.58,-60.08 C 66.6,83.718 88.239,73.817 82.159,47.067 77.68,27.367 56.419,31.277 48.43,6.008 c -8.071,-25.5 9.609,-42.821 3.189,-59.321 -5.83,-14.979 -30.51,-10.019 -39.39,-32.679 -8.879,-22.651 5.201,-37.561 -2.37,-50.32 -8.1,-13.64 -25.45,-2.22 -44.37,-27.161 -18.929,-24.95 0.441,-37.009 -13.09,-52.759 -2.27,-2.64 -4.9,-4.5 -7.759,-5.871 v 0.01 c -12.451,5.37 -39.851,12.04 -79.691,10.33 41.916,40.129 77.229,87.099 104.144,139.117 0,0 10.771,2.198 28.681,14.128 0,0 4.614,10.291 2.226,58.518"
             style="fill:#000000;fill-opacity:1;fill-rule:nonzero;stroke:none"
             id="path1382"
             inkscape:connector-curvature="0" /></g><g
           id="g1384"
           transform="translate(1149.8604,1070.71)"
           style="fill:#000000;fill-opacity:1"><path
             d="M 0,0 C 22.909,-17.39 34.96,-2.47 48.97,-10.4 37.659,-14.59 21.35,-25.77 13.189,-30.68 4.64,-35.82 -24.7,-37.04 -24.7,-37.04 l -0.01,-0.01 c -86.74,62.55 -193.23,99.39 -308.32,99.39 -124.45,0 -238.85,-43.08 -329.08,-115.14 0,0 6.52,24.35 -10.161,48.7 1.98,1.11 4.051,2.46 6.21,4.1 24.941,18.92 13.52,36.27 27.161,44.37 12.76,7.57 27.67,-6.51 50.319,2.37 22.661,8.88 17.701,33.55 32.681,39.39 16.51,6.42 33.819,-11.26 59.33,-3.19 25.259,7.99 21.35,29.25 41.049,33.73 26.75,6.08 36.651,-15.56 62.411,-12.96 24.549,2.48 26.46,25.7 60.08,25.58 33.62,0.12 35.53,-23.1 60.08,-25.58 25.76,-2.6 35.66,19.04 62.41,12.96 19.699,-4.48 15.79,-25.74 41.06,-33.73 25.5,-8.07 42.82,9.61 59.32,3.19 14.979,-5.84 10.019,-30.51 32.68,-39.39 22.65,-8.88 37.56,5.2 50.32,-2.37 C -13.521,36.27 -24.94,18.92 0,0"
             style="fill:#000000;fill-opacity:1;fill-rule:nonzero;stroke:none"
             id="path1386"
             inkscape:connector-curvature="0" /></g><g
           id="g1388"
           transform="translate(391.7202,240.3896)"
           style="fill:#000000;fill-opacity:1"><path
             d="m 0,0 -31.84,1.44 c 0.83,8.23 1.18,17.621 -8.51,30.39 -18.92,24.941 -36.27,13.521 -44.37,27.16 -7.57,12.76 6.51,27.67 -2.37,50.321 -8.88,22.66 -33.55,17.7 -39.39,32.679 -6.42,16.5 11.26,33.821 3.19,59.321 -7.99,25.269 -29.25,21.359 -33.73,41.059 -6.08,26.75 15.56,36.651 12.96,62.41 -2.48,24.55 -25.7,26.46 -25.58,60.08 -0.12,33.62 23.1,35.53 25.58,60.08 2.6,25.76 -19.04,35.661 -12.96,62.411 4.48,19.699 25.74,15.789 33.73,41.059 8.07,25.5 -9.61,42.82 -3.19,59.32 5.84,14.98 30.51,10.02 39.39,32.68 8.88,22.651 -5.2,37.56 2.37,50.32 4.99,8.4 13.48,7.3 23.69,11.041 h 0.01 C -40.15,667.62 -9.56,664.331 -9.56,664.331 -68.29,579.24 -102.69,476.07 -102.69,364.86 -102.69,252.44 -67.54,148.23 -7.62,62.61 -7.62,62.24 -2.42,38.88 0,0"
             style="fill:#000000;fill-opacity:1;fill-rule:nonzero;stroke:none"
             id="path1390"
             inkscape:connector-curvature="0" /></g><g
           id="g1392"
           transform="translate(375.6733,941.8921)"
           style="fill:#000000;fill-opacity:1"><path
             d="m 0,0 c 9.89,19.779 20.54,38.61 32.035,57.495 5.284,8.682 9.926,18.188 17.03,25.518 7.037,7.261 9.778,16.101 13.675,25.355 5.665,-3.695 9.431,-6.464 11.855,-13.105 2.333,-6.39 0.846,-15.213 0.093,-21.858 C 73.803,65.606 72.169,60.893 66.553,55.294 61.554,50.311 56.605,44.857 53.587,38.408 50.767,32.38 49.732,25.504 46.684,19.651 43.925,14.354 39.346,9.163 34.967,5.142 30.08,0.654 25.223,-3.648 18.587,-4.825 11.499,-6.081 6.412,-2.815 0,0"
             style="fill:#000000;fill-opacity:1;fill-rule:nonzero;stroke:none"
             id="path1394"
             inkscape:connector-curvature="0" /></g></g></g></g></svg>