<svg height="511pt" viewBox="0 0 511.7159 511" width="511pt" xmlns="http://www.w3.org/2000/svg"><path d="m457.859375 122.386719c-1.707031-2.773438-4.691406-4.691407-7.890625-5.121094-2.988281-.425781-7.253906-1.707031-12.375-4.050781-.851562-.429688-1.492188-.640625-2.347656-.855469-8.746094-1.917969-17.492188-6.824219-24.746094-13.867187-8.320312-8.320313-13.652344-18.773438-14.292969-29.011719 0-.855469-.210937-1.492188-.425781-2.347657-.640625-1.917968-1.28125-4.050781-1.492188-5.757812-.429687-3.203125-2.347656-6.1875-5.121093-7.894531-2.773438-1.707031-6.398438-1.921875-9.386719-.855469-29.226562 11.523438-76.375 48.640625-117.546875 92.375-40.960937 43.519531-100.054687 82.988281-147.414063 114.558594-33.492187 22.402344-62.507812 41.816406-78.292968 57.816406-53.332032 54.613281-42.238282 124.160156-4.480469 161.917969 19.628906 19.628906 47.789063 32 77.867187 32 27.945313 0 57.8125-10.667969 84.054688-36.480469 16-15.574219 35.414062-44.585938 57.8125-78.292969 31.574219-47.359375 71.039062-106.453125 114.558594-147.414062 43.734375-40.957031 80.855468-88.320313 92.375-117.546875 1.28125-2.773438.851562-6.398438-.855469-9.171875zm0 0" fill="#4caf50"/><path d="m499.675781 54.761719c-3.203125-3.203125-8.109375-4.054688-12.160156-2.136719-4.269531 2.136719-13.015625.214844-20.695313-7.464844-7.464843-7.464844-9.597656-16.425781-7.464843-20.691406 2.132812-4.054688 1.277343-8.960938-1.707031-12.160156-2.988282-3.203125-7.894532-4.269532-11.949219-2.5625l-34.34375 14.933594c-9.816407 1.28125-18.347657 5.121093-24.746094 11.519531-18.988281 18.773437-14.933594 53.546875 8.957031 77.441406 13.65625 13.652344 30.933594 20.90625 46.722656 20.90625 11.730469 0 22.613282-3.839844 30.503907-11.945313 5.121093-5.121093 8.746093-11.734374 10.667969-19.628906l18.132812-35.839844c2.132812-4.050781 1.28125-8.960937-1.917969-12.371093zm0 0" fill="#388e3c"/><path d="m510.980469 40.894531c-1.707031-9.175781-6.828125-18.132812-14.292969-25.601562-16.640625-16.640625-39.679688-19.839844-52.265625-7.253907-12.585937 12.585938-9.386719 35.628907 7.253906 52.269532 7.464844 7.464844 16.425781 12.371094 25.597657 14.292968 2.347656.425782 4.695312.636719 7.039062.636719 7.683594 0 14.722656-2.558593 19.628906-7.679687 6.613282-6.613282 9.171875-16.210938 7.039063-26.664063zm0 0" fill="#43a047"/><path d="m109.914062 511.507812c-30.078124 0-58.238281-12.375-77.867187-32-37.757813-37.761718-49.066406-107.308593 4.480469-161.921874 15.574218-16 44.585937-35.414063 78.292968-57.8125 47.359376-31.574219 106.453126-71.039063 147.414063-114.558594 40.960937-43.734375 88.320313-80.855469 117.546875-92.375 2.988281-1.28125 6.613281-.851563 9.386719.855468 2.773437 1.703126 4.691406 4.691407 5.121093 7.890626.210938 1.707031.851563 3.839843 1.492188 5.761718.214844.640625.425781 1.492188.425781 2.347656.855469 10.023438 5.972657 20.691407 14.292969 29.011719 7.039062 7.039063 15.789062 11.945313 24.746094 13.867188.855468.210937 1.707031.425781 2.347656.851562 5.121094 2.347657 9.386719 3.839844 12.375 4.054688 3.199219.425781 6.183594 2.347656 7.890625 5.121093 1.707031 2.773438 1.921875 6.398438.855469 9.386719-11.519532 29.226563-48.855469 76.371094-92.375 117.546875-43.519532 40.957032-82.984375 100.050782-114.558594 147.410156-22.398438 33.496094-41.8125 62.722657-57.8125 78.292969-26.242188 25.386719-55.894531 36.269531-84.054688 36.269531zm266.027344-433.28125c-23.46875 13.011719-60.375 41.171876-98.132812 81.492188-42.667969 45.226562-102.828125 85.335938-151.039063 117.761719-32.640625 21.757812-60.800781 40.53125-74.882812 54.828125-44.371094 45.226562-35.839844 100.691406-4.691407 131.839844 31.144532 31.144531 86.613282 39.679687 131.839844-4.695313 14.503906-14.078125 33.277344-42.238281 54.824219-74.878906 32.214844-48.425781 72.320313-108.585938 117.761719-151.039063 40.746094-38.402344 69.332031-75.734375 82.132812-98.988281-1.28125-.425781-2.558594-1.066406-4.054687-1.707031-12.585938-2.773438-24.53125-9.601563-34.132813-19.199219-10.238281-10.242187-17.066406-22.402344-19.625-35.414063zm0 0"/><path d="m63.195312 490.8125c-13.226562 0-23.894531-4.265625-30.933593-11.304688-20.480469-20.480468-16.855469-68.90625 40.105469-126.292968 15.574218-15.789063 43.09375-36.695313 74.667968-61.226563 44.800782-34.347656 100.480469-77.015625 142.078125-120.109375 36.90625-37.972656 73.175781-72.957031 94.722657-91.09375 2.558593-2.132812 5.972656-2.984375 9.171874-2.34375 3.199219.640625 5.972657 2.773438 7.464844 5.757813 2.5625 5.335937 5.976563 10.242187 10.242188 14.507812 4.90625 4.90625 10.667968 8.746094 17.066406 11.304688 3.199219 1.28125 5.546875 4.054687 6.1875 7.253906.851562 3.203125 0 6.828125-2.132812 9.386719-17.496094 20.90625-53.546876 58.667968-91.949219 95.789062-43.09375 41.8125-85.757813 97.492188-120.105469 142.078125-24.320312 31.789063-45.441406 59.09375-61.226562 74.667969-37.332032 37.121094-70.828126 51.625-95.359376 51.625zm325.117188-385.707031c-21.332031 18.988281-52.90625 49.496093-83.839844 81.496093-42.878906 44.160157-99.199218 87.464844-144.425781 122.238282-31.144531 23.894531-58.027344 44.585937-72.53125 59.308594-46.292969 46.71875-51.414063 85.117187-40.109375 96.210937 11.09375 11.09375 49.496094 6.1875 96.214844-40.105469 14.71875-14.507812 35.414062-41.386718 59.304687-72.535156 34.773438-45.226562 78.082031-101.546875 122.242188-144.425781 32.425781-31.359375 63.144531-62.933594 81.917969-84.265625-4.050782-2.773438-7.890626-5.761719-11.304688-9.175782-2.988281-2.769531-5.332031-5.757812-7.46875-8.746093zm0 0"/><path d="m442.289062 134.546875c-15.789062 0-33.066406-7.039063-46.722656-20.90625-23.679687-23.679687-27.730468-58.453125-8.957031-77.441406 6.398437-6.398438 14.929687-10.453125 24.746094-11.519531l34.34375-14.933594c4.054687-1.707032 8.960937-.851563 11.949219 2.5625 3.199218 3.199218 3.839843 8.105468 1.707031 12.160156-2.132813 4.265625 0 13.226562 7.464843 20.691406 7.679688 7.679688 16.425782 9.601563 20.695313 7.464844 4.050781-1.917969 9.171875-1.066406 12.160156 2.136719 3.199219 3.199219 4.050781 8.320312 1.917969 12.371093l-18.132812 35.839844c-1.921876 7.894532-5.332032 14.507813-10.667969 19.628906-7.890625 7.890626-18.773438 11.945313-30.503907 11.945313zm-4.269531-98.132813-19.839843 8.53125c-1.066407.429688-2.132813.855469-3.410157.855469-5.546875.425781-10.027343 2.347657-13.230469 5.546875-10.453124 10.453125-6.398437 32 8.960938 47.144532 15.359375 15.148437 36.90625 19.203124 47.148438 8.960937 2.558593-2.558594 4.265624-5.972656 5.121093-10.238281.210938-.855469.425781-1.921875.851563-2.773438l10.667968-20.90625c-7.894531-2.136718-16-6.613281-22.613281-13.441406-7.042969-7.039062-11.734375-15.359375-13.65625-23.679688zm0 0"/><path d="m484.3125 75.238281c-2.34375 0-4.691406-.210937-7.039062-.636719-9.171876-1.707031-18.132813-6.828124-25.597657-14.292968-16.640625-16.640625-19.839843-39.683594-7.253906-52.269532 12.585937-12.585937 35.625-9.386718 52.265625 7.253907 7.464844 7.46875 12.375 16.425781 14.292969 25.601562 2.132812 10.453125-.425781 20.265625-7.039063 26.664063-4.90625 4.910156-11.945312 7.679687-19.628906 7.679687zm-20.050781-53.542969c-2.132813 0-3.628907.425782-4.695313 1.492188-2.984375 2.984375-1.707031 13.011719 7.253906 21.972656 4.480469 4.480469 9.8125 7.464844 14.507813 8.320313 1.707031.214843 5.546875.851562 7.464844-1.066407 1.921875-1.921874 1.496093-5.972656 1.066406-7.46875-.851563-4.90625-4.050781-10.238281-8.320313-14.503906-5.972656-6.1875-12.796874-8.746094-17.277343-8.746094zm0 0"/></svg>